<svg width="544" height="513" viewBox="0 0 544 513" fill="none" xmlns="http://www.w3.org/2000/svg">
<g clip-path="url(#clip0_77_213)">
<g clip-path="url(#clip1_77_213)">
<g clip-path="url(#clip2_77_213)">
<path d="M103.252 64.1331C117.51 73.5969 109.35 86.9071 103.463 104.374C100.729 112.473 99.3367 121.634 95.5713 128.001C83.6823 148.105 67.8444 145.665 54.5052 135.281C40.7582 124.566 38.9479 107.256 52.9677 87.0015C66.2519 67.8205 87.6788 53.8082 103.252 64.1331Z" fill="#5A39D6"/>
<path d="M487.661 305.127C478.833 360.859 453.486 400.362 416.238 422.27C378.968 444.189 329.429 448.702 271.818 433.712C244.508 424.459 224.046 421.393 207.363 421.381C190.699 421.369 177.905 424.407 166.05 427.222L165.982 427.238C154.096 430.061 143.234 432.627 130.086 431.92C116.961 431.214 101.413 427.231 80.3368 416.686C45.8544 398.289 33.0884 367.814 35.5395 333.269C38.0008 298.58 55.8387 259.808 82.6751 225.461C109.918 190.594 118.119 161.66 124.845 136.401C125.033 135.695 125.22 134.993 125.406 134.294C131.865 109.992 137.333 89.4164 157.636 69.6658C178.528 49.4568 212.065 38.6274 247.761 39.4662C283.421 40.3042 320.967 52.7889 349.751 78.8551L349.752 78.8561C361.525 89.5012 375.058 99.5035 388.899 109.733C392.354 112.287 395.828 114.855 399.299 117.45C416.725 130.482 434.143 144.264 449.041 160.666C478.729 193.349 498.531 236.546 487.661 305.127Z" fill="white" stroke="#5A39D6" stroke-width="4"/>
<path d="M104.593 324.077H56.793V342.04H104.593V324.077Z" stroke="black" stroke-width="1.3547" stroke-miterlimit="10" stroke-linecap="round" stroke-linejoin="round"/>
<path d="M102.594 344.579H55.2938C54.0938 344.579 53.0938 343.602 53.0938 342.431C53.0938 341.259 54.0938 340.283 55.2938 340.283H102.594C103.294 340.283 103.894 339.697 103.894 339.014V327.006C103.894 326.323 103.294 325.737 102.594 325.737H55.2938C54.0938 325.737 53.0938 324.761 53.0938 323.589C53.0938 322.418 54.0938 321.441 55.2938 321.441H102.594C105.794 321.441 108.294 323.98 108.294 327.006V339.014C108.294 342.04 105.694 344.579 102.594 344.579Z" fill="#1F1F1F"/>
<path d="M102.594 344.579H55.2938C54.0938 344.579 53.0938 343.602 53.0938 342.431C53.0938 341.259 54.0938 340.283 55.2938 340.283H102.594C103.294 340.283 103.894 339.697 103.894 339.014V327.006C103.894 326.323 103.294 325.737 102.594 325.737H55.2938C54.0938 325.737 53.0938 324.761 53.0938 323.589C53.0938 322.418 54.0938 321.441 55.2938 321.441H102.594C105.794 321.441 108.294 323.98 108.294 327.006V339.014C108.294 342.04 105.694 344.579 102.594 344.579Z" stroke="black" stroke-width="1.3547" stroke-miterlimit="10" stroke-linecap="round" stroke-linejoin="round"/>
<path d="M105.593 329.544H78.793" stroke="black" stroke-width="1.3547" stroke-miterlimit="10" stroke-linecap="round" stroke-linejoin="round"/>
<path d="M105.595 335.012H75.3945" stroke="black" stroke-width="1.3547" stroke-miterlimit="10" stroke-linecap="round" stroke-linejoin="round"/>
<path d="M105.601 349.171H4.80078V381.583H105.601V349.171Z" fill="white"/>
<path d="M105.601 349.171H4.80078V381.583H105.601V349.171Z" stroke="black" stroke-width="1.3547" stroke-miterlimit="10" stroke-linecap="round" stroke-linejoin="round"/>
<path d="M4.80078 360.204H48.5008" stroke="black" stroke-width="1.3547" stroke-miterlimit="10" stroke-linecap="round" stroke-linejoin="round"/>
<path d="M4.80078 370.454H60.7007" stroke="black" stroke-width="1.3547" stroke-miterlimit="10" stroke-linecap="round" stroke-linejoin="round"/>
<path d="M108.8 384.707H9C4.9 384.707 1.5 381.388 1.5 377.385V352.491C1.5 348.488 4.9 345.169 9 345.169H108.8C110.6 345.169 112.1 346.633 112.1 348.391C112.1 350.148 110.6 351.612 108.8 351.612H9C8.5 351.612 8.09998 352.003 8.09998 352.491V377.385C8.09998 377.874 8.5 378.264 9 378.264H108.8C110.6 378.264 112.1 379.729 112.1 381.486C112.1 383.243 110.6 384.707 108.8 384.707Z" fill="#FFB000"/>
<path d="M108.8 384.707H9C4.9 384.707 1.5 381.388 1.5 377.385V352.491C1.5 348.488 4.9 345.169 9 345.169H108.8C110.6 345.169 112.1 346.633 112.1 348.391C112.1 350.148 110.6 351.612 108.8 351.612H9C8.5 351.612 8.09998 352.003 8.09998 352.491V377.385C8.09998 377.874 8.5 378.264 9 378.264H108.8C110.6 378.264 112.1 379.729 112.1 381.486C112.1 383.243 110.6 384.707 108.8 384.707Z" stroke="black" stroke-width="1.3547" stroke-miterlimit="10" stroke-linecap="round" stroke-linejoin="round"/>
<path d="M467.297 385.684H339.595H320.019H303.775H300.526H24.2969" stroke="black" stroke-width="1.3547" stroke-miterlimit="10" stroke-linecap="round" stroke-linejoin="round"/>
<path d="M164.297 254.865V257.805C164.297 259.315 163.76 260.666 162.916 261.699H132.297V254.865H164.297Z" fill="white"/>
<path d="M164.297 254.865V257.805C164.297 259.315 163.76 260.666 162.916 261.699H132.297V254.865H164.297Z" stroke="black" stroke-width="1.3547" stroke-miterlimit="10" stroke-linecap="round" stroke-linejoin="round"/>
<path d="M358.704 385.389L252.904 382.656L147.104 385.389C130.304 357.468 144.504 318.32 176.404 286.494C192.504 270.386 212.704 263.65 228.704 260.916C239.604 259.061 248.504 259.061 252.904 259.256C256.904 259.061 264.804 259.061 274.604 260.526C290.904 262.966 312.404 269.605 329.404 286.494C361.304 318.32 375.504 357.468 358.704 385.389Z" fill="#846BFA"/>
<path d="M358.704 385.389L252.904 382.656L147.104 385.389C130.304 357.468 144.504 318.32 176.404 286.494C192.504 270.386 212.704 263.65 228.704 260.916C239.604 259.061 248.504 259.061 252.904 259.256C256.904 259.061 264.804 259.061 274.604 260.526C290.904 262.966 312.404 269.605 329.404 286.494C361.304 318.32 375.504 357.468 358.704 385.389Z" stroke="black" stroke-width="1.3547" stroke-miterlimit="10" stroke-linecap="round" stroke-linejoin="round"/>
<path d="M144.102 335.796C144.102 335.796 154.602 325.253 167.902 329.158C180.802 332.965 189.302 348.878 188.002 357.664C187.302 362.253 180.402 364.791 173.102 359.324C165.702 353.759 144.102 335.796 144.102 335.796Z" fill="#1F1F1F"/>
<path d="M144.102 335.796C144.102 335.796 154.602 325.253 167.902 329.158C180.802 332.965 189.302 348.878 188.002 357.664C187.302 362.253 180.402 364.791 173.102 359.324C165.702 353.759 144.102 335.796 144.102 335.796Z" stroke="black" stroke-width="1.3547" stroke-miterlimit="10" stroke-linecap="round" stroke-linejoin="round"/>
<path d="M361.797 335.796C361.797 335.796 351.297 325.253 337.997 329.158C325.097 332.965 316.597 348.878 317.897 357.664C318.597 362.253 325.497 364.791 332.797 359.324C340.197 353.759 361.797 335.796 361.797 335.796Z" fill="#1F1F1F"/>
<path d="M361.797 335.796C361.797 335.796 351.297 325.253 337.997 329.158C325.097 332.965 316.597 348.878 317.897 357.664C318.597 362.253 325.497 364.791 332.797 359.324C340.197 353.759 361.797 335.796 361.797 335.796Z" stroke="black" stroke-width="1.3547" stroke-miterlimit="10" stroke-linecap="round" stroke-linejoin="round"/>
<path d="M255.802 277.316C254.802 277.414 253.702 277.414 252.602 277.414C251.702 277.414 250.902 277.414 250.002 277.316C227.702 276.242 228.702 260.818 228.702 260.818C239.602 258.963 248.502 258.963 252.902 259.158C256.902 258.963 264.802 258.963 274.602 260.427C274.602 260.525 277.302 275.95 255.802 277.316Z" fill="#1F1F1F"/>
<path d="M265.6 249.687V265.892C265.6 265.892 261.7 271.164 251.8 271.164C241.9 271.164 238 265.892 238 265.892V249.687H265.6Z" fill="white"/>
<path d="M265.6 249.687V265.892C265.6 265.892 261.7 271.164 251.8 271.164C241.9 271.164 238 265.892 238 265.892V249.687H265.6Z" stroke="black" stroke-width="1.3547" stroke-miterlimit="10" stroke-linecap="round" stroke-linejoin="round"/>
<path d="M278.897 224.407C278.897 243.639 266.497 258.186 251.097 258.186C235.697 258.186 223.297 243.639 223.297 224.407C223.297 205.175 235.697 186.626 251.097 186.626C266.397 186.626 278.897 205.175 278.897 224.407Z" fill="white"/>
<path d="M278.897 224.407C278.897 243.639 266.497 258.186 251.097 258.186C235.697 258.186 223.297 243.639 223.297 224.407C223.297 205.175 235.697 186.626 251.097 186.626C266.397 186.626 278.897 205.175 278.897 224.407Z" stroke="black" stroke-width="1.3547" stroke-miterlimit="10" stroke-linecap="round" stroke-linejoin="round"/>
<path d="M284.398 216.983C284.198 217.471 283.998 217.959 283.898 218.349C283.298 219.618 282.798 220.595 282.298 221.278C281.798 222.059 281.398 222.45 281.398 222.45C281.198 222.547 280.998 222.645 280.698 222.742C280.398 222.938 279.998 223.035 279.698 223.231C279.398 223.328 279.198 223.426 278.998 223.523C278.798 223.621 278.598 223.719 278.298 223.816C252.298 233.286 233.798 202.827 233.798 202.827C233.698 216.592 226.898 224.597 224.398 227.136C223.998 227.526 223.698 227.819 223.598 227.917C223.498 228.014 223.498 228.014 223.498 228.014C222.998 227.429 222.498 226.843 222.098 226.257C221.998 226.159 221.898 225.964 221.798 225.866C221.298 225.183 220.698 224.402 220.298 223.719C219.498 222.547 218.798 221.376 218.198 220.204C217.598 219.13 217.198 218.154 216.698 217.08C215.298 213.761 214.598 210.539 214.398 207.415C213.098 188.671 230.198 172.953 246.198 171.489C267.798 169.439 271.998 180.08 271.998 180.08C274.798 179.299 286.598 182.228 286.898 199.605C286.898 207.806 285.698 213.37 284.398 216.983Z" fill="#5A39D6"/>
<path d="M220.803 230.259L217.203 229.38L218.303 224.987C217.903 221.863 215.603 201.557 226.603 188.963C232.203 182.617 240.203 179.396 250.403 179.396C261.903 179.396 270.603 182.91 276.403 189.939C287.703 203.704 283.103 225.768 282.503 228.306L278.903 227.525C279.403 225.182 283.703 204.681 273.503 192.282C268.503 186.229 260.703 183.105 250.403 183.105C241.303 183.105 234.303 185.839 229.503 191.306C218.903 203.314 222.103 224.499 222.103 224.792L222.203 225.182L220.803 230.259Z" fill="white"/>
<path d="M220.803 230.259L217.203 229.38L218.303 224.987C217.903 221.863 215.603 201.557 226.603 188.963C232.203 182.617 240.203 179.396 250.403 179.396C261.903 179.396 270.603 182.91 276.403 189.939C287.703 203.704 283.103 225.768 282.503 228.306L278.903 227.525C279.403 225.182 283.703 204.681 273.503 192.282C268.503 186.229 260.703 183.105 250.403 183.105C241.303 183.105 234.303 185.839 229.503 191.306C218.903 203.314 222.103 224.499 222.103 224.792L222.203 225.182L220.803 230.259Z" stroke="black" stroke-width="1.3547" stroke-miterlimit="10" stroke-linecap="round" stroke-linejoin="round"/>
<path d="M258.498 219.519C257.998 220.3 263.998 222.741 264.798 221.862C265.698 221.081 259.198 218.348 258.498 219.519Z" fill="black"/>
<path d="M260.202 230.849C259.602 230.849 259.102 230.361 259.102 229.775V227.139C259.102 226.554 259.602 226.065 260.202 226.065C260.802 226.065 261.302 226.554 261.302 227.139V229.775C261.302 230.361 260.802 230.849 260.202 230.849Z" fill="black"/>
<path d="M243.397 230.849C242.797 230.849 242.297 230.361 242.297 229.775V227.139C242.297 226.554 242.797 226.065 243.397 226.065C243.997 226.065 244.497 226.554 244.497 227.139V229.775C244.497 230.361 243.997 230.849 243.397 230.849Z" fill="black"/>
<path d="M258.703 230.847C258.703 230.847 260.003 229.871 261.703 230.847" stroke="black" stroke-width="1.3547" stroke-miterlimit="10" stroke-linecap="round" stroke-linejoin="round"/>
<path d="M248.898 245.685C248.898 245.685 257.098 245.002 261.298 239.047" stroke="black" stroke-width="1.3547" stroke-miterlimit="10" stroke-linecap="round" stroke-linejoin="round"/>
<path d="M245.104 219.519C245.604 220.3 239.604 222.741 238.804 221.862C237.904 221.081 244.404 218.348 245.104 219.519Z" fill="black"/>
<path d="M244.898 230.847C244.898 230.847 243.598 229.871 241.898 230.847" stroke="black" stroke-width="1.3547" stroke-miterlimit="10" stroke-linecap="round" stroke-linejoin="round"/>
<path d="M249.203 232.015C249.203 232.015 248.603 235.237 251.703 234.846C254.903 234.554 254.903 231.234 252.703 231.137" stroke="black" stroke-width="1.3547" stroke-miterlimit="10" stroke-linecap="round" stroke-linejoin="round"/>
<path d="M165.603 329.16C185.103 335.31 183.003 376.704 171.603 385.393H129.603C129.603 385.393 127.803 361.084 135.303 347.123C142.803 333.163 156.003 326.134 165.603 329.16Z" fill="white"/>
<path d="M165.603 329.16C185.103 335.31 183.003 376.704 171.603 385.393H129.603C129.603 385.393 127.803 361.084 135.303 347.123C142.803 333.163 156.003 326.134 165.603 329.16Z" stroke="black" stroke-width="1.3547" stroke-miterlimit="10" stroke-linecap="round" stroke-linejoin="round"/>
<path d="M143.203 385.388H166.703C168.503 389.977 177.403 390.172 186.203 385.388L186.303 385.291C189.003 383.826 190.603 380.995 190.603 377.969V376.993C190.603 373.966 189.003 371.135 186.303 369.671C186.303 369.671 186.303 369.671 186.203 369.671C184.203 368.597 178.203 370.061 174.903 369.183C171.703 368.402 166.203 364.594 164.603 362.935C164.603 362.935 164.603 362.934 164.503 362.837C163.003 361.275 157.803 356.784 150.503 360.689C145.803 363.423 143.903 376.7 143.203 385.388Z" fill="white"/>
<path d="M143.203 385.388H166.703C168.503 389.977 177.403 390.172 186.203 385.388L186.303 385.291C189.003 383.826 190.603 380.995 190.603 377.969V376.993C190.603 373.966 189.003 371.135 186.303 369.671C186.303 369.671 186.303 369.671 186.203 369.671C184.203 368.597 178.203 370.061 174.903 369.183C171.703 368.402 166.203 364.594 164.603 362.935C164.603 362.935 164.603 362.934 164.503 362.837C163.003 361.275 157.803 356.784 150.503 360.689C145.803 363.423 143.903 376.7 143.203 385.388Z" stroke="black" stroke-width="1.3547" stroke-miterlimit="10" stroke-linecap="round" stroke-linejoin="round"/>
<path d="M186.699 385.192C186.599 385.289 186.399 385.387 186.299 385.387C177.499 390.171 168.599 389.975 166.799 385.387C166.399 384.313 166.299 382.946 166.799 381.384C169.699 372.012 179.599 372.5 179.599 372.5" stroke="black" stroke-width="1.3547" stroke-miterlimit="10" stroke-linecap="round" stroke-linejoin="round"/>
<path d="M340.298 329.16C320.798 335.31 322.898 376.704 334.298 385.393H376.198C376.198 385.393 377.998 361.084 370.498 347.123C363.098 333.163 349.898 326.134 340.298 329.16Z" fill="white"/>
<path d="M340.298 329.16C320.798 335.31 322.898 376.704 334.298 385.393H376.198C376.198 385.393 377.998 361.084 370.498 347.123C363.098 333.163 349.898 326.134 340.298 329.16Z" stroke="black" stroke-width="1.3547" stroke-miterlimit="10" stroke-linecap="round" stroke-linejoin="round"/>
<path d="M362.697 385.388H339.197C337.397 389.977 328.497 390.172 319.697 385.388L319.597 385.291C316.897 383.826 315.297 380.995 315.297 377.969V376.993C315.297 373.966 316.897 371.135 319.597 369.671C319.597 369.671 319.597 369.671 319.697 369.671C321.697 368.597 327.697 370.061 330.997 369.183C334.197 368.402 339.697 364.594 341.297 362.935C341.297 362.935 341.297 362.934 341.397 362.837C342.897 361.275 348.097 356.784 355.397 360.689C360.097 363.423 361.997 376.7 362.697 385.388Z" fill="white"/>
<path d="M362.697 385.388H339.197C337.397 389.977 328.497 390.172 319.697 385.388L319.597 385.291C316.897 383.826 315.297 380.995 315.297 377.969V376.993C315.297 373.966 316.897 371.135 319.597 369.671C319.597 369.671 319.597 369.671 319.697 369.671C321.697 368.597 327.697 370.061 330.997 369.183C334.197 368.402 339.697 364.594 341.297 362.935C341.297 362.935 341.297 362.934 341.397 362.837C342.897 361.275 348.097 356.784 355.397 360.689C360.097 363.423 361.997 376.7 362.697 385.388Z" stroke="black" stroke-width="1.3547" stroke-miterlimit="10" stroke-linecap="round" stroke-linejoin="round"/>
<path d="M326.397 372.5C326.397 372.5 336.297 372.012 339.197 381.384C339.697 382.946 339.597 384.313 339.197 385.387C337.397 389.975 328.497 390.171 319.697 385.387C319.597 385.289 319.397 385.192 319.297 385.192" stroke="black" stroke-width="1.3547" stroke-miterlimit="10" stroke-linecap="round" stroke-linejoin="round"/>
<path d="M371.5 386.267C371.5 386.267 376.5 389 378.4 382.557C380.7 375.138 376.9 360.591 372.8 359.81C368.7 359.029 366.5 364.692 366.5 364.692L371.5 386.267Z" fill="white"/>
<path d="M371.5 386.267C371.5 386.267 376.5 389 378.4 382.557C380.7 375.138 376.9 360.591 372.8 359.81C368.7 359.029 366.5 364.692 366.5 364.692L371.5 386.267Z" stroke="black" stroke-width="1.3547" stroke-miterlimit="10" stroke-linecap="round" stroke-linejoin="round"/>
<path d="M353.602 363.52C353.602 363.52 356.302 358.151 363.502 358.639C370.702 359.127 373.502 384.022 372.502 387.146C371.602 390.27 361.502 392.222 360.202 386.365C358.802 380.507 353.602 363.52 353.602 363.52Z" fill="white"/>
<path d="M353.602 363.52C353.602 363.52 356.302 358.151 363.502 358.639C370.702 359.127 373.502 384.022 372.502 387.146C371.602 390.27 361.502 392.222 360.202 386.365C358.802 380.507 353.602 363.52 353.602 363.52Z" stroke="black" stroke-width="1.3547" stroke-miterlimit="10" stroke-linecap="round" stroke-linejoin="round"/>
<path d="M361.303 385.388C361.203 386.365 361.003 387.146 360.703 387.731C358.103 392.515 347.603 392.32 345.103 385.388C345.103 385.291 345.003 385.193 345.003 384.998C343.503 379.921 341.903 369.085 341.203 362.935C341.203 362.935 341.203 362.934 341.303 362.837C342.803 361.275 348.003 356.784 355.303 360.689C357.703 363.618 362.103 378.457 361.303 385.388Z" fill="white"/>
<path d="M341.203 363.03C341.203 362.933 341.303 362.933 341.203 363.03ZM341.203 363.03C342.803 361.371 347.903 356.977 355.303 360.882C357.703 363.714 362.103 378.553 361.403 385.484C361.303 386.46 361.103 387.241 360.803 387.827C358.203 392.611 347.703 392.416 345.203 385.484C345.203 385.387 345.103 385.289 345.103 385.094C344.103 381.677 343.103 375.819 342.303 370.45" stroke="black" stroke-width="1.3547" stroke-miterlimit="10" stroke-linecap="round" stroke-linejoin="round"/>
<path d="M134.4 386.267C134.4 386.267 129.4 389 127.5 382.557C125.2 375.138 129 360.591 133.1 359.81C137.2 359.029 139.4 364.692 139.4 364.692L134.4 386.267Z" fill="white"/>
<path d="M134.4 386.267C134.4 386.267 129.4 389 127.5 382.557C125.2 375.138 129 360.591 133.1 359.81C137.2 359.029 139.4 364.692 139.4 364.692L134.4 386.267Z" stroke="black" stroke-width="1.3547" stroke-miterlimit="10" stroke-linecap="round" stroke-linejoin="round"/>
<path d="M152.299 363.52C152.299 363.52 149.599 358.151 142.399 358.639C135.199 359.127 132.399 384.022 133.399 387.146C134.299 390.27 144.399 392.222 145.699 386.365C147.099 380.507 152.299 363.52 152.299 363.52Z" fill="white"/>
<path d="M152.299 363.52C152.299 363.52 149.599 358.151 142.399 358.639C135.199 359.127 132.399 384.022 133.399 387.146C134.299 390.27 144.399 392.222 145.699 386.365C147.099 380.507 152.299 363.52 152.299 363.52Z" stroke="black" stroke-width="1.3547" stroke-miterlimit="10" stroke-linecap="round" stroke-linejoin="round"/>
<path d="M144.604 385.388C144.704 386.365 144.904 387.146 145.204 387.731C147.804 392.515 158.304 392.32 160.804 385.388C160.804 385.291 160.904 385.193 160.904 384.998C162.404 379.921 164.004 369.085 164.704 362.935C164.704 362.935 164.704 362.934 164.604 362.837C163.104 361.275 157.904 356.784 150.604 360.689C148.204 363.618 143.804 378.457 144.604 385.388Z" fill="white"/>
<path d="M164.704 363.03C164.704 362.933 164.704 362.933 164.704 363.03ZM164.704 363.03C163.104 361.371 158.004 356.977 150.604 360.882C148.204 363.714 143.804 378.553 144.504 385.484C144.604 386.46 144.804 387.241 145.104 387.827C147.704 392.611 158.204 392.416 160.704 385.484C160.704 385.387 160.804 385.289 160.804 385.094C161.704 381.97 162.704 376.6 163.504 371.621" stroke="black" stroke-width="1.3547" stroke-miterlimit="10" stroke-linecap="round" stroke-linejoin="round"/>
<path d="M271.701 179.984C257.101 168.854 221.601 169.05 214.101 207.417C212.801 188.673 229.901 172.955 245.901 171.49C267.501 169.343 271.701 179.984 271.701 179.984Z" fill="white"/>
<path d="M284.398 216.983C284.198 217.471 283.998 217.959 283.898 218.349C283.298 219.618 282.798 220.595 282.298 221.278C281.798 222.059 281.398 222.45 281.398 222.45C281.198 222.547 280.998 222.645 280.698 222.742C280.398 222.938 279.998 223.035 279.698 223.231C279.398 223.328 279.198 223.426 278.998 223.523C278.798 223.621 278.598 223.719 278.298 223.816C252.298 233.286 233.798 202.827 233.798 202.827C233.698 216.592 226.898 224.597 224.398 227.136C223.998 227.526 223.698 227.819 223.598 227.917C223.498 228.014 223.498 228.014 223.498 228.014C222.998 227.429 222.498 226.843 222.098 226.257C221.998 226.159 221.898 225.964 221.798 225.866C221.298 225.183 220.698 224.402 220.298 223.719C219.498 222.547 218.798 221.376 218.198 220.204C217.598 219.13 217.198 218.154 216.698 217.08C215.298 213.761 214.598 210.539 214.398 207.415C213.098 188.671 230.198 172.953 246.198 171.489C267.798 169.439 271.998 180.08 271.998 180.08C274.798 179.299 286.598 182.228 286.898 199.605C286.898 207.806 285.698 213.37 284.398 216.983Z" stroke="black" stroke-width="1.3547" stroke-miterlimit="10" stroke-linecap="round" stroke-linejoin="round"/>
<path d="M281.097 237.973L279.297 237.778L281.197 216.593L286.797 217.081C289.297 217.276 291.097 219.424 290.897 221.767L290.097 230.553C289.697 235.142 285.597 238.363 281.097 237.973Z" fill="white"/>
<path d="M281.103 237.974L279.703 237.876C278.503 237.779 277.703 236.802 277.703 235.728V228.309C277.703 224.209 279.003 220.108 281.203 216.691L283.003 216.887C283.003 216.789 281.003 225.868 281.103 237.974Z" fill="black"/>
<path d="M220.903 237.973L222.703 237.778L220.703 216.593L215.103 217.081C212.603 217.276 210.803 219.424 211.103 221.865L211.903 230.651C212.303 235.142 216.403 238.461 220.903 237.973Z" fill="white"/>
<path d="M281.097 237.973L279.297 237.778L281.197 216.593L286.797 217.081C289.297 217.276 291.097 219.424 290.897 221.767L290.097 230.553C289.697 235.142 285.597 238.363 281.097 237.973Z" stroke="black" stroke-width="1.3547" stroke-miterlimit="10" stroke-linecap="round" stroke-linejoin="round"/>
<path d="M220.903 237.973L222.703 237.778L220.703 216.593L215.103 217.081C212.603 217.276 210.803 219.424 211.103 221.865L211.903 230.651C212.303 235.142 216.403 238.461 220.903 237.973Z" stroke="black" stroke-width="1.3547" stroke-miterlimit="10" stroke-linecap="round" stroke-linejoin="round"/>
<path d="M220.897 237.974L222.297 237.876C223.497 237.779 224.297 236.802 224.297 235.728L224.197 228.309C224.197 224.209 222.897 220.108 220.597 216.691L218.797 216.887C218.897 216.789 220.897 225.868 220.897 237.974Z" fill="black"/>
<path d="M281.103 237.974L279.703 237.876C278.503 237.779 277.703 236.802 277.703 235.728V228.309C277.703 224.209 279.003 220.108 281.203 216.691L283.003 216.887C283.003 216.789 281.003 225.868 281.103 237.974Z" stroke="black" stroke-width="1.3547" stroke-miterlimit="10" stroke-linecap="round" stroke-linejoin="round"/>
<path d="M220.897 237.974L222.297 237.876C223.497 237.779 224.297 236.802 224.297 235.728L224.197 228.309C224.197 224.209 222.897 220.108 220.597 216.691L218.797 216.887C218.897 216.789 220.897 225.868 220.897 237.974Z" stroke="black" stroke-width="1.3547" stroke-miterlimit="10" stroke-linecap="round" stroke-linejoin="round"/>
<path d="M514.297 106.709V266.345C514.297 270.257 511.069 273.414 507.069 273.414H349.525C345.525 273.414 342.297 270.257 342.297 266.345V106.709C342.297 102.797 345.525 99.6396 349.525 99.6396H506.999C511.069 99.6396 514.297 102.797 514.297 106.709Z" fill="white" stroke="black" stroke-width="2"/>
<path d="M514.297 106.997V114.284H342.297V106.997C342.297 102.926 345.526 99.6396 349.528 99.6396H507.066C511.067 99.6396 514.297 102.926 514.297 106.997Z" fill="#846BFA"/>
<path d="M514.297 106.997V114.284H342.297V106.997C342.297 102.926 345.526 99.6396 349.528 99.6396H507.066C511.067 99.6396 514.297 102.926 514.297 106.997Z" stroke="black" stroke-width="1.3547" stroke-miterlimit="10" stroke-linecap="round" stroke-linejoin="round"/>
<path d="M492.297 106.961C492.297 108.317 491.186 109.402 489.797 109.402C488.408 109.402 487.297 108.317 487.297 106.961C487.297 105.605 488.408 104.521 489.797 104.521C491.186 104.588 492.297 105.673 492.297 106.961Z" fill="white"/>
<path d="M508.297 106.961C508.297 108.317 507.186 109.402 505.797 109.402C504.408 109.402 503.297 108.317 503.297 106.961C503.297 105.605 504.408 104.521 505.797 104.521C507.186 104.588 508.297 105.673 508.297 106.961Z" fill="white"/>
<path d="M477.297 106.961C477.297 108.317 476.186 109.402 474.797 109.402C473.408 109.402 472.297 108.317 472.297 106.961C472.297 105.605 473.408 104.521 474.797 104.521C476.186 104.588 477.297 105.673 477.297 106.961Z" fill="white"/>
<path d="M312.395 380.21H192.895L183.195 309.139C182.895 307.284 184.395 305.722 186.295 305.722H318.895C320.795 305.722 322.295 307.381 321.995 309.139L312.395 380.21Z" fill="#5A39D6"/>
<path d="M312.395 380.21H192.895L183.195 309.139C182.895 307.284 184.395 305.722 186.295 305.722H318.895C320.795 305.722 322.295 307.381 321.995 309.139L312.395 380.21Z" stroke="black" stroke-width="1.3547" stroke-miterlimit="10" stroke-linecap="round" stroke-linejoin="round"/>
<path d="M312.395 377.77H192.895V385.287H312.395V377.77Z" fill="white"/>
<path d="M312.395 377.77H192.895V385.287H312.395V377.77Z" stroke="black" stroke-width="1.3547" stroke-miterlimit="10" stroke-linecap="round" stroke-linejoin="round"/>
<path d="M250.095 356.39C257.22 356.39 262.995 350.751 262.995 343.796C262.995 336.841 257.22 331.202 250.095 331.202C242.971 331.202 237.195 336.841 237.195 343.796C237.195 350.751 242.971 356.39 250.095 356.39Z" fill="#FFB000"/>
<path d="M381.977 135.762H328.616C326.246 135.762 324.297 137.663 324.297 139.975V164.073C324.297 166.385 326.246 168.287 328.616 168.287H373.914C375.506 168.287 377.003 169.045 377.945 170.328L382.82 176.97C384.137 178.768 386.297 176.911 386.297 174.683V139.975C386.297 137.663 384.348 135.762 381.977 135.762Z" fill="#FFB000" stroke="black" stroke-width="1.3547" stroke-miterlimit="10" stroke-linecap="round" stroke-linejoin="round"/>
<path d="M486.307 131.631V133.278L496.424 141.783C497.478 142.675 499.094 141.92 499.094 140.617V122.715C499.094 121.343 497.478 120.657 496.424 121.548L486.307 130.054V131.631Z" stroke="black" stroke-width="1.3547" stroke-miterlimit="10" stroke-linecap="round" stroke-linejoin="round"/>
<path d="M477.105 133.074C477.105 134.789 475.699 136.092 474.013 136.092C472.257 136.092 470.922 134.72 470.922 133.074C470.922 131.359 472.327 130.056 474.013 130.056C475.699 129.988 477.105 131.359 477.105 133.074Z" fill="#FFB000"/>
<path d="M480.97 139.86H466.004C463.545 139.86 461.508 137.871 461.508 135.47V127.788C461.508 125.388 463.545 123.398 466.004 123.398H480.97C483.429 123.398 485.466 125.388 485.466 127.788V135.47C485.466 137.94 483.499 139.86 480.97 139.86Z" stroke="black" stroke-width="1.3547" stroke-miterlimit="10" stroke-linecap="round" stroke-linejoin="round"/>
<path d="M476.616 131.63C476.616 133.345 475.211 134.648 473.525 134.648C471.768 134.648 470.434 133.277 470.434 131.63C470.434 129.984 471.839 128.612 473.525 128.612C475.281 128.612 476.616 129.984 476.616 131.63Z" stroke="black" stroke-width="1.3547" stroke-miterlimit="10" stroke-linecap="round" stroke-linejoin="round"/>
<path d="M164.297 132.71V257.915C164.297 259.349 163.756 260.632 162.906 261.613C161.824 262.896 160.202 263.651 158.425 263.651H30.1688C26.9238 263.651 24.2969 261.085 24.2969 257.915V132.71C24.2969 129.541 26.9238 126.975 30.1688 126.975H158.348C161.67 126.975 164.297 129.541 164.297 132.71Z" fill="white" stroke="black" stroke-width="1.3547" stroke-miterlimit="10" stroke-linecap="round" stroke-linejoin="round"/>
<path d="M164.297 132.814V143.571H24.2969V132.814C24.2969 129.587 26.9238 126.975 30.1688 126.975H158.348C161.67 126.975 164.297 129.587 164.297 132.814Z" fill="#846BFA"/>
<path d="M125.297 135.273C125.297 136.629 124.186 137.713 122.797 137.713C121.408 137.713 120.297 136.629 120.297 135.273C120.297 133.917 121.408 132.832 122.797 132.832C124.186 132.832 125.297 133.917 125.297 135.273Z" fill="white"/>
<path d="M143.297 135.273C143.297 136.629 141.964 137.713 140.297 137.713C138.63 137.713 137.297 136.629 137.297 135.273C137.297 133.917 138.63 132.832 140.297 132.832C141.964 132.832 143.297 133.917 143.297 135.273Z" fill="white"/>
<path d="M160.297 135.273C160.297 136.629 158.964 137.713 157.297 137.713C155.63 137.713 154.297 136.629 154.297 135.273C154.297 133.917 155.63 132.832 157.297 132.832C158.964 132.832 160.297 133.917 160.297 135.273Z" fill="white"/>
<path d="M160.297 135.273C160.297 136.629 158.964 137.713 157.297 137.713C155.63 137.713 154.297 136.629 154.297 135.273C154.297 133.917 155.63 132.832 157.297 132.832C158.964 132.832 160.297 133.917 160.297 135.273Z" fill="white"/>
<path d="M164.297 132.814V143.571H24.2969V132.814C24.2969 129.587 26.9238 126.975 30.1688 126.975H158.348C161.67 126.975 164.297 129.587 164.297 132.814Z" stroke="black" stroke-width="1.3547" stroke-miterlimit="10" stroke-linecap="round" stroke-linejoin="round"/>
<path d="M163.341 193.425H160.246V176.656H161.097C162.335 176.656 163.264 177.638 163.264 178.771V193.425H163.341Z" fill="white"/>
<path d="M144.618 179.07L132.393 193.724H139.434C139.356 192.214 139.82 190.778 140.594 189.57L144.54 183.527V179.07H144.618Z" fill="white"/>
<path d="M163.341 193.425H160.246V176.656H161.097C162.335 176.656 163.264 177.638 163.264 178.771V193.425H163.341Z" stroke="black" stroke-width="1.3547" stroke-miterlimit="10" stroke-linecap="round" stroke-linejoin="round"/>
<path d="M144.618 179.07L132.393 193.724H139.434C139.356 192.214 139.82 190.778 140.594 189.57L144.54 183.527V179.07H144.618Z" stroke="black" stroke-width="1.3547" stroke-miterlimit="10" stroke-linecap="round" stroke-linejoin="round"/>
<path d="M156.224 172.502H148.332V193.426H156.224V172.502Z" fill="#1F1F1F"/>
<path d="M156.224 172.502H148.332V193.426H156.224V172.502Z" stroke="black" stroke-width="1.3547" stroke-miterlimit="10" stroke-linecap="round" stroke-linejoin="round"/>
<path d="M149.259 170.159H143.146V193.424H149.259V170.159Z" fill="#FFB000"/>
<path d="M149.259 170.159H143.146V193.424H149.259V170.159Z" stroke="black" stroke-width="1.3547" stroke-miterlimit="10" stroke-linecap="round" stroke-linejoin="round"/>
<path d="M161.329 170.159H155.217V193.424H161.329V170.159Z" fill="#FFB000"/>
<path d="M161.329 170.159H155.217V193.424H161.329V170.159Z" stroke="black" stroke-width="1.3547" stroke-miterlimit="10" stroke-linecap="round" stroke-linejoin="round"/>
<path d="M164.502 192.82H117.305V195.389H164.502V192.82Z" fill="white"/>
<path d="M164.502 192.82H117.305V195.389H164.502V192.82Z" stroke="black" stroke-width="1.3547" stroke-miterlimit="10" stroke-linecap="round" stroke-linejoin="round"/>
<path d="M372.9 205.722C372.9 205.722 365.297 184.756 365.297 182.556C365.297 179.6 369.672 177.813 372.398 179.188C376.272 181.25 382.297 207.028 382.297 207.028L372.9 205.722Z" fill="white"/>
<path d="M372.9 205.722C372.9 205.722 365.297 184.756 365.297 182.556C365.297 179.6 369.672 177.813 372.398 179.188C376.272 181.25 382.297 207.028 382.297 207.028L372.9 205.722Z" stroke="black" stroke-width="1.3547" stroke-miterlimit="10" stroke-linecap="round" stroke-linejoin="round"/>
<path d="M389.297 213.22C379.94 220.824 368.297 221.739 363.44 221.668C361.583 212.445 360.297 205.123 360.297 205.123L383.297 200.194C383.297 200.194 385.725 205.334 389.297 213.22Z" fill="white"/>
<path d="M389.297 213.22C379.94 220.824 368.297 221.739 363.44 221.668C361.583 212.445 360.297 205.123 360.297 205.123L383.297 200.194C383.297 200.194 385.725 205.334 389.297 213.22Z" stroke="black" stroke-width="1.3547" stroke-miterlimit="10" stroke-linecap="round" stroke-linejoin="round"/>
<path d="M362.297 199.498C362.297 199.498 363.063 196.423 366.548 195.42C370.032 194.417 373.237 200.769 374.004 204.313C374.77 207.79 374.143 210.866 370.798 210.933C367.384 211 366.478 207.121 365.781 204.848C365.154 202.507 362.297 199.498 362.297 199.498Z" fill="white"/>
<path d="M362.297 199.498C362.297 199.498 363.063 196.423 366.548 195.42C370.032 194.417 373.237 200.769 374.004 204.313C374.77 207.79 374.143 210.866 370.798 210.933C367.384 211 366.478 207.121 365.781 204.848C365.154 202.507 362.297 199.498 362.297 199.498Z" stroke="black" stroke-width="1.3547" stroke-miterlimit="10" stroke-linecap="round" stroke-linejoin="round"/>
<path d="M445.297 228.321L411.828 258.872L409.871 261.281C407.216 263.964 401.766 267.818 392.263 267.542C378.079 267.198 371.86 255.088 368.297 240.363L375.075 235.133C378.918 227.357 384.787 221.509 391.355 217.105C410.85 204.168 436.842 204.1 436.842 204.1L445.297 228.321Z" fill="#846BFA"/>
<path d="M445.297 228.321L411.828 258.872L409.871 261.281C407.216 263.964 401.766 267.818 392.263 267.542C378.079 267.198 371.86 255.088 368.297 240.363L375.075 235.133C378.918 227.357 384.787 221.509 391.355 217.105C410.85 204.168 436.842 204.1 436.842 204.1L445.297 228.321Z" stroke="black" stroke-width="1.3547" stroke-miterlimit="10" stroke-linecap="round" stroke-linejoin="round"/>
<path d="M410.297 261.315C407.623 263.984 402.135 267.817 392.566 267.543C378.283 267.201 372.021 255.156 368.433 240.511C368.363 240.237 368.292 239.964 368.222 239.69C367.941 238.527 367.659 237.295 367.378 236.063C367.237 235.379 367.096 234.694 366.885 234.01C366.745 233.462 366.604 232.915 366.533 232.368C366.393 231.752 366.252 231.136 366.111 230.588C365.83 229.425 365.619 228.261 365.408 227.167C365.337 226.824 365.267 226.414 365.197 226.072C365.197 225.935 365.126 225.729 365.126 225.593C365.056 225.387 365.056 225.113 364.986 224.908C364.915 224.498 364.774 224.019 364.704 223.608C364.634 223.266 364.563 222.992 364.493 222.718C364.423 222.376 364.352 221.966 364.282 221.623C364.212 221.281 364.141 221.007 364.071 220.665C364 220.46 364 220.186 363.93 219.981C363.93 219.912 363.93 219.844 363.86 219.776C363.789 219.57 363.789 219.365 363.719 219.16C363.719 219.16 363.719 219.16 363.719 219.091C363.649 218.818 363.649 218.544 363.578 218.27C363.508 218.065 363.508 217.791 363.438 217.586C363.367 217.312 363.367 217.038 363.297 216.833C368.363 217.107 377.087 216.012 387.289 208.005C387.36 208.142 387.43 208.279 387.5 208.415C387.571 208.621 387.712 208.826 387.782 209.031C387.852 209.168 387.923 209.374 387.993 209.51C388.556 210.674 389.119 211.974 389.752 213.343C390.315 214.643 390.948 216.012 391.652 217.449C397.21 229.767 404.738 246.807 410.297 261.315Z" fill="#846BFA"/>
<path d="M410.297 261.308C407.619 263.98 402.123 267.817 392.54 267.543C378.235 267.2 371.964 255.142 368.37 240.48C368.3 240.206 368.229 239.932 368.159 239.658C367.877 238.493 367.595 237.26 367.313 236.027C367.172 235.342 367.032 234.656 366.82 233.971C366.679 233.423 366.538 232.875 366.468 232.327C366.327 231.71 366.186 231.094 366.045 230.546C365.763 229.381 365.552 228.216 365.34 227.12C365.27 226.777 365.199 226.366 365.129 226.024C365.129 225.887 365.058 225.681 365.058 225.544C364.988 225.339 364.988 225.065 364.918 224.859C364.847 224.448 364.706 223.968 364.636 223.557C364.565 223.215 364.495 222.941 364.424 222.667C364.354 222.324 364.283 221.913 364.213 221.57C363.861 219.926 363.579 218.35 363.297 216.843C368.37 217.117 377.108 216.021 387.325 208.005C388.523 210.608 390.003 213.829 391.694 217.391C393.597 221.57 395.711 226.298 397.895 231.231" stroke="black" stroke-width="1.3547" stroke-miterlimit="10" stroke-linecap="round" stroke-linejoin="round"/>
<path d="M389.297 213.429C380.238 220.845 368.967 221.738 364.265 221.669C364.196 221.326 364.127 221.051 364.057 220.708C363.988 220.502 363.988 220.227 363.919 220.021C363.919 219.952 363.919 219.884 363.85 219.815C363.781 219.609 363.781 219.403 363.712 219.197C363.712 219.197 363.712 219.197 363.712 219.128C363.643 218.854 363.643 218.579 363.573 218.304C363.504 218.099 363.504 217.824 363.435 217.618C363.366 217.343 363.366 217.069 363.297 216.863C368.276 217.137 376.85 216.039 386.877 208.005C386.946 208.142 387.015 208.28 387.084 208.417C387.153 208.623 387.292 208.829 387.361 209.035C387.43 209.172 387.499 209.378 387.568 209.516C388.121 210.751 388.744 212.056 389.297 213.429Z" fill="#846BFA"/>
<path d="M389.297 213.429C380.238 220.845 368.967 221.738 364.265 221.669C364.196 221.326 364.127 221.051 364.057 220.708C363.988 220.502 363.988 220.227 363.919 220.021C363.919 219.952 363.919 219.884 363.85 219.815C363.781 219.609 363.781 219.403 363.712 219.197C363.712 219.197 363.712 219.197 363.712 219.128C363.643 218.854 363.643 218.579 363.573 218.304C363.504 218.099 363.504 217.824 363.435 217.618C363.366 217.343 363.366 217.069 363.297 216.863C368.276 217.137 376.85 216.039 386.877 208.005C386.946 208.142 387.015 208.28 387.084 208.417C387.153 208.623 387.292 208.829 387.361 209.035C387.43 209.172 387.499 209.378 387.568 209.516C388.121 210.751 388.744 212.056 389.297 213.429Z" stroke="black" stroke-width="1.3547" stroke-miterlimit="10" stroke-linecap="round" stroke-linejoin="round"/>
<path d="M358.41 201.098C357.749 203.582 359.995 212.95 365.014 211.815C370.034 210.679 365.609 200.033 362.835 198.472C361.118 197.549 358.806 199.607 358.41 201.098Z" fill="white"/>
<path d="M358.41 201.098C357.749 203.582 359.995 212.95 365.014 211.815C370.034 210.679 365.609 200.033 362.835 198.472C361.118 197.549 358.806 199.607 358.41 201.098Z" stroke="black" stroke-width="1.3547" stroke-miterlimit="10" stroke-linecap="round" stroke-linejoin="round"/>
<path d="M384.297 201.327C384.297 201.327 383.498 196.664 380.593 196.305C377.689 195.946 367.74 201.83 368.321 204.269C368.975 206.709 370.935 208.79 374.566 207.713C378.27 206.637 384.297 201.327 384.297 201.327Z" fill="white"/>
<path d="M384.297 201.327C384.297 201.327 383.498 196.664 380.593 196.305C377.689 195.946 367.74 201.83 368.321 204.269C368.975 206.709 370.935 208.79 374.566 207.713C376.382 207.211 378.705 205.632 380.666 204.197" stroke="black" stroke-width="1.3547" stroke-miterlimit="10" stroke-linecap="round" stroke-linejoin="round"/>
<path d="M436.643 204.459C436.643 204.459 462.641 200.448 478.59 219.215C494.54 237.982 495.946 263.345 496.297 270.485H401.652C401.652 270.485 397.366 254.574 404.041 236.69C410.645 218.671 436.643 204.459 436.643 204.459Z" fill="#846BFA"/>
<path d="M436.643 204.459C436.643 204.459 462.641 200.448 478.59 219.215C494.54 237.982 495.946 263.345 496.297 270.485H401.652C401.652 270.485 397.366 254.574 404.041 236.69" stroke="black" stroke-width="1.3547" stroke-miterlimit="10" stroke-linecap="round" stroke-linejoin="round"/>
<path d="M469.297 237.292C469.297 237.292 472.079 249.396 471.08 271.461" stroke="black" stroke-width="1.3547" stroke-miterlimit="10" stroke-linecap="round" stroke-linejoin="round"/>
<path d="M445.297 194.337V206.852C445.297 206.852 443.06 210.933 437.297 210.933C431.602 210.933 429.297 206.852 429.297 206.852V194.337H445.297Z" fill="#846BFA"/>
<path d="M445.297 194.337V206.852C445.297 206.852 443.06 210.933 437.297 210.933C431.602 210.933 429.297 206.852 429.297 206.852V194.337H445.297Z" stroke="black" stroke-width="1.3547" stroke-miterlimit="10" stroke-linecap="round" stroke-linejoin="round"/>
<path d="M444.297 193.36V203.711C444.297 203.711 442.337 207.028 437.297 207.028C432.257 207.028 430.297 203.711 430.297 203.711V193.36H444.297Z" fill="white"/>
<path d="M444.297 193.36V203.711C444.297 203.711 442.337 207.028 437.297 207.028C432.257 207.028 430.297 203.711 430.297 203.711V193.36H444.297Z" stroke="black" stroke-width="1.3547" stroke-miterlimit="10" stroke-linecap="round" stroke-linejoin="round"/>
<path d="M467.103 214.148C461.294 220.589 448.697 220.863 443.939 211.818C439.25 202.774 444.289 181.738 444.289 181.738L426.024 181.875C426.024 181.875 435.891 195.031 430.292 208.392C426.023 218.602 416.646 222.027 410.628 218.19C408.738 216.957 407.198 215.039 406.219 212.435C402.09 201.266 412.937 196.264 416.926 192.153C420.915 188.042 418.885 179.34 418.605 172.009C418.395 164.677 423.154 150.973 435.961 150.425C447.718 149.877 456.745 160.703 455.486 176.257C454.226 191.879 459.335 194.414 462.554 196.881C465.703 199.211 472.911 207.707 467.103 214.148Z" fill="#5A39D6"/>
<path d="M420.237 186.027C421.086 193.928 412.172 198.015 409.413 201.829C406.653 205.643 406.158 212.046 410.686 217.767C408.776 216.541 407.219 214.634 406.229 212.046C402.055 200.944 413.021 195.972 417.053 191.885C421.086 187.798 419.034 179.148 418.751 171.86C418.539 164.572 423.35 150.95 436.297 150.405C418.468 153.947 419.388 178.126 420.237 186.027Z" fill="white"/>
<path d="M435.915 150.425C423.118 151.042 418.363 164.668 418.573 171.994C418.782 179.321 420.88 188.017 416.894 192.125C412.908 196.233 402.139 201.232 406.195 212.393C410.321 223.554 424.656 221.773 430.251 208.353C435.845 195.001 425.985 181.854 425.985 181.854L444.237 181.717C444.237 181.717 439.202 202.738 443.957 211.776C448.643 220.815 461.3 220.541 467.104 214.104C472.908 207.668 465.706 199.177 462.559 196.712C459.342 194.247 454.237 191.714 455.496 176.102C456.685 160.628 447.664 149.878 435.915 150.425Z" stroke="black" stroke-width="1.3547" stroke-miterlimit="10" stroke-linecap="round" stroke-linejoin="round"/>
<path d="M451.297 180.194C451.297 189.891 444.804 197.265 436.797 197.265C428.789 197.265 422.297 189.891 422.297 180.194C422.297 170.498 428.789 161.144 436.797 161.144C444.877 161.144 451.297 170.498 451.297 180.194Z" fill="white"/>
<path d="M451.297 180.194C451.297 189.891 444.804 197.265 436.797 197.265C428.789 197.265 422.297 189.891 422.297 180.194C422.297 170.498 428.789 161.144 436.797 161.144C444.877 161.144 451.297 170.498 451.297 180.194Z" stroke="black" stroke-width="1.3547" stroke-miterlimit="10" stroke-linecap="round" stroke-linejoin="round"/>
<path d="M431.297 179.692H430.297V177.48C430.297 177.089 430.524 176.764 430.797 176.764C431.07 176.764 431.297 177.089 431.297 177.48V179.692Z" fill="#1F1F1F"/>
<path d="M440.298 173.648C440.371 174.753 445.147 175.349 445.294 174.158C445.441 172.968 440.224 172.202 440.298 173.648Z" fill="#1F1F1F"/>
<path d="M442.297 179.692H441.297V177.48C441.297 177.089 441.524 176.764 441.797 176.764C442.07 176.764 442.297 177.089 442.297 177.48V179.692Z" fill="#1F1F1F"/>
<path d="M440.297 179.693C440.297 179.693 441.154 179.693 442.297 179.693" stroke="black" stroke-width="1.3547" stroke-miterlimit="10" stroke-linecap="round" stroke-linejoin="round"/>
<path d="M432.296 173.491C432.296 174.485 427.594 175.403 427.3 174.332C427.153 173.262 432.37 172.115 432.296 173.491Z" stroke="black" stroke-width="0.4255" stroke-miterlimit="10"/>
<path d="M431.297 179.693C431.297 179.693 430.868 179.693 430.297 179.693" stroke="black" stroke-width="1.3547" stroke-miterlimit="10" stroke-linecap="round" stroke-linejoin="round"/>
<path d="M435.334 184.084C435.334 184.084 434.926 185.68 436.806 185.542C438.686 185.403 438.686 183.667 437.378 183.598" stroke="black" stroke-width="1.3547" stroke-miterlimit="10" stroke-linecap="round" stroke-linejoin="round"/>
<path d="M441.456 162.431C441.456 162.431 435.831 178.022 421.589 179.693C421.589 179.693 418.029 156.584 435.759 155.331C453.49 154.078 452.279 179.484 452.279 179.484C452.279 179.484 447.153 178.927 441.456 162.431Z" fill="#5A39D6"/>
<path d="M441.456 162.431C441.456 162.431 435.831 178.022 421.589 179.693C421.589 179.693 418.029 156.584 435.759 155.331C453.49 154.078 452.279 179.484 452.279 179.484C452.279 179.484 447.153 178.927 441.456 162.431Z" stroke="black" stroke-width="1.3547" stroke-miterlimit="10" stroke-linecap="round" stroke-linejoin="round"/>
<path d="M449.297 179.078C449.297 179.078 450.588 176.988 454.248 178.033C457.908 179.078 456.903 188.205 449.297 186.254V179.078Z" fill="white"/>
<path d="M450.695 178.237C451.424 177.82 452.618 177.473 454.409 178.028C457.725 179.07 456.863 187.822 450.297 186.363" stroke="black" stroke-width="1.3547" stroke-miterlimit="10" stroke-linecap="round" stroke-linejoin="round"/>
<path d="M451.297 181.244C451.297 181.244 453.819 179.276 455.297 182.621" stroke="black" stroke-width="1.3547" stroke-miterlimit="10" stroke-linecap="round" stroke-linejoin="round"/>
<path d="M453.297 183.598V180.669" stroke="black" stroke-width="1.3547" stroke-miterlimit="10" stroke-linecap="round" stroke-linejoin="round"/>
<path d="M441.438 191.286C441.037 191.408 440.57 191.408 440.103 191.408C438.701 191.347 437.232 190.741 437.299 189.771C437.433 188.195 440.57 188.68 441.438 187.529C442.306 186.316 443.975 186.074 444.242 187.529V187.589C444.509 188.983 443.841 190.68 441.438 191.286Z" fill="#1F1F1F"/>
<path d="M441.438 191.286C441.037 191.408 440.57 191.408 440.103 191.408C438.701 191.347 437.232 190.741 437.299 189.771C437.433 188.195 440.57 188.68 441.438 187.529C442.306 186.316 443.975 186.074 444.242 187.529V187.589C444.509 188.983 443.841 190.68 441.438 191.286Z" stroke="black" stroke-width="1.3547" stroke-miterlimit="10" stroke-linecap="round" stroke-linejoin="round"/>
<path d="M440.973 191.291C440.514 191.408 439.979 191.408 439.444 191.408C439.215 190.295 439.062 188.948 440.514 188.596C441.66 188.303 442.272 187.073 444.259 187.659C444.488 189.065 443.724 190.705 440.973 191.291Z" fill="white"/>
<path d="M424.297 179.078C424.297 179.078 423.005 176.988 419.346 178.033C415.686 179.078 416.691 188.205 424.297 186.254V179.078Z" fill="white"/>
<path d="M423.297 179.078C423.297 179.078 422.19 176.988 419.053 178.033C415.916 179.078 416.777 188.205 423.297 186.254" stroke="black" stroke-width="1.3547" stroke-miterlimit="10" stroke-linecap="round" stroke-linejoin="round"/>
<path d="M422.297 181.244C422.297 181.244 419.775 179.276 418.297 182.621" stroke="black" stroke-width="1.3547" stroke-miterlimit="10" stroke-linecap="round" stroke-linejoin="round"/>
<path d="M420.297 183.598V180.669" stroke="black" stroke-width="1.3547" stroke-miterlimit="10" stroke-linecap="round" stroke-linejoin="round"/>
<path d="M99.2969 220.436V261.698H32.2969V220.436C32.2969 218.38 33.0617 216.477 34.2854 214.954C35.8151 213.127 38.1861 211.909 40.7866 211.909H90.8072C95.3962 211.909 99.1439 215.563 99.2969 220.131C99.2969 220.284 99.2969 220.36 99.2969 220.436Z" stroke="black" stroke-width="1.3547" stroke-miterlimit="10" stroke-linecap="round" stroke-linejoin="round"/>
<path d="M56.2969 238.269V261.699H48.4062C45.8281 261.699 43.4063 260.368 42.2344 258.151C41.7656 257.19 41.375 256.008 41.2969 254.603C41.2969 254.529 41.2969 254.381 41.2969 254.308C41.2969 249.134 41.2969 238.342 41.2969 238.342H56.2969V238.269Z" fill="white"/>
<path d="M56.2969 261.698H48.4062C45.8281 261.698 43.4063 260.313 42.2344 258.004C41.7656 257.003 41.375 255.772 41.2969 254.31C41.2969 254.233 41.2969 254.079 41.2969 254.002C41.2969 251.154 41.2969 246.767 41.2969 243.149" stroke="black" stroke-width="1.3547" stroke-miterlimit="10" stroke-linecap="round" stroke-linejoin="round"/>
<path d="M57.2969 261.699H48.3464C45.9702 261.699 43.7523 260.569 42.485 258.685C42.485 258.685 42.485 258.61 42.4058 258.61C41.6929 257.555 41.2969 256.349 41.2969 255.068V239.245L52.782 239.32H56.7424L57.2969 261.699Z" fill="white"/>
<path d="M151.297 252.563C151.297 252.563 154.132 251.335 155.832 252.318C157.533 253.219 160.297 257.56 160.297 258.543C160.297 259.526 158.313 260.509 156.683 258.87C155.053 257.232 151.297 252.563 151.297 252.563Z" fill="white"/>
<path d="M151.297 252.563C151.297 252.563 154.132 251.335 155.832 252.318C157.533 253.219 160.297 257.56 160.297 258.543C160.297 259.526 158.313 260.509 156.683 258.87C155.053 257.232 151.297 252.563 151.297 252.563Z" stroke="black" stroke-width="1.3547" stroke-miterlimit="10" stroke-linecap="round" stroke-linejoin="round"/>
<path d="M145.297 253.087C145.297 253.087 146.826 250.625 149.321 250.998C151.815 251.371 157.368 256.295 158.012 257.19C159.139 258.756 156.725 260.994 154.23 260.696C151.735 260.397 145.86 255.474 145.86 255.474L145.297 253.087Z" fill="white"/>
<path d="M145.297 253.087C145.297 253.087 146.826 250.625 149.321 250.998C151.815 251.371 157.368 256.295 158.012 257.19C159.139 258.756 156.725 260.994 154.23 260.696C151.735 260.397 145.86 255.474 145.86 255.474L145.297 253.087Z" stroke="black" stroke-width="1.3547" stroke-miterlimit="10" stroke-linecap="round" stroke-linejoin="round"/>
<path d="M116.779 261.698H56.4847L56.0942 252.347C49.6118 244.042 39.3023 243.369 39.3023 243.369C39.1461 240.9 42.3483 229.978 51.6424 223.17C56.4847 219.654 64.2949 218.382 70.6993 217.933C76.635 217.559 81.3211 217.933 81.3211 217.933C85.3043 218.382 88.897 219.055 92.0992 220.028C123.028 229.304 116.779 261.698 116.779 261.698Z" fill="#5A39D6"/>
<path d="M116.779 261.698H56.4847L56.0942 252.347C49.6118 244.042 39.3023 243.369 39.3023 243.369C39.1461 240.9 42.3483 229.978 51.6424 223.17C56.4847 219.654 64.2949 218.382 70.6993 217.933C76.635 217.559 81.3211 217.933 81.3211 217.933C85.3043 218.382 88.897 219.055 92.0992 220.028C123.028 229.304 116.779 261.698 116.779 261.698Z" stroke="black" stroke-width="1.3547" stroke-miterlimit="10" stroke-linecap="round" stroke-linejoin="round"/>
<path d="M99.4595 254.247C99.4595 254.247 98.2969 260.371 98.2969 261.699H132.479L142.943 256.755C142.943 256.755 148.214 260.15 150.151 260.592C150.151 260.592 154.027 261.183 153.174 257.346C153.174 257.346 143.796 250.336 141.935 249.598C140.075 248.86 133.874 250.705 129.921 252.992L116.047 249.008L99.4595 254.247Z" fill="white"/>
<path d="M99.4595 254.247C99.4595 254.247 98.2969 260.371 98.2969 261.699H132.479L142.943 256.755C142.943 256.755 148.214 260.15 150.151 260.592C150.151 260.592 154.027 261.183 153.174 257.346C153.174 257.346 143.796 250.336 141.935 249.598C140.075 248.86 133.874 250.705 129.921 252.992L116.047 249.008L99.4595 254.247Z" stroke="black" stroke-width="1.3547" stroke-miterlimit="10" stroke-linecap="round" stroke-linejoin="round"/>
<path d="M98.2969 243.149L99.2969 253.888" stroke="black" stroke-width="1.3547" stroke-miterlimit="10" stroke-linecap="round" stroke-linejoin="round"/>
<path d="M92.2969 219.999V224.136C92.2969 225.983 91.5248 227.756 90.2123 229.086C88.591 230.711 85.8116 232.41 81.7197 232.41C77.2417 232.41 74.6167 230.859 73.1498 229.308C71.9145 228.052 71.2969 226.279 71.2969 224.58V217.931C77.1645 217.561 81.7969 217.931 81.7969 217.931C85.6572 218.374 89.2086 219.039 92.2969 219.999Z" fill="black"/>
<path d="M126.297 258.906C126.297 258.906 130.535 262.696 134.145 263.503C137.755 264.309 141.522 261.648 141.286 259.793C141.051 257.938 131.163 255.841 131.163 255.841L126.297 258.906Z" fill="white"/>
<path d="M127.297 259.752C128.933 260.775 131.469 262.14 133.841 262.55C137.605 263.232 141.531 260.98 141.286 259.41C141.122 258.455 137.441 257.432 134.414 256.817" stroke="black" stroke-width="1.3547" stroke-miterlimit="10" stroke-linecap="round" stroke-linejoin="round"/>
<path d="M88.2969 211.909V222.828C88.2969 223.99 87.7584 225.074 86.8354 225.771C84.7584 227.165 80.8353 228.946 75.9122 225.693C74.9122 224.996 74.2969 223.912 74.2969 222.673V211.909H88.2969Z" fill="white"/>
<path d="M88.2969 211.909V222.828C88.2969 223.99 87.7584 225.074 86.8354 225.771C84.7584 227.165 80.8353 228.946 75.9122 225.693C74.9122 224.996 74.2969 223.912 74.2969 222.673V211.909H88.2969Z" stroke="black" stroke-width="1.0161" stroke-miterlimit="10" stroke-linecap="round" stroke-linejoin="round"/>
<path d="M93.2969 201.558C93.2969 210.241 87.7068 216.791 80.7969 216.791C73.8869 216.791 68.2969 210.241 68.2969 201.558C68.2969 192.876 73.8869 184.574 80.7969 184.574C87.7068 184.574 93.2969 192.876 93.2969 201.558Z" fill="white"/>
<path d="M93.2969 201.558C93.2969 210.241 87.7068 216.791 80.7969 216.791C73.8869 216.791 68.2969 210.241 68.2969 201.558C68.2969 192.876 73.8869 184.574 80.7969 184.574C87.7068 184.574 93.2969 192.876 93.2969 201.558Z" stroke="black" stroke-width="1.3547" stroke-miterlimit="10" stroke-linecap="round" stroke-linejoin="round"/>
<path d="M85.5116 196.294C85.2234 196.995 88.436 199.361 88.9685 198.675C89.5009 197.988 85.9639 195.316 85.5116 196.294Z" fill="black"/>
<path d="M85.2969 203.123H84.2969V200.927C84.2969 200.52 84.5191 200.194 84.7969 200.194C85.0747 200.194 85.2969 200.52 85.2969 200.927V203.123Z" fill="black"/>
<path d="M76.2969 203.123H74.2969V200.927C74.2969 200.52 74.7413 200.194 75.2969 200.194C75.8525 200.194 76.2969 200.52 76.2969 200.927V203.123Z" fill="black"/>
<path d="M84.2969 203.123C84.2969 203.123 84.7317 203.123 85.2969 203.123" stroke="black" stroke-width="1.0161" stroke-miterlimit="10" stroke-linecap="round" stroke-linejoin="round"/>
<path d="M76.281 196.814C76.4792 197.536 72.8338 199.319 72.3958 198.549C72.0635 197.751 75.9977 195.782 76.281 196.814Z" fill="black"/>
<path d="M76.2969 203.123C76.2969 203.123 75.4273 203.123 74.2969 203.123" stroke="black" stroke-width="1.0161" stroke-miterlimit="10" stroke-linecap="round" stroke-linejoin="round"/>
<path d="M79.3202 205.296C79.3202 205.296 79.0546 206.133 80.316 206.045C81.5111 205.957 81.5775 205.075 80.7144 205.075" stroke="black" stroke-width="1.0161" stroke-miterlimit="10" stroke-linecap="round" stroke-linejoin="round"/>
<path d="M95.8156 198.242C98.4547 199.621 97.735 206.514 92.2969 206.028" stroke="black" stroke-width="1.3547" stroke-miterlimit="10" stroke-linecap="round" stroke-linejoin="round"/>
<path d="M93.2969 202.751C93.2969 202.751 94.3272 201.17 95.2969 203.123" stroke="black" stroke-width="1.3547" stroke-miterlimit="10" stroke-linecap="round" stroke-linejoin="round"/>
<path d="M75.7709 208.005C75.7709 208.005 77.7212 210.426 81.2969 210.357C81.2969 210.357 78.6964 212.916 76.1772 211.464C74.4706 210.564 75.7709 208.005 75.7709 208.005Z" fill="black"/>
<path d="M75.7709 208.005C75.7709 208.005 77.7212 210.426 81.2969 210.357C81.2969 210.357 78.6964 212.916 76.1772 211.464C74.4706 210.564 75.7709 208.005 75.7709 208.005Z" stroke="black" stroke-width="1.3547" stroke-miterlimit="10" stroke-linecap="round" stroke-linejoin="round"/>
<path d="M91.1302 204.627C93.3964 202.415 93.3964 198.828 91.1302 196.615C88.864 194.403 85.1898 194.403 82.9236 196.615C80.6574 198.828 80.6574 202.415 82.9236 204.627C85.1898 206.839 88.864 206.839 91.1302 204.627Z" stroke="black" stroke-width="1.3547" stroke-miterlimit="10" stroke-linecap="round" stroke-linejoin="round"/>
<path d="M79.6047 201.535C80.1181 198.447 77.9698 195.537 74.8062 195.036C71.6426 194.535 68.6618 196.632 68.1484 199.72C67.635 202.809 69.7833 205.719 72.9469 206.22C76.1105 206.721 79.0913 204.624 79.6047 201.535Z" stroke="black" stroke-width="1.3547" stroke-miterlimit="10" stroke-linecap="round" stroke-linejoin="round"/>
<path d="M76.1392 221.367C75.5128 226.267 71.6763 238.857 66.4303 249.939C61.1844 260.945 57.1129 261.699 57.1129 261.699H48.2654C45.9164 261.699 43.7241 260.568 42.4713 258.684C42.4713 258.684 42.4714 258.608 42.3931 258.608C41.6884 257.553 41.2969 256.347 41.2969 255.065V253.859C44.6637 249.411 48.8134 244.134 52.65 239.309C58.444 231.997 63.3767 225.89 63.3767 225.89C63.3767 225.89 63.7682 220.085 63.3767 219.105C62.9852 218.125 59.4619 212.999 58.7572 211.491C58.0525 209.984 57.4261 202.068 58.2874 200.409C59.1487 198.751 60.558 199.505 60.558 199.505L63.1418 203.953C63.1418 203.953 65.8822 200.711 67.0567 199.203C68.2312 197.695 70.5801 197.846 71.0499 200.485C71.5979 203.123 69.4056 204.857 69.4839 205.686C69.5622 206.516 69.7188 208.4 72.6158 211.491C75.5128 214.582 76.7656 216.467 76.1392 221.367Z" fill="white"/>
<path d="M44.4417 249.788C47.1148 246.32 50.0238 242.702 52.6969 239.309C58.5148 231.997 63.4679 225.89 63.4679 225.89C63.4679 225.89 63.861 220.085 63.4679 219.105C63.0748 218.125 59.5369 212.999 58.8293 211.491C58.1217 209.984 57.4927 202.068 58.3575 200.409C59.2224 198.751 60.6376 199.505 60.6376 199.505L63.232 203.953C63.232 203.953 65.9837 200.711 67.1631 199.203C68.3424 197.695 70.701 197.846 71.1727 200.485C71.723 203.123 69.5216 204.857 69.6003 205.686C69.6789 206.516 69.8361 208.4 72.7451 211.491C75.6541 214.582 76.7548 216.467 76.1258 221.367C75.4968 226.267 71.6444 238.857 66.3768 249.939C61.1093 260.945 57.021 261.699 57.021 261.699H48.2941C45.9355 261.699 43.7341 260.568 42.4762 258.684C42.4762 258.684 42.4762 258.608 42.3976 258.608C41.69 257.553 41.2969 256.347 41.2969 255.065V253.859" stroke="black" stroke-width="1.3547" stroke-miterlimit="10" stroke-linecap="round" stroke-linejoin="round"/>
<path d="M94.0616 202.147L93.352 199.665C87.9118 196.485 86.8869 192.917 86.8869 192.917C86.8869 192.917 84.2063 197.958 80.7372 197.958C77.2681 197.958 76.9528 195.399 76.9528 195.399C70.0146 200.285 62.4457 199.587 60.7112 195.321C60.3958 194.546 60.2381 193.692 60.317 192.684C60.8689 186.169 67.2551 185.471 67.2551 185.471C67.2551 185.471 65.0475 182.989 64.811 180.507C64.7322 178.956 65.3629 177.327 67.9647 176.396C74.5875 173.836 81.1314 178.258 81.2891 178.413C81.2102 178.258 80.4218 175.388 82.9448 174.845C85.5466 174.302 88.1484 180.584 88.1484 180.584C88.1484 180.584 90.356 177.482 91.6174 177.87C92.8789 178.258 90.4348 181.05 90.4348 181.05C95.0865 180.352 97.2941 181.981 98.1613 190.512C99.1863 199.044 94.0616 202.147 94.0616 202.147Z" fill="#5A39D6"/>
<path d="M81.2969 178.509C70.1773 175.192 65.303 180.669 65.303 180.669C65.2269 179.126 65.8362 177.506 68.3495 176.58C74.8232 174.034 81.1446 178.432 81.2969 178.509Z" fill="white"/>
<path d="M60.7382 195.313C60.4023 194.545 60.2343 193.699 60.3183 192.7C60.9062 186.243 67.709 185.551 67.709 185.551L68.2969 185.858C60.2343 187.857 60.7382 195.313 60.7382 195.313Z" fill="white"/>
<path d="M93.9459 202.147C93.9459 202.147 99.0644 199.044 98.1981 190.512C97.3319 181.981 95.127 180.429 90.481 181.05C90.481 181.05 92.8434 178.18 91.6622 177.87C90.4022 177.482 88.1973 180.584 88.1973 180.584C88.1973 180.584 85.5987 174.302 83.0001 174.845C80.4014 175.388 81.3464 178.413 81.3464 178.413C81.3464 178.413 74.7317 173.836 68.0382 176.396C61.3447 178.956 67.2507 185.471 67.2507 185.471C67.2507 185.471 60.951 186.169 60.321 192.684C59.7698 199.199 68.7469 201.216 76.9366 195.399C76.9366 195.399 77.2515 197.958 80.7164 197.958C84.1812 197.958 86.8587 192.917 86.8587 192.917C86.8587 192.917 87.8036 196.407 93.3158 199.665L93.9459 202.147Z" stroke="black" stroke-width="1.3547" stroke-miterlimit="10" stroke-linecap="round" stroke-linejoin="round"/>
<path d="M62.5353 209.957C62.5353 209.957 60.6177 207.23 60.3964 205.313C60.1752 203.396 60.3227 197.719 60.839 196.613C61.2815 195.581 63.0516 194.697 64.3055 195.876C64.6742 196.245 64.8218 196.687 64.8218 197.129C64.748 199.046 64.6005 205.018 64.8218 205.976C65.1168 207.082 66.2969 207.967 66.2969 207.967L62.5353 209.957Z" fill="white"/>
<path d="M62.5353 209.957C62.5353 209.957 60.6177 207.23 60.3964 205.313C60.1752 203.396 60.3227 197.719 60.839 196.613C61.2815 195.581 63.0516 194.697 64.3055 195.876C64.6742 196.245 64.8218 196.687 64.8218 197.129C64.748 199.046 64.6005 205.018 64.8218 205.976C65.1168 207.082 66.2969 207.967 66.2969 207.967" stroke="black" stroke-width="1.3547" stroke-miterlimit="10" stroke-linecap="round" stroke-linejoin="round"/>
<path d="M57.2969 261.698H48.3464C45.9702 261.698 43.7523 260.539 42.485 258.607C42.485 258.607 42.485 258.53 42.4058 258.53C41.6929 257.448 41.2969 256.211 41.2969 254.897V243.149" stroke="black" stroke-width="1.3547" stroke-miterlimit="10" stroke-linecap="round" stroke-linejoin="round"/>
<path d="M259.739 470.952C256.151 480.301 244.052 476.987 229.379 475.45C222.575 474.736 215.304 474.919 209.55 473.414C191.385 468.662 189.269 459.155 193.781 450.242C198.442 441.056 211.072 438.117 229.884 444.096C247.701 449.762 263.648 460.742 259.739 470.952Z" fill="#5A39D6"/>
</g>
</g>
</g>
<defs>
<clipPath id="clip0_77_213">
<rect width="543" height="513" fill="white" transform="translate(0.5)"/>
</clipPath>
<clipPath id="clip1_77_213">
<rect width="543" height="513" fill="white" transform="translate(0.5)"/>
</clipPath>
<clipPath id="clip2_77_213">
<rect width="543" height="513" fill="white" transform="translate(0.5)"/>
</clipPath>
</defs>
</svg>
