<svg width="654" height="528" viewBox="0 0 654 528" fill="none" xmlns="http://www.w3.org/2000/svg">
<g clip-path="url(#clip0_77_432)">
<g clip-path="url(#clip1_77_432)">
<path d="M517.135 424.414C524.738 439.561 506.42 450.347 487.337 466.299C478.485 473.695 478.346 485.761 463.494 493.942C444 504.68 419.911 495.919 413.938 480.159C407.792 463.902 418.842 445.243 448.366 429.426C476.334 414.451 508.82 407.881 517.135 424.414Z" fill="#5A39D6"/>
<path d="M608.048 252.254C626.103 363.015 535.749 361.428 424.731 404.944C373.237 425.101 353.499 489.063 279.245 498.921C128.555 523.456 69.3815 434.127 59.8977 324.111C50.1924 210.672 110.202 60.808 271.175 46.2906C423.649 32.5804 588.263 131.318 608.048 252.254Z" fill="white" stroke="#5A39D6" stroke-width="4"/>
<path d="M569.26 212.637V350.825C569.26 354.211 566.465 356.944 563.003 356.944H426.626C423.163 356.944 420.369 354.211 420.369 350.825V212.637C420.369 209.25 423.163 206.518 426.626 206.518H562.942C566.465 206.518 569.26 209.25 569.26 212.637Z" fill="white" stroke="black" stroke-width="2"/>
<path d="M233.391 132.353V270.54C233.391 273.927 230.596 276.66 227.134 276.66H90.7569C87.2943 276.66 84.5 273.927 84.5 270.54V132.353C84.5 128.966 87.2943 126.233 90.7569 126.233H227.073C230.596 126.233 233.391 128.966 233.391 132.353Z" fill="white" stroke="black" stroke-width="2"/>
<path d="M377.953 295.622V475.732C377.953 480.146 374.314 483.708 369.804 483.708H192.197C187.688 483.708 184.049 480.146 184.049 475.732V295.622C184.049 291.208 187.688 287.646 192.197 287.646H369.725C374.314 287.646 377.953 291.208 377.953 295.622Z" fill="white" stroke="black" stroke-width="2"/>
<path d="M569.26 212.887V219.194H420.369V212.887C420.369 209.362 423.165 206.518 426.629 206.518H563C566.464 206.518 569.26 209.362 569.26 212.887Z" fill="#846BFA"/>
<path d="M233.391 132.602V138.91H84.5V132.602C84.5 129.078 87.2955 126.233 90.7595 126.233H227.131C230.595 126.233 233.391 129.078 233.391 132.602Z" fill="#846BFA"/>
<path d="M377.953 295.714V303.703H184.049V295.714C184.049 291.249 187.689 287.646 192.201 287.646H369.801C374.312 287.646 377.953 291.249 377.953 295.714Z" fill="#846BFA"/>
<path d="M569.26 212.887V219.194H420.369V212.887C420.369 209.362 423.165 206.518 426.629 206.518H563C566.464 206.518 569.26 209.362 569.26 212.887Z" stroke="black" stroke-width="1.3547" stroke-miterlimit="10" stroke-linecap="round" stroke-linejoin="round"/>
<path d="M233.391 132.602V138.91H84.5V132.602C84.5 129.078 87.2955 126.233 90.7595 126.233H227.131C230.595 126.233 233.391 129.078 233.391 132.602Z" stroke="black" stroke-width="1.3547" stroke-miterlimit="10" stroke-linecap="round" stroke-linejoin="round"/>
<path d="M377.953 295.714V303.703H184.049V295.714C184.049 291.249 187.689 287.646 192.201 287.646H369.801C374.312 287.646 377.953 291.249 377.953 295.714Z" stroke="black" stroke-width="1.3547" stroke-miterlimit="10" stroke-linecap="round" stroke-linejoin="round"/>
<path d="M550.215 212.856C550.215 214.03 549.253 214.969 548.051 214.969C546.849 214.969 545.887 214.03 545.887 212.856C545.887 211.682 546.849 210.743 548.051 210.743C549.253 210.802 550.215 211.741 550.215 212.856Z" fill="white"/>
<path d="M214.346 132.572C214.346 133.745 213.384 134.684 212.182 134.684C210.979 134.684 210.018 133.745 210.018 132.572C210.018 131.398 210.979 130.459 212.182 130.459C213.384 130.518 214.346 131.457 214.346 132.572Z" fill="white"/>
<path d="M353.716 295.675C353.716 297.318 352.369 298.632 350.686 298.632C349.003 298.632 347.656 297.318 347.656 295.675C347.656 294.031 349.003 292.717 350.686 292.717C352.369 292.799 353.716 294.114 353.716 295.675Z" fill="white"/>
<path d="M564.066 212.856C564.066 214.03 563.105 214.969 561.902 214.969C560.7 214.969 559.738 214.03 559.738 212.856C559.738 211.682 560.7 210.743 561.902 210.743C563.105 210.802 564.066 211.741 564.066 212.856Z" fill="white"/>
<path d="M228.197 132.572C228.197 133.745 227.236 134.684 226.033 134.684C224.831 134.684 223.869 133.745 223.869 132.572C223.869 131.398 224.831 130.459 226.033 130.459C227.236 130.518 228.197 131.457 228.197 132.572Z" fill="white"/>
<path d="M371.028 295.675C371.028 297.318 369.682 298.632 367.998 298.632C366.315 298.632 364.969 297.318 364.969 295.675C364.969 294.031 366.315 292.717 367.998 292.717C369.682 292.799 371.028 294.114 371.028 295.675Z" fill="white"/>
<path d="M537.231 212.856C537.231 214.03 536.269 214.969 535.066 214.969C533.864 214.969 532.902 214.03 532.902 212.856C532.902 211.682 533.864 210.743 535.066 210.743C536.269 210.802 537.231 211.741 537.231 212.856Z" fill="white"/>
<path d="M201.361 132.572C201.361 133.745 200.4 134.684 199.197 134.684C197.995 134.684 197.033 133.745 197.033 132.572C197.033 131.398 197.995 130.459 199.197 130.459C200.4 130.518 201.361 131.457 201.361 132.572Z" fill="white"/>
<path d="M335.536 295.675C335.536 297.318 334.381 298.632 332.939 298.632C331.496 298.632 330.342 297.318 330.342 295.675C330.342 294.031 331.496 292.717 332.939 292.717C334.381 292.799 335.536 294.114 335.536 295.675Z" fill="white"/>
<path d="M393.91 249.653H315.768C313.006 249.653 310.768 251.892 310.768 254.653V259.623C310.768 262.385 313.006 264.623 315.768 264.623H393.91C396.671 264.623 398.91 262.385 398.91 259.623V254.653C398.91 251.892 396.671 249.653 393.91 249.653Z" fill="#5A39D6"/>
<path d="M390.721 215.941H319.053C316.291 215.941 314.053 218.18 314.053 220.941V244.652C314.053 247.413 316.291 249.652 319.053 249.652H390.721C393.482 249.652 395.721 247.413 395.721 244.652V220.941C395.721 218.18 393.482 215.941 390.721 215.941Z" fill="#5A39D6"/>
<path d="M383.122 216.485C383.122 213.38 381.305 202.291 379.147 202.291H330.532C328.374 202.291 326.557 213.38 326.557 216.485H383.122Z" fill="#FFB000"/>
<path d="M360.861 174.133C382.329 161.935 396.868 139.203 396.868 113.033C396.868 105.714 395.732 94.958 393.574 88.3047H316.108C313.95 94.958 312.814 105.714 312.814 113.033C312.814 139.203 327.353 162.046 348.821 174.133V202.077L360.861 174.133Z" fill="#FFB000"/>
<path d="M329.408 133.656C327.477 127.335 326.568 120.682 326.568 114.029C326.568 109.593 327.023 105.158 327.818 100.833L332.248 101.72C331.453 105.823 330.998 109.926 330.998 114.14C330.998 120.349 331.907 126.559 333.611 132.547L329.408 133.656Z" fill="white"/>
<path d="M373.013 232.688H336.666V237.124H373.013V232.688Z" fill="white"/>
<path d="M361.881 169.924H347.91V209.511H361.881V169.924Z" fill="#FFB000"/>
<path d="M367.566 167.039L366.43 161.605L390.623 156.837C403.459 154.286 412.773 143.198 412.773 130.445V100.505H380.628V94.9609H418.452V130.445C418.452 145.859 407.207 159.166 391.759 162.27L367.566 167.039Z" fill="#FFB000"/>
<path d="M342.113 167.039L317.919 162.27C302.472 159.276 291.227 145.859 291.227 130.445V94.9609H329.051V100.505H296.906V130.445C296.906 143.198 306.22 154.286 319.055 156.837L343.249 161.605L342.113 167.039Z" fill="#FFB000"/>
<path d="M446.795 121.249L432.483 121.027C431.915 121.027 431.461 120.584 431.461 120.029C431.461 119.475 431.915 119.031 432.483 119.031L446.795 119.253C447.363 119.253 447.817 119.697 447.817 120.251C447.817 120.806 447.363 121.249 446.795 121.249Z" fill="#5A39D6"/>
<path d="M439.409 137.772C439.295 137.772 439.181 137.772 439.068 137.772L431.571 135.332C431.003 135.111 430.776 134.556 430.89 134.002C431.117 133.447 431.685 133.225 432.253 133.336L439.749 135.776C440.317 135.998 440.544 136.552 440.431 137.107C440.204 137.439 439.863 137.772 439.409 137.772Z" fill="#5A39D6"/>
<path d="M263.522 121.249C262.954 121.249 262.5 120.806 262.5 120.251C262.5 119.697 262.954 119.253 263.522 119.253L277.834 119.031C278.402 119.031 278.856 119.475 278.856 120.029C278.856 120.584 278.402 121.027 277.834 121.027L263.522 121.249Z" fill="#5A39D6"/>
<path d="M270.91 137.77C270.455 137.77 270.115 137.548 269.888 137.104C269.66 136.55 270.001 135.995 270.569 135.774L278.066 133.334C278.634 133.112 279.201 133.445 279.429 133.999C279.656 134.554 279.315 135.108 278.747 135.33L271.251 137.77C271.137 137.77 271.023 137.77 270.91 137.77Z" fill="#5A39D6"/>
<path d="M431.921 106.728C431.467 106.728 431.126 106.506 430.899 106.062C430.672 105.508 431.013 104.953 431.581 104.732L439.077 102.292C439.645 102.07 440.213 102.403 440.44 102.957C440.668 103.512 440.327 104.066 439.759 104.288L432.262 106.728C432.149 106.728 432.035 106.728 431.921 106.728Z" fill="#5A39D6"/>
<path d="M278.395 106.718C278.281 106.718 278.168 106.718 278.054 106.718L270.558 104.279C269.99 104.057 269.762 103.502 269.876 102.948C270.103 102.393 270.671 102.172 271.239 102.283L278.736 104.722C279.304 104.944 279.531 105.498 279.417 106.053C279.19 106.386 278.849 106.718 278.395 106.718Z" fill="#5A39D6"/>
<path d="M429.407 264.753L450.565 312.429C451.39 314.253 453.313 315.325 455.292 315.111L484.749 311.571C487.772 311.196 489.585 308.085 488.376 305.35L469.69 263.841C469.031 262.339 467.547 261.32 465.898 261.213L433.968 258.532C430.561 258.263 428.033 261.642 429.407 264.753Z" fill="black"/>
<path d="M454.735 312.495C453.966 312.335 453.307 311.852 452.978 311.155L431.834 263.488C431.339 262.416 431.834 261.504 432.108 261.183C432.328 260.861 433.042 260.11 434.25 260.217L466.158 262.898C466.213 262.898 466.323 262.898 466.378 262.952C467.147 263.113 467.806 263.595 468.135 264.292L486.808 305.793C487.137 306.49 487.082 307.241 486.698 307.884C486.313 308.528 485.654 308.957 484.94 309.064L455.504 312.603C455.229 312.549 455.009 312.549 454.735 312.495Z" fill="#FFB000"/>
<path d="M498.121 303.453L489.96 296.378L483.644 286.891C482.638 285.39 480.906 284.425 479.061 284.371L473.136 284.103L472.018 282.442C472.018 282.388 471.962 282.388 471.962 282.388L469.28 279.708L467.435 277.725C466.988 277.243 466.317 277.028 465.647 277.135C464.976 277.243 464.473 277.671 464.249 278.315C463.802 279.547 463.97 280.887 464.752 281.959L471.124 290.803L466.988 288.123C466.541 287.855 465.982 287.695 465.479 287.802C464.696 287.909 464.082 288.391 463.802 289.088C463.523 289.785 463.634 290.535 464.137 291.125L469.447 296.699C471.403 298.736 473.919 300.29 476.658 301.148L477.72 301.47L482.079 302.542L487.836 311.546L490.016 314.87C490.128 315.03 490.296 315.138 490.463 315.138C490.631 315.138 490.855 315.03 490.911 314.87L498.177 304.257C498.345 303.882 498.289 303.614 498.121 303.453Z" fill="white"/>
<path d="M560.603 356.943L558.506 344.909C557.402 338.782 554.422 333.097 549.952 328.736L542.502 321.449L518.994 345.572L516.455 356.943H560.603Z" fill="#FFB000" stroke="black" stroke-width="2"/>
<path d="M297.024 399.488C297.024 399.488 300.944 399.237 300.494 403.189C300.044 407.141 292.72 434.741 292.72 434.741L272.93 430.663L279.484 416.863C279.484 416.863 281.989 404.444 292.205 394.846C294.261 393.027 297.024 399.488 297.024 399.488Z" fill="white"/>
<path d="M300.689 392.672L294.721 391.42L287.553 423.985L293.52 425.237L300.689 392.672Z" fill="#5A39D6"/>
<path d="M298.445 402.378C298.445 402.378 291.763 406.455 292.149 407.961C292.47 409.466 293.434 410.407 293.434 410.407C293.434 410.407 291.377 412.665 291.763 413.481C292.213 414.234 293.241 415.237 293.241 415.237C293.241 415.237 291.763 416.366 292.084 417.37C292.406 418.374 292.919 419.126 292.919 419.126C292.919 419.126 292.919 420.506 292.662 421.573C292.405 422.702 292.149 423.454 294.333 423.329C296.518 423.204 300.566 422.075 302.686 419.44C304.742 416.805 305.963 413.544 305.963 413.544C305.963 413.544 307.248 412.54 307.376 411.035C307.44 409.529 307.119 408.902 307.119 408.902C307.119 408.902 307.826 405.765 307.89 405.013C307.955 404.26 305.899 402.378 305.899 402.378C305.899 402.378 306.669 400.434 304.421 399.869C302.172 399.305 299.216 399.054 299.216 399.054L298.445 402.378Z" fill="white"/>
<path d="M294.462 411.338C293.37 411.338 292.535 410.899 292.149 410.397C291.378 409.456 291.571 408.076 292.599 406.884C293.498 405.818 295.618 404.25 297.482 402.933C298.51 402.243 299.409 401.553 299.795 401.176C300.052 400.925 300.437 400.925 300.694 401.176C300.951 401.427 300.951 401.803 300.694 402.054C300.245 402.493 299.345 403.121 298.253 403.936C296.518 405.191 294.398 406.696 293.627 407.637C293.048 408.39 292.856 409.143 293.241 409.644C293.627 410.146 294.719 410.397 296.582 409.644C302.237 407.261 305.578 404.501 305.192 402.431C304.807 400.235 301.144 399.796 299.409 399.608H299.281C298.959 399.545 298.703 399.232 298.703 398.918C298.767 398.604 299.088 398.354 299.409 398.354H299.538C301.594 398.604 305.899 399.106 306.477 402.243C307.12 406.132 300.116 409.519 297.096 410.836C296.068 411.15 295.169 411.338 294.462 411.338Z" fill="#080717"/>
<path d="M294.718 415.992C294.075 415.992 293.561 415.929 293.047 415.741C292.276 415.49 291.762 415.051 291.505 414.486C290.863 412.981 292.405 411.35 292.597 411.162C292.854 410.911 293.24 410.911 293.497 411.162C293.754 411.413 293.754 411.789 293.497 412.04C293.176 412.353 292.405 413.357 292.662 413.984C292.79 414.235 293.047 414.423 293.433 414.549C294.782 414.988 297.159 414.549 299.151 413.483C302.364 411.726 306.412 408.339 306.797 406.583L306.926 406.144C307.376 404.324 307.568 403.697 305.512 402.756C305.191 402.631 305.062 402.254 305.191 401.941C305.319 401.627 305.705 401.502 306.026 401.627C308.982 403.007 308.596 404.575 308.147 406.457L308.018 406.896C307.44 409.217 302.749 412.918 299.729 414.549C298.123 415.49 296.26 415.992 294.718 415.992Z" fill="#080717"/>
<path d="M295.106 420.063C293.949 420.063 293.179 419.749 292.729 419.436C292.086 418.997 291.701 418.432 291.636 417.805C291.508 415.797 293.628 414.919 293.693 414.919C294.014 414.794 294.399 414.919 294.528 415.296C294.656 415.609 294.528 415.986 294.142 416.111C294.078 416.111 292.857 416.676 292.922 417.805C292.922 417.93 293.05 418.181 293.436 418.432C293.885 418.746 295.363 419.31 298.383 418.118C302.495 416.487 305.708 413.477 306.35 412.034C306.864 410.905 306.543 409.211 306.415 408.647C306.35 408.333 306.543 407.957 306.864 407.894C307.186 407.831 307.571 408.019 307.635 408.333C307.635 408.458 308.278 410.779 307.507 412.536C306.672 414.48 303.138 417.617 298.833 419.31C297.291 419.875 296.07 420.063 295.106 420.063Z" fill="#080717"/>
<path d="M294.402 424.137C293.824 424.137 293.31 424.012 292.86 423.824C292.282 423.51 291.961 423.008 291.896 422.318C291.704 420.813 293.374 419.119 293.567 418.931C293.824 418.68 294.209 418.68 294.466 418.931C294.723 419.182 294.723 419.558 294.466 419.809C293.952 420.374 293.117 421.503 293.181 422.193C293.181 422.444 293.31 422.632 293.503 422.757C294.017 423.071 295.366 423.071 297.486 422.13C300.121 421.001 303.783 417.677 304.683 414.728C304.811 414.415 305.132 414.227 305.454 414.289C305.775 414.415 305.968 414.728 305.904 415.042C304.875 418.367 300.956 421.942 298 423.197C296.651 423.824 295.366 424.137 294.402 424.137Z" fill="#080717"/>
<path d="M272.936 430.405C272.808 430.405 272.744 430.405 272.615 430.342C272.294 430.216 272.165 429.777 272.358 429.526C274.864 424.696 278.719 417.232 278.912 416.667C280.968 406.192 291.377 394.901 291.762 394.399C291.827 394.337 291.955 394.211 292.084 394.211C292.534 394.086 293.433 394.086 294.076 394.65C294.718 395.277 294.975 396.344 294.718 397.786C294.14 401.299 290.285 411.273 290.092 411.712C289.963 412.026 289.578 412.214 289.257 412.088C288.935 411.963 288.743 411.586 288.871 411.273C288.935 411.147 292.855 400.986 293.433 397.598C293.626 396.595 293.497 395.905 293.176 395.591C292.983 395.403 292.726 395.403 292.533 395.403C291.248 396.846 281.996 407.446 280.068 416.918C280.004 417.232 277.755 421.685 273.451 430.028C273.386 430.279 273.193 430.405 272.936 430.405Z" fill="#080717"/>
<path d="M293.697 434.3C293.633 434.3 293.633 434.3 293.569 434.3C293.247 434.237 292.991 433.924 293.055 433.547L295.304 423.386C295.368 423.072 295.753 422.821 296.075 422.884C296.396 422.946 296.653 423.26 296.589 423.636L294.34 433.798C294.211 434.112 293.954 434.3 293.697 434.3Z" fill="#080717"/>
<path d="M301.779 347.739C288.929 347.739 278.52 357.901 278.52 370.446C278.52 382.992 288.929 393.154 301.779 393.154C314.629 393.154 325.038 382.992 325.038 370.446C325.102 357.901 314.694 347.739 301.779 347.739ZM301.779 388.575C291.499 388.575 283.21 380.483 283.21 370.446C283.21 360.41 291.563 352.318 301.779 352.318C311.995 352.318 320.348 360.41 320.348 370.446C320.412 380.483 312.059 388.575 301.779 388.575Z" fill="#5A39D6"/>
<path d="M301.773 393.774C288.601 393.774 277.871 383.299 277.871 370.44C277.871 357.581 288.601 347.105 301.773 347.105C314.945 347.105 325.675 357.581 325.675 370.44C325.739 383.299 315.009 393.774 301.773 393.774ZM301.773 348.36C289.308 348.36 279.156 358.271 279.156 370.44C279.156 382.609 289.308 392.52 301.773 392.52C314.238 392.52 324.39 382.609 324.39 370.44C324.39 358.271 314.302 348.36 301.773 348.36ZM301.773 389.195C291.171 389.195 282.561 380.79 282.561 370.44C282.561 360.09 291.171 351.685 301.773 351.685C312.375 351.685 320.984 360.09 320.984 370.44C321.049 380.79 312.375 389.195 301.773 389.195ZM301.773 352.939C291.878 352.939 283.846 360.78 283.846 370.44C283.846 380.1 291.878 387.941 301.773 387.941C311.668 387.941 319.699 380.1 319.699 370.44C319.764 360.78 311.668 352.939 301.773 352.939Z" fill="#5A39D6"/>
<path d="M311.933 372.957C311.805 372.957 311.612 372.894 311.548 372.832L302.103 365.116C301.846 364.865 301.782 364.489 302.039 364.238C302.296 363.987 302.681 363.924 302.938 364.175L312.383 371.891C312.64 372.142 312.704 372.518 312.447 372.769C312.319 372.894 312.126 372.957 311.933 372.957Z" fill="black"/>
<path d="M319.772 373.08C319.579 373.08 319.45 373.017 319.322 372.892C319.065 372.641 319.065 372.264 319.322 372.013L343.031 348.804C343.288 348.553 343.673 348.553 343.93 348.804C344.187 349.055 344.187 349.432 343.93 349.683L320.221 372.892C320.093 373.017 319.9 373.08 319.772 373.08Z" fill="black"/>
<path d="M284.238 376.645C284.045 376.645 283.917 376.583 283.788 376.457C283.531 376.206 283.531 375.83 283.788 375.579L295.739 364.163C295.996 363.912 296.382 363.912 296.639 364.163C296.896 364.414 296.896 364.79 296.639 365.041L284.688 376.457C284.559 376.583 284.431 376.645 284.238 376.645Z" fill="black"/>
<path d="M341.877 346.174C341.877 347.554 342.455 348.746 343.483 349.624C344.319 350.377 345.411 350.816 346.632 350.816C349.266 350.816 351.386 348.746 351.386 346.174C351.386 343.602 349.266 341.532 346.632 341.532C343.997 341.532 341.877 343.602 341.877 346.174Z" fill="white"/>
<path d="M346.626 351.374C345.276 351.374 344.055 350.872 343.027 350.057C341.871 349.053 341.229 347.61 341.229 346.168C341.229 343.282 343.67 340.898 346.626 340.898C349.581 340.898 352.023 343.282 352.023 346.168C352.023 349.053 349.581 351.374 346.626 351.374ZM346.626 342.153C344.377 342.153 342.514 343.972 342.514 346.168C342.514 347.297 343.028 348.363 343.863 349.116C344.634 349.743 345.598 350.119 346.561 350.119C348.81 350.119 350.673 348.3 350.673 346.105C350.673 343.909 348.874 342.153 346.626 342.153Z" fill="black"/>
<path d="M311.803 374.33C311.803 375.71 312.381 376.902 313.409 377.78C314.244 378.533 315.337 378.972 316.558 378.972C319.192 378.972 321.312 376.902 321.312 374.33C321.312 371.758 319.192 369.688 316.558 369.688C313.923 369.688 311.803 371.758 311.803 374.33Z" fill="#846BFA"/>
<path d="M294.6 361.537C294.6 362.917 295.178 364.109 296.206 364.987C297.041 365.74 298.133 366.179 299.354 366.179C301.989 366.179 304.109 364.109 304.109 361.537C304.109 358.965 301.989 356.896 299.354 356.896C296.72 356.896 294.6 359.028 294.6 361.537Z" fill="white"/>
<path d="M299.348 366.809C297.999 366.809 296.778 366.308 295.75 365.492C294.594 364.488 293.951 363.046 293.951 361.603C293.951 358.718 296.393 356.334 299.348 356.334C302.304 356.334 304.745 358.718 304.745 361.603C304.681 364.426 302.304 366.809 299.348 366.809ZM299.348 357.589C297.099 357.589 295.236 359.408 295.236 361.603C295.236 362.732 295.75 363.798 296.586 364.551C297.357 365.178 298.32 365.555 299.284 365.555C301.533 365.555 303.396 363.736 303.396 361.54C303.396 359.345 301.597 357.589 299.348 357.589Z" fill="black"/>
<path d="M335.777 419.116C335.777 419.116 321.384 396.848 320.678 395.28C319.971 393.712 311.875 376.713 311.875 376.713C311.875 376.713 313.546 375.584 315.794 376.274C318.043 376.964 322.798 380.978 324.019 382.986C325.239 384.993 326.589 381.982 326.846 380.1C327.103 378.218 327.103 370.315 327.103 370.315C327.103 370.315 322.734 372.196 321.127 371.757C319.521 371.318 318.3 369.436 318.3 369.436C318.3 369.436 323.698 364.293 327.103 363.603C330.508 362.913 332.372 363.917 333.207 365.171C333.978 366.363 335.006 368.119 335.006 368.119C335.006 368.119 339.182 368.433 340.724 370.315C342.331 372.196 345.35 375.145 345.543 377.779C345.8 380.414 345.865 391.955 346.314 395.029C346.764 398.103 355.695 416.294 356.338 418.301C357.045 420.308 358.458 423.695 358.458 423.695L335.777 419.116Z" fill="white"/>
<path d="M361.536 426.468C361.343 426.468 361.086 426.342 361.022 426.154C360.379 425.15 345.023 401.126 345.537 390.964C346.051 379.987 345.601 371.393 335.064 368.383C334.742 368.257 334.55 367.943 334.614 367.63C334.742 367.316 335.064 367.128 335.385 367.191C346.822 370.39 347.336 379.862 346.822 391.027C346.372 400.812 361.986 425.276 362.114 425.527C362.307 425.84 362.242 426.217 361.921 426.405C361.793 426.405 361.664 426.468 361.536 426.468Z" fill="#080717"/>
<path d="M342.275 382.928C341.954 382.928 341.697 382.677 341.633 382.363C341.633 382.238 340.219 371.26 334.629 368.5C334.308 368.375 334.179 367.999 334.372 367.685C334.565 367.371 334.886 367.246 335.207 367.434C341.44 370.508 342.853 381.799 342.918 382.238C342.982 382.551 342.725 382.865 342.339 382.928H342.275Z" fill="#080717"/>
<path d="M338.474 383.67C338.153 383.67 337.896 383.482 337.831 383.168C336.996 378.589 335.647 373.257 335.004 372.755C334.683 372.567 334.619 372.191 334.812 371.877C335.004 371.563 335.39 371.501 335.711 371.689C337.06 372.567 338.538 379.843 339.052 382.917C339.117 383.231 338.859 383.607 338.538 383.67H338.474Z" fill="#080717"/>
<path d="M325.171 384.682C325.042 384.682 324.913 384.619 324.785 384.557C324.464 384.369 324.4 383.992 324.592 383.679C327.741 379.099 327.098 373.14 326.713 371.196L323.5 372.137C321.958 372.576 320.737 372.513 319.709 371.886C318.424 371.133 318.167 369.879 318.103 369.816C318.039 369.69 318.103 369.502 318.167 369.377C318.231 369.314 319.516 367.119 322.793 365.049C325.813 363.104 328.512 362.414 330.696 362.979C332.303 363.418 333.588 364.484 334.487 366.24C336.736 370.506 334.744 383.428 334.615 383.992C334.551 384.306 334.23 384.557 333.909 384.494C333.588 384.431 333.33 384.118 333.395 383.804C333.395 383.679 335.387 370.694 333.395 366.805C332.688 365.425 331.66 364.547 330.375 364.17C328.576 363.731 326.199 364.359 323.5 366.052C321.058 367.62 319.838 369.189 319.452 369.753C319.581 370.004 319.838 370.506 320.352 370.819C321.058 371.196 321.958 371.259 323.114 370.882L327.034 369.753C327.227 369.69 327.355 369.753 327.548 369.816C327.676 369.879 327.805 370.067 327.869 370.192C327.933 370.506 329.732 378.347 325.684 384.306C325.556 384.557 325.363 384.682 325.171 384.682Z" fill="#080717"/>
<path d="M335.455 419.375C335.262 419.375 335.005 419.249 334.876 419.061L319.263 394.158C319.263 394.158 319.263 394.096 319.199 394.096L311.553 377.159C311.488 377.034 311.488 376.908 311.488 376.783C311.553 376.218 312.26 375.089 316.564 375.654C320.934 376.218 324.853 383.307 324.981 383.62C325.174 383.871 326.716 386.443 326.973 387.258C327.102 387.572 326.909 387.948 326.588 388.074C326.266 388.199 325.881 388.011 325.752 387.697C325.56 387.196 324.467 385.377 323.825 384.31C323.761 384.185 320.034 377.473 316.372 376.971C314.058 376.657 313.159 376.908 312.838 377.097L320.291 393.594L335.904 418.496C336.097 418.81 335.969 419.186 335.712 419.375C335.712 419.375 335.583 419.375 335.455 419.375Z" fill="#080717"/>
<path d="M200.5 483.713L218.318 428.714L270.427 429.278C277.045 429.341 283.663 430.407 289.959 432.352L333.78 447.845L332.43 419.116L364.813 412.844L369.247 453.052C371.432 472.999 351.963 488.555 332.366 482.471L281.093 466.538L271.969 483.349C271.969 483.474 200.5 483.713 200.5 483.713Z" fill="#FFB000" stroke="black" stroke-width="2" stroke-linejoin="round"/>
<path d="M282.631 467.011C282.566 467.011 282.438 467.011 282.374 466.949C277.49 465.004 271.965 462.997 271.258 462.997C270.936 462.997 270.615 462.746 270.615 462.369C270.615 462.056 270.872 461.742 271.193 461.742C272.543 461.742 280.446 464.816 282.823 465.757C283.144 465.882 283.337 466.259 283.209 466.572C283.145 466.823 282.888 467.011 282.631 467.011Z" fill="black"/>
<path d="M345.587 452.997C345.523 452.997 345.395 452.997 345.33 452.934C340.447 450.989 334.922 448.982 334.215 448.982C333.894 448.982 333.572 448.731 333.572 448.355C333.572 448.041 333.829 447.728 334.15 447.728C335.5 447.728 343.403 450.801 345.78 451.742C346.101 451.868 346.294 452.244 346.165 452.558C346.037 452.808 345.844 452.997 345.587 452.997Z" fill="black"/>
<path d="M267.783 434.438L263.221 405.709L235.914 409.849L238.998 436.006L267.783 434.438Z" fill="white"/>
<path d="M239.002 436.637C238.681 436.637 238.424 436.386 238.36 436.072L235.276 409.915C235.211 409.601 235.468 409.288 235.789 409.225L263.097 405.085C263.418 405.022 263.804 405.273 263.804 405.587L268.365 434.316C268.365 434.504 268.365 434.692 268.237 434.817C268.108 434.943 267.98 435.068 267.787 435.068L239.002 436.637ZM236.625 410.417L239.58 435.382L267.08 433.877L262.711 406.465L236.625 410.417Z" fill="#080717"/>
<path d="M239.971 372.523C239.971 372.523 254.942 380.803 258.09 378.858C261.238 376.976 268.563 370.578 265.286 364.87C262.009 359.162 260.403 361.671 257.769 362.8C255.134 363.992 252.95 357.531 251.151 358.033C249.351 358.535 247.809 360.04 245.047 363.427C242.284 366.815 239.971 372.523 239.971 372.523Z" fill="#5A39D6"/>
<path d="M244.526 419.138C237.908 418.26 231.547 414.998 226.985 409.416C217.733 398.187 219.468 382.255 230.391 373.222C248.317 358.419 264.252 372.218 266.436 375.919C266.95 376.798 267.4 377.613 267.914 378.428C268.878 379.683 269.713 381 270.42 382.38C272.347 385.077 274.275 386.959 276.524 387.273C279.994 387.775 282.692 412.615 263.609 414.12L244.526 419.138Z" fill="white"/>
<path d="M244.529 419.766H244.464C237.397 418.888 231.036 415.312 226.474 409.855C217.029 398.439 218.571 382.192 229.943 372.783C236.69 367.201 243.886 365.005 251.275 366.322C259.307 367.702 265.475 373.097 266.953 375.669C267.467 376.547 267.916 377.362 268.43 378.115C269.394 379.37 270.23 380.687 271.001 382.067C273.057 385.015 274.792 386.395 276.655 386.709C278.711 387.022 279.803 391.915 279.675 396.494C279.482 400.948 278.261 405.025 276.077 408.099C273.25 412.113 269.137 414.371 263.676 414.748C263.29 414.748 263.033 414.497 262.969 414.183C262.969 413.87 263.226 413.556 263.548 413.493C276.719 412.49 278.197 400.132 278.326 396.431C278.518 391.1 277.041 388.026 276.398 387.901C274.213 387.587 272.157 385.956 269.844 382.694C269.844 382.694 269.844 382.631 269.78 382.631C269.073 381.314 268.238 379.997 267.338 378.805C267.338 378.805 267.338 378.742 267.274 378.742C266.76 377.927 266.31 377.112 265.796 376.233C264.768 374.477 259.114 368.894 251.018 367.514C244.015 366.322 237.204 368.392 230.779 373.724C219.984 382.631 218.507 398.188 227.502 409.04C231.807 414.309 237.911 417.633 244.657 418.511C244.978 418.574 245.236 418.888 245.236 419.201C245.107 419.578 244.85 419.766 244.529 419.766Z" fill="#080717"/>
<path d="M224.999 369.763C232.452 363.929 242.09 362.486 250.764 365.121C248.386 366.124 246.138 367.442 244.081 369.073C229.946 380.175 228.918 401.753 241.704 417.31C242.411 418.188 243.182 419.003 243.953 419.756C235.536 419.693 227.183 415.992 221.401 409.03C211.249 396.861 212.919 379.297 224.999 369.763Z" fill="#080717"/>
<path d="M252.241 363.053C252.241 363.053 251.406 370.706 245.816 375.347C242.86 377.794 247.679 376.414 249.285 379.989C250.892 383.565 249.607 415.116 249.607 415.116C249.478 417.688 247.743 419.884 245.173 420.511L237.527 422.518L233.8 415.994L224.355 386.826C224.355 386.889 236.114 361.736 252.241 363.053Z" fill="#5A39D6"/>
<path d="M274.349 400.312C271.843 400.312 270.237 398.43 270.173 398.304C269.98 398.053 269.98 397.614 270.301 397.426C270.558 397.238 271.008 397.238 271.201 397.489C271.201 397.489 272.614 399.182 274.606 398.994C274.991 398.994 275.248 399.245 275.313 399.559C275.313 399.935 275.056 400.186 274.734 400.249C274.542 400.312 274.413 400.312 274.349 400.312Z" fill="#080717"/>
<path d="M259.756 382.739C259.499 382.739 259.242 382.551 259.114 382.3C258.728 381.108 259.242 379.414 260.335 378.034C261.491 376.592 263.161 375.902 264.896 376.027C265.218 376.09 265.539 376.341 265.475 376.717C265.475 377.094 265.153 377.344 264.768 377.282C262.969 377.094 261.812 378.16 261.298 378.787C260.399 379.854 260.078 381.234 260.335 381.861C260.463 382.174 260.27 382.551 259.949 382.676C259.885 382.739 259.82 382.739 259.756 382.739Z" fill="#080717"/>
<path d="M266.057 385.197C266.636 385.761 267.406 385.887 267.792 385.448C268.177 385.071 268.049 384.256 267.471 383.754C266.892 383.19 266.122 383.064 265.736 383.503C265.35 383.88 265.479 384.632 266.057 385.197Z" fill="#080717"/>
<path d="M264.517 414.055L265.995 423.276C261.755 422.335 257.771 420.014 254.815 416.438C253.659 414.996 252.695 413.428 251.988 411.859C255.843 413.867 260.213 414.619 264.517 414.055Z" fill="#080717"/>
<path d="M181.632 417.861C181.439 417.861 181.31 417.861 181.118 417.798C180.796 417.736 180.539 417.422 180.604 417.108C180.668 416.795 180.989 416.544 181.31 416.607C182.66 416.795 184.716 415.666 186.836 413.533C190.691 409.581 194.032 403.057 193.069 398.102C192.555 395.656 192.683 394.213 193.39 393.209C194.354 391.955 196.153 391.704 198.659 391.453C200.972 391.202 203.799 390.888 207.333 389.697C211.895 388.128 211.445 385.306 210.609 381.04C209.838 376.9 208.939 371.694 213.501 366.676C218.641 361.093 229.179 361.407 237.21 362.661C242.543 363.477 243.507 362.912 244.663 362.222C245.306 361.783 246.077 361.344 247.554 361.03C247.876 360.968 248.261 361.156 248.326 361.532C248.39 361.846 248.197 362.222 247.812 362.285C246.591 362.536 245.948 362.912 245.306 363.289C243.956 364.104 242.8 364.857 236.953 363.916C229.307 362.724 219.155 362.41 214.464 367.554C210.288 372.133 211.123 376.775 211.894 380.852C212.665 385.055 213.372 389.007 207.782 390.951C204.184 392.206 201.1 392.519 198.851 392.77C196.667 393.021 195.061 393.209 194.482 394.025C193.968 394.715 193.968 395.907 194.354 397.914C195.446 403.246 191.912 410.271 187.8 414.411C185.551 416.669 183.366 417.861 181.632 417.861Z" fill="#080717"/>
<path d="M184.717 419.119C189.472 419.621 198.339 407.326 196.411 399.423C194.484 391.519 199.945 395.095 209.968 391.206C219.992 387.316 207.077 377.719 215.494 367.808C219.992 362.477 229.951 362.1 238.432 363.104C246.914 364.108 244.922 362.038 248.97 361.034C251.668 360.344 249.355 364.484 239.396 376.214C247.685 377.217 256.873 379.789 259.957 385.874C265.804 397.416 251.026 403.876 259.828 409.898C268.631 415.92 274.863 413.662 271.072 420.938C269.209 424.576 269.916 427.901 271.715 430.347C273.514 432.856 271.137 441.199 242.544 443.143C229.566 444.022 215.558 443.269 203.607 438.314C190.5 432.856 182.276 418.805 184.717 419.119Z" fill="#5A39D6"/>
<path d="M454.025 320.596L446.181 304.264L436.254 296.286C434.773 295.108 434.114 293.18 434.553 291.36L434.718 290.717L433.731 289.432C432.743 288.147 432.524 286.487 433.237 285.041L433.84 283.702L433.456 283.22C432.304 281.721 432.03 279.686 432.798 277.973L434.553 273.903L437.296 281.079L446.456 288.307L443.932 281.989C443.494 280.864 443.658 279.579 444.481 278.615C445.249 277.705 446.73 277.812 447.278 278.83L451.227 285.684C452.763 288.361 453.695 291.306 453.97 294.305L454.683 302.337L467.737 312.564L454.025 320.596Z" fill="white"/>
<path d="M454.027 321.131C453.972 321.131 453.917 321.131 453.862 321.131C453.698 321.077 453.588 320.97 453.533 320.863L445.745 304.639L435.872 296.714C434.226 295.375 433.513 293.287 433.952 291.252L434.062 290.824L433.184 289.753C432.087 288.307 431.868 286.433 432.636 284.826L433.129 283.809L432.965 283.595C431.703 281.935 431.429 279.739 432.252 277.812L434.007 273.742C434.117 273.528 434.281 273.421 434.555 273.421C434.775 273.421 434.994 273.582 435.049 273.796L437.737 280.81L445.196 286.647L443.441 282.256C442.893 280.917 443.167 279.418 444.044 278.347C444.538 277.758 445.251 277.49 446.019 277.544C446.787 277.598 447.445 278.026 447.829 278.668L451.778 285.522C453.369 288.253 454.301 291.252 454.575 294.358L455.288 302.175L468.123 312.296C468.288 312.403 468.342 312.564 468.342 312.778C468.342 312.938 468.233 313.099 468.068 313.206L454.411 321.238C454.191 321.077 454.136 321.131 454.027 321.131ZM434.446 275.349L433.239 278.133C432.581 279.686 432.8 281.506 433.843 282.845L434.226 283.327C434.336 283.488 434.391 283.702 434.281 283.862L433.678 285.201C433.074 286.486 433.239 287.932 434.117 289.057L435.104 290.342C435.214 290.449 435.214 290.609 435.214 290.77L435.049 291.413C434.665 293.073 435.269 294.732 436.585 295.803L446.513 303.782C446.568 303.835 446.622 303.889 446.677 303.996L454.246 319.792L466.697 312.456L454.246 302.711C454.136 302.604 454.082 302.497 454.027 302.336L453.314 294.304C453.04 291.305 452.162 288.468 450.626 285.897L446.677 279.043C446.513 278.722 446.129 278.508 445.745 278.454C445.361 278.401 444.977 278.561 444.757 278.883C444.099 279.686 443.935 280.757 444.319 281.721L446.842 288.039C446.951 288.253 446.842 288.521 446.677 288.682C446.458 288.842 446.183 288.842 446.019 288.682L436.859 281.453C436.804 281.399 436.749 281.292 436.695 281.239L434.446 275.349Z" fill="#080717"/>
<path d="M493.688 258.214C485.516 247.879 497.034 240.061 504.438 241.828C505.096 241.989 505.81 241.775 506.468 241.828C506.907 242.685 507.181 243.595 507.236 244.613C507.565 249.967 500.654 263.408 493.688 258.214Z" fill="#5A39D6"/>
<path d="M527.975 291.919L508.065 289.081L503.238 271.303L520.187 266.966L527.975 291.919Z" fill="white"/>
<path d="M527.971 292.451H527.917L507.952 289.613C507.732 289.56 507.568 289.452 507.513 289.238L502.741 271.461C502.686 271.193 502.851 270.925 503.125 270.818L520.018 266.481C520.293 266.427 520.567 266.588 520.676 266.856L528.52 291.809C528.575 291.969 528.52 292.183 528.41 292.29C528.3 292.398 528.136 292.451 527.971 292.451ZM508.445 288.649L527.203 291.273L519.744 267.552L503.838 271.621L508.445 288.649Z" fill="#080717"/>
<path d="M521.438 271.355C523.138 269.481 524.51 267.178 525.223 264.555C527.691 255.773 522.535 246.938 513.869 244.421C499.663 240.298 493.959 252.239 493.685 254.916C493.63 255.559 493.575 256.148 493.465 256.737C493.246 257.701 493.081 258.664 493.027 259.628C492.588 261.663 491.984 263.216 490.778 263.966C488.913 265.09 493.794 280.19 505.258 276.335L521.438 271.355Z" fill="white"/>
<path d="M501.638 277.405C498.457 277.405 494.233 276.067 491.272 270.07C489.955 267.392 489.297 264.233 490.504 263.483C491.436 262.894 492.095 261.663 492.533 259.467C492.588 258.503 492.753 257.486 492.972 256.522C493.027 255.933 493.082 255.344 493.191 254.755C493.411 252.881 495.55 248.169 499.938 245.385C503.887 242.814 508.659 242.279 514.089 243.832C523.194 246.455 528.349 255.612 525.826 264.608C525.113 267.232 523.797 269.641 521.932 271.622C521.713 271.837 521.384 271.837 521.164 271.676C520.945 271.462 520.945 271.14 521.11 270.926C522.865 269.052 524.071 266.803 524.784 264.287C527.143 255.826 522.316 247.259 513.76 244.796C508.659 243.296 504.216 243.778 500.486 246.188C496.153 249.026 494.343 253.577 494.234 254.809C494.179 255.451 494.124 256.04 494.014 256.629V256.683C493.795 257.593 493.63 258.557 493.575 259.521V259.574C493.082 262.091 492.314 263.537 491.107 264.287C490.723 264.661 490.997 267.606 492.917 270.766C496.921 277.298 502.242 276.656 505.094 275.692C505.368 275.585 505.697 275.745 505.752 276.013C505.862 276.281 505.697 276.602 505.423 276.656C504.655 277.031 503.284 277.405 501.638 277.405Z" fill="#080717"/>
<path d="M495.054 271.138C494.834 271.138 494.615 271.031 494.56 270.816C494.45 270.549 494.615 270.227 494.889 270.174C495.986 269.799 496.37 268.568 496.37 268.514C496.425 268.246 496.754 268.086 497.028 268.139C497.302 268.193 497.467 268.514 497.412 268.782C497.412 268.835 496.918 270.549 495.273 271.138C495.163 271.138 495.108 271.138 495.054 271.138Z" fill="#080717"/>
<path d="M499.109 257.268C498.835 257.268 498.616 257.054 498.561 256.786C498.506 256.411 498.012 255.715 497.244 255.34C496.806 255.126 495.928 254.805 494.941 255.286C494.666 255.447 494.337 255.34 494.228 255.072C494.063 254.805 494.173 254.483 494.447 254.376C495.489 253.841 496.641 253.841 497.738 254.376C498.78 254.912 499.548 255.822 499.603 256.625C499.658 257 499.438 257.268 499.109 257.268Z" fill="#080717"/>
<path d="M496.266 260.108C496.102 260.59 495.663 260.858 495.334 260.697C495.005 260.59 494.895 260.108 495.06 259.626C495.225 259.144 495.663 258.876 495.992 259.037C496.321 259.198 496.431 259.679 496.266 260.108Z" fill="#080717"/>
<path d="M504.385 275.952L505.92 281.628C508.169 280.022 509.87 277.666 510.637 274.881C510.967 273.757 511.076 272.632 511.076 271.508C509.431 273.65 507.072 275.203 504.385 275.952Z" fill="#080717"/>
<path d="M537.945 249.99C541.627 243.904 539.557 236.057 533.323 232.463C527.089 228.869 519.05 230.889 515.369 236.975C511.688 243.061 513.757 250.909 519.991 254.503C526.225 258.097 534.264 256.077 537.945 249.99Z" fill="#5A39D6"/>
<path d="M527.855 258.052C524.674 258.052 521.602 256.981 519.079 254.946C516.282 252.643 514.581 249.431 514.307 245.897C513.978 242.363 515.13 238.936 517.489 236.205C519.847 233.474 523.138 231.814 526.758 231.546C530.378 231.225 533.888 232.349 536.686 234.652C539.483 236.954 541.183 240.167 541.457 243.701C542.116 250.984 536.521 257.463 529.062 258.052C528.623 258.052 528.239 258.052 527.855 258.052ZM515.35 245.843C515.624 249.109 517.214 252.054 519.737 254.196C522.315 256.285 525.551 257.302 528.897 257.034C535.808 256.445 540.909 250.502 540.36 243.808C540.086 240.542 538.496 237.597 535.972 235.455C533.395 233.367 530.159 232.349 526.813 232.617C523.467 232.885 520.45 234.438 518.256 236.901C516.117 239.364 515.075 242.577 515.35 245.843Z" fill="#080717"/>
<path d="M508.115 256.4C510.09 251.902 514.697 248.689 520.182 248.636C526.599 248.636 532.139 253.348 533.071 259.506C534.168 266.842 528.738 273.481 521.224 274.124H521.169C517.933 274.392 514.971 272.464 513.71 269.572L508.115 256.4Z" fill="#5A39D6"/>
<path d="M519.39 252.738C521.597 247.358 518.919 241.249 513.407 239.094C507.896 236.939 501.638 239.554 499.431 244.934C497.223 250.315 499.902 256.424 505.413 258.579C510.925 260.734 517.182 258.119 519.39 252.738Z" fill="#5A39D6"/>
<path d="M510.848 267.441C513.627 266.993 515.508 264.43 515.049 261.716C514.59 259.003 511.965 257.167 509.185 257.615C506.406 258.063 504.525 260.626 504.984 263.34C505.443 266.053 508.069 267.89 510.848 267.441Z" fill="white"/>
<path d="M516.453 257.576C516.508 258.165 516.508 258.754 516.453 259.343C515.301 259.771 514.094 260.092 512.778 260.199C505.593 260.789 499.23 255.594 498.627 248.58C498.572 247.991 498.572 247.402 498.627 246.813C499.779 246.384 500.985 246.063 502.302 245.956C509.487 245.314 515.795 250.508 516.453 257.576Z" fill="#5A39D6"/>
<path d="M452.398 321.155L465.974 309.897L483.616 326.277L504.722 293.41C510.053 285.14 520.606 281.726 529.949 285.247C533.357 286.528 535.995 289.142 537.314 292.45L549.35 322.809L540.062 330.866L522.255 344.684C519.067 347.139 514.505 346.925 511.647 344.151L507.91 340.63L494.334 352.581C487.079 358.984 475.647 357.436 470.481 349.38L452.398 321.155Z" fill="#5A39D6" stroke="black"/>
<path d="M507.669 341.26C507.56 341.26 507.45 341.206 507.34 341.152C507.121 340.992 507.066 340.671 507.23 340.403L520.394 323.268C520.559 323.054 520.888 323 521.162 323.161C521.381 323.321 521.436 323.643 521.272 323.91L508.108 341.045C507.998 341.152 507.834 341.26 507.669 341.26Z" fill="black"/>
<path d="M478.821 333.608C478.711 333.608 478.601 333.555 478.547 333.501C478.327 333.341 478.217 333.019 478.382 332.805L482.935 326.058C483.099 325.844 483.428 325.737 483.647 325.898C483.867 326.058 483.977 326.38 483.812 326.594L479.26 333.341C479.15 333.555 478.985 333.608 478.821 333.608Z" fill="black"/>
<path d="M475.481 288.947L471.587 283.111L468.954 280.433L467.144 278.452C466.486 277.756 465.279 277.97 464.95 278.881C464.566 279.951 464.731 281.129 465.389 282.04L473.342 293.285L466.815 289.001C466.486 288.787 466.102 288.68 465.718 288.733C464.567 288.894 464.018 290.286 464.786 291.143L469.996 296.712C471.861 298.693 474.22 300.192 476.798 300.995L477.785 301.317L482.283 302.441L488.042 311.598L490.181 314.917L475.481 288.947Z" fill="white"/>
<path d="M490.24 315.345C490.075 315.345 489.856 315.238 489.746 315.077L487.607 311.757L481.957 302.762L477.679 301.691L476.637 301.369C473.95 300.513 471.481 298.96 469.562 296.925L464.351 291.356C463.857 290.767 463.748 290.018 464.022 289.321C464.296 288.625 464.899 288.143 465.667 288.036C466.216 287.983 466.709 288.09 467.148 288.358L471.207 291.035L464.954 282.2C464.186 281.129 464.022 279.79 464.461 278.559C464.68 277.97 465.228 277.541 465.832 277.381C466.49 277.273 467.148 277.488 467.587 277.97L469.397 279.951L472.03 282.628L472.085 282.682L475.979 288.518C476.143 288.786 476.089 289.107 475.814 289.268C475.54 289.429 475.211 289.375 475.047 289.107L471.207 283.271L468.629 280.647L466.819 278.666C466.655 278.451 466.38 278.398 466.106 278.451C465.832 278.505 465.612 278.666 465.558 278.933C465.228 279.844 465.338 280.808 465.887 281.611L473.84 292.856C474.004 293.07 473.949 293.337 473.785 293.552C473.62 293.712 473.291 293.766 473.072 293.605L466.545 289.321C466.326 289.161 466.106 289.107 465.832 289.161C465.503 289.214 465.174 289.429 465.064 289.75C464.954 290.071 465.009 290.446 465.228 290.714L470.439 296.283C472.249 298.21 474.498 299.602 477.021 300.406L478.008 300.727L482.451 301.798C482.616 301.851 482.725 301.905 482.78 302.066L488.539 311.222L490.678 314.488C490.843 314.756 490.788 315.077 490.514 315.238C490.459 315.345 490.349 315.345 490.24 315.345Z" fill="#080717"/>
<path d="M472.959 284.982L478.937 285.25C480.583 285.304 482.119 286.16 482.996 287.553L489.249 297.084L497.312 304.206L472.959 284.982Z" fill="white"/>
<path d="M497.367 304.742C497.258 304.742 497.093 304.688 496.984 304.581L488.921 297.459C488.866 297.406 488.866 297.406 488.811 297.352L482.558 287.821C481.735 286.589 480.419 285.84 478.938 285.786L472.96 285.518C472.685 285.518 472.411 285.251 472.466 284.983C472.466 284.715 472.74 284.447 473.015 284.501L478.993 284.769C480.803 284.822 482.503 285.786 483.491 287.285L489.689 296.763L497.697 303.831C497.916 304.046 497.916 304.367 497.751 304.581C497.642 304.688 497.477 304.742 497.367 304.742Z" fill="#080717"/>
<path d="M478.227 289.053C478.063 289.053 477.843 288.946 477.789 288.786L475.704 285.466C475.54 285.198 475.649 284.877 475.869 284.77C476.143 284.609 476.472 284.716 476.582 284.93L478.666 288.25C478.831 288.518 478.721 288.839 478.502 288.946C478.447 289.053 478.337 289.053 478.227 289.053Z" fill="#080717"/>
<path d="M480.971 289.052C480.807 289.052 480.587 288.944 480.532 288.784L478.558 285.464C478.393 285.196 478.503 284.875 478.777 284.768C479.051 284.607 479.38 284.714 479.49 284.982L481.465 288.302C481.629 288.57 481.52 288.891 481.245 288.998C481.136 289.052 481.026 289.052 480.971 289.052Z" fill="#080717"/>
<path d="M474.162 248.999H452.825C451.509 248.999 450.467 250.016 450.467 251.302V266.348C450.467 267.633 451.509 268.651 452.825 268.651H455.184V273.256L460.504 268.651H474.162C475.478 268.651 476.52 267.633 476.52 266.348V251.302C476.52 250.016 475.478 248.999 474.162 248.999Z" fill="white"/>
<path d="M455.185 273.845C455.131 273.845 455.021 273.845 454.966 273.791C454.747 273.684 454.637 273.524 454.637 273.31V269.24H452.827C451.236 269.24 449.92 267.955 449.92 266.402V251.302C449.92 249.749 451.236 248.464 452.827 248.464H474.163C475.754 248.464 477.07 249.749 477.07 251.302V266.348C477.07 267.901 475.754 269.186 474.163 269.186H460.725L455.57 273.684C455.46 273.791 455.35 273.845 455.185 273.845ZM452.827 249.535C451.84 249.535 451.017 250.338 451.017 251.302V266.348C451.017 267.312 451.84 268.115 452.827 268.115H455.185C455.515 268.115 455.734 268.383 455.734 268.651V272.078L460.122 268.223C460.232 268.115 460.341 268.062 460.506 268.062H474.163C475.15 268.062 475.973 267.259 475.973 266.295V251.302C475.973 250.338 475.15 249.535 474.163 249.535H452.827Z" fill="#080717"/>
<path d="M457.54 258.255H455.236V265.216H457.54V258.255Z" fill="#FFB000"/>
<path d="M462.262 261.741H459.959V265.222H462.262V261.741Z" fill="#FFB000"/>
<path d="M467.032 252.469H464.729V265.213H467.032V252.469Z" fill="#FFB000"/>
<path d="M471.747 255.897H469.443V265.161H471.747V255.897Z" fill="#FFB000"/>
<path d="M269.162 161.29L235.149 199.927L197.844 164.671L136.576 217.999V239.784L197.389 186.845L236.285 223.597L281.767 171.878L269.162 161.29Z" fill="#FFB000"/>
<path d="M288.59 184.968V155.81H258.666L288.59 184.968Z" fill="#FFB000"/>
<path d="M180.274 227.815V194.943C180.274 191.284 182.319 187.848 185.612 186.074C186.747 185.464 188.11 185.464 189.246 186.129C190.382 186.794 191.063 187.903 191.063 189.233V212.904C192.142 212.294 193.448 211.906 194.811 211.906H195.095C197.536 211.906 199.751 213.07 201.113 214.955C201.568 214.899 202.022 214.844 202.476 214.844H202.76C205.258 214.844 207.586 216.063 208.949 218.17V218.225C209.574 218.114 210.199 218.003 210.823 218.003C215.422 218.003 219.17 221.662 219.17 226.152V276.043C219.17 276.264 219 276.043 218.716 276.043H182.886C182.659 276.043 182.432 276.264 182.432 276.043V254.756L181.978 254.313C177.89 250.321 175.618 245 175.618 239.345V235.299C175.618 232.028 177.492 229.201 180.274 227.815Z" fill="white"/>
<path d="M180.665 228.488C181.006 228.488 181.233 228.266 181.233 227.933V194.95C181.233 191.624 183.05 188.575 186.06 186.912C186.911 186.469 187.876 186.469 188.728 186.912C189.58 187.356 190.034 188.243 190.034 189.13V212.855C190.034 213.188 190.261 213.41 190.602 213.41C190.943 213.41 191.17 213.188 191.17 212.855V189.185C191.17 187.855 190.488 186.635 189.296 185.97C188.104 185.305 186.684 185.305 185.549 185.914C182.198 187.744 180.154 191.181 180.154 194.895V227.878C180.098 228.21 180.381 228.488 180.665 228.488Z" fill="#080717"/>
<path d="M187.769 227.54C188.11 227.54 188.337 227.318 188.337 226.985V219.058C188.337 215.622 191.176 212.85 194.696 212.85H194.98C197.138 212.85 199.182 213.903 200.374 215.732C200.545 216.01 200.886 216.065 201.169 215.899C201.453 215.732 201.51 215.4 201.34 215.123C199.977 213.016 197.592 211.741 195.037 211.741H194.753C190.608 211.741 187.258 215.012 187.258 219.058V226.985C187.201 227.318 187.485 227.54 187.769 227.54Z" fill="#080717"/>
<path d="M195.429 227.758C195.77 227.758 195.997 227.536 195.997 227.204V221.993C195.997 218.556 198.836 215.784 202.356 215.784H202.64C204.798 215.784 206.842 216.838 208.034 218.667C208.205 218.944 208.546 219 208.83 218.833C209.114 218.667 209.17 218.334 209 218.057C207.637 215.951 205.252 214.676 202.697 214.676H202.413C198.268 214.676 194.918 217.946 194.918 221.993V227.204C194.861 227.536 195.145 227.758 195.429 227.758Z" fill="#080717"/>
<path d="M182.819 276.543C183.159 276.543 183.387 276.321 183.387 275.989V254.591C183.387 254.481 183.33 254.314 183.273 254.259L182.705 253.594C178.787 249.769 176.63 244.669 176.63 239.292V235.245C176.63 231.198 180.036 227.872 184.181 227.872H198.718C199.683 227.872 200.592 228.26 201.159 228.981C201.784 229.702 202.011 230.644 201.898 231.531C201.443 233.97 199.513 235.855 197.014 236.243L188.611 237.629C188.327 237.684 188.156 237.906 188.156 238.183C188.156 238.46 188.327 238.682 188.611 238.737C188.611 238.737 191.279 239.292 193.834 240.899C197.241 243.061 198.945 245.999 198.945 249.658C198.945 249.99 199.172 250.212 199.513 250.212C199.853 250.212 200.08 249.99 200.08 249.658C200.08 242.729 194.402 239.569 191.109 238.349L197.185 237.352C200.137 236.908 202.465 234.635 202.976 231.753C203.203 230.533 202.863 229.258 202.011 228.26C201.159 227.318 199.967 226.764 198.661 226.764H184.125C179.355 226.764 175.437 230.589 175.437 235.245V239.292C175.437 245.001 177.709 250.323 181.854 254.37L182.251 254.813V275.989C182.251 276.266 182.478 276.543 182.819 276.543Z" fill="#080717"/>
<path d="M218.651 276.553C218.992 276.553 219.219 276.331 219.219 275.999V226.108C219.219 221.563 215.414 217.849 210.758 217.849C206.102 217.849 202.298 221.563 202.298 226.108V237.195C202.298 238.636 203.49 239.8 204.966 239.8C208.203 239.8 210.872 237.195 210.872 234.035V228.824C210.872 228.492 210.645 228.27 210.304 228.27C209.963 228.27 209.736 228.492 209.736 228.824V234.035C209.736 236.585 207.578 238.692 204.966 238.692C204.115 238.692 203.434 238.026 203.434 237.195V226.108C203.434 222.172 206.727 218.957 210.758 218.957C214.79 218.957 218.083 222.172 218.083 226.108V275.999C218.083 276.276 218.367 276.553 218.651 276.553Z" fill="#080717"/>
<path d="M208.422 229.374H212.397C212.738 229.374 212.965 229.153 212.965 228.82C212.965 228.487 212.738 228.266 212.397 228.266H208.422C208.082 228.266 207.854 228.487 207.854 228.82C207.854 229.153 208.138 229.374 208.422 229.374Z" fill="#080717"/>
<path d="M107.489 230.746C109.93 228.528 112.088 228.861 113.451 229.582C113.621 229.693 113.848 229.803 114.019 229.914C111.066 224.205 110.612 219.382 112.656 215.502C114.416 212.12 118.22 209.515 123.558 207.907C127.589 206.688 131.11 206.466 131.167 206.466C131.28 206.466 131.394 206.521 131.451 206.577C131.962 207.186 144.454 221.1 146.384 229.693C148.315 238.285 148.996 241.001 148.996 241.001C148.996 241.112 148.996 241.223 148.94 241.278C148.883 241.334 146.441 244.549 140.82 246.267L143.886 253.196C143.943 253.307 143.943 253.418 143.886 253.474C143.829 253.584 142.807 255.303 138.094 256.578C134.801 257.52 129.634 258.241 121.627 258.13C121.457 258.13 121.343 258.019 121.287 257.908L115.722 241.833C113.508 242.664 110.441 241.722 108.284 239.393C105.615 236.566 105.274 232.797 107.489 230.746Z" fill="white"/>
<path d="M105.663 209.895C108.559 209.063 111.511 209.34 114.066 210.449C106.855 214.773 103.164 223.642 105.663 232.29C105.776 232.678 105.89 233.066 106.004 233.398C101.858 232.345 98.3379 229.296 97.0887 224.973C95.2149 218.487 99.0194 211.724 105.663 209.895Z" fill="#5A39D6"/>
<path d="M115.886 236.95L108.448 238.613L102.032 231.85C98.8519 228.524 97.8297 223.756 99.3629 219.433C101.066 214.665 103.281 209.122 104.246 208.845C105.382 208.512 118.044 202.969 126.164 200.252C130.706 198.7 135.703 201.084 137.293 205.574L138.826 215.441L131.047 206.35C131.047 206.35 125.937 216.217 113.274 218.823L115.886 236.95Z" fill="#5A39D6"/>
<path d="M127.428 228.749C127.939 228.749 128.45 228.693 128.962 228.527C130.381 228.139 131.573 227.197 132.312 225.922C133.05 224.647 133.22 223.205 132.823 221.764C132.425 220.378 131.46 219.214 130.154 218.494C128.848 217.773 127.372 217.607 125.895 217.995C124.476 218.383 123.283 219.325 122.545 220.6C121.807 221.875 121.637 223.316 122.034 224.758C122.432 226.143 123.397 227.308 124.703 228.028C125.611 228.527 126.52 228.749 127.428 228.749ZM127.485 218.993C128.223 218.993 128.962 219.159 129.643 219.547C130.665 220.101 131.403 221.044 131.744 222.152C132.084 223.261 131.914 224.425 131.346 225.423C130.779 226.421 129.813 227.141 128.678 227.474C127.542 227.806 126.35 227.64 125.328 227.086C124.305 226.532 123.567 225.589 123.227 224.48C122.886 223.372 123.056 222.208 123.624 221.21C124.192 220.212 125.157 219.491 126.293 219.159C126.633 219.048 127.031 218.993 127.485 218.993Z" fill="#FFB000"/>
<path d="M134.106 234.239C134.163 234.239 134.163 234.239 134.22 234.239L139.273 233.407C139.557 233.352 139.784 233.075 139.728 232.742C139.671 232.465 139.387 232.243 139.046 232.299L133.993 233.13C133.709 233.186 133.482 233.463 133.538 233.795C133.595 234.072 133.822 234.239 134.106 234.239Z" fill="#080717"/>
<path d="M116.789 240.827C114.745 242.656 110.997 241.936 108.499 239.22C106 236.503 105.66 232.845 107.704 231.015C109.748 229.186 113.496 229.907 115.994 232.623L116.789 240.827Z" fill="white"/>
<path d="M113.953 242.376C115.202 242.376 116.281 241.988 117.132 241.212C117.36 240.991 117.359 240.658 117.189 240.436C116.962 240.215 116.621 240.215 116.394 240.381C115.542 241.157 114.293 241.379 112.93 241.157C111.511 240.88 110.091 240.048 108.956 238.829C107.82 237.609 107.139 236.168 106.968 234.727C106.855 233.341 107.252 232.177 108.104 231.456C108.956 230.68 110.205 230.458 111.568 230.68C112.987 230.957 114.407 231.789 115.542 233.008C115.77 233.23 116.11 233.23 116.337 233.064C116.564 232.842 116.564 232.509 116.394 232.287C115.088 230.902 113.441 229.959 111.795 229.627C110.035 229.294 108.445 229.627 107.309 230.624C106.173 231.622 105.662 233.119 105.833 234.837C106.003 236.5 106.798 238.219 108.104 239.605C109.41 240.991 111.057 241.933 112.703 242.266C113.158 242.321 113.555 242.376 113.953 242.376Z" fill="#080717"/>
<path d="M132.122 220.485C132.179 220.485 132.236 220.485 132.292 220.485L135.586 219.542C135.87 219.431 136.04 219.154 135.983 218.877C135.87 218.6 135.586 218.434 135.302 218.489L132.009 219.431C131.725 219.542 131.554 219.82 131.611 220.097C131.668 220.318 131.895 220.485 132.122 220.485Z" fill="#FFB000"/>
<path d="M128.259 222.207C128.543 223.149 128.316 224.036 127.805 224.147C127.294 224.314 126.669 223.648 126.385 222.706C126.102 221.764 126.329 220.877 126.84 220.766C127.351 220.599 128.032 221.265 128.259 222.207Z" fill="#080717"/>
<path d="M138.552 217.936C138.836 218.878 138.609 219.765 138.098 219.876C137.587 220.042 136.962 219.377 136.678 218.434C136.394 217.492 136.621 216.605 137.133 216.494C137.644 216.328 138.268 216.993 138.552 217.936Z" fill="#080717"/>
<path d="M113.964 231.397C114.078 231.397 114.191 231.341 114.305 231.286L122.992 225.077C123.22 224.911 123.276 224.523 123.106 224.301C122.936 224.08 122.538 224.024 122.311 224.19L113.623 230.399C113.396 230.565 113.339 230.953 113.51 231.175C113.623 231.341 113.794 231.397 113.964 231.397Z" fill="#FFB000"/>
<path d="M133.201 247.653C144.33 247.653 148.872 241.721 149.043 241.444C149.156 241.333 149.156 241.167 149.156 241.001C149.156 241.001 148.532 238.284 146.544 229.692C144.557 221.044 132.065 207.075 131.554 206.521C131.327 206.299 130.986 206.244 130.759 206.465C130.532 206.687 130.475 207.02 130.702 207.241C130.816 207.408 143.535 221.599 145.465 229.969C147.055 237.065 147.793 240.169 148.021 241.001C146.999 242.165 140.696 248.54 126.784 245.934C126.5 245.879 126.16 246.1 126.103 246.378C126.046 246.655 126.273 246.987 126.557 247.043C128.999 247.431 131.213 247.653 133.201 247.653Z" fill="#080717"/>
<path d="M121.621 258.393C121.678 258.393 121.735 258.393 121.792 258.338C122.076 258.227 122.246 257.95 122.132 257.617L116.511 241.375C116.398 241.098 116.113 240.932 115.773 241.043C115.489 241.153 115.319 241.431 115.432 241.763L121.054 258.005C121.167 258.227 121.394 258.393 121.621 258.393Z" fill="#080717"/>
<path d="M143.488 253.922C143.545 253.922 143.659 253.922 143.716 253.867C143.999 253.756 144.113 253.424 143.999 253.146L140.876 245.995C140.763 245.718 140.422 245.607 140.138 245.718C139.854 245.829 139.741 246.162 139.854 246.439L142.977 253.59C143.091 253.812 143.261 253.922 143.488 253.922Z" fill="#080717"/>
<path d="M139.851 223.649C140.362 223.649 140.873 223.594 141.384 223.428C144.337 222.596 146.041 219.603 145.189 216.72C144.337 213.838 141.271 212.175 138.318 213.006C135.763 213.727 134.116 216.11 134.287 218.66C134.287 218.993 134.571 219.215 134.911 219.159C135.252 219.159 135.479 218.882 135.422 218.55C135.252 216.499 136.615 214.614 138.602 214.059C140.93 213.394 143.429 214.725 144.053 217.053C144.735 219.326 143.372 221.765 140.987 222.374C140.419 222.541 139.795 222.596 139.227 222.485C138.943 222.43 138.659 222.652 138.602 222.984C138.545 223.261 138.772 223.539 139.113 223.594C139.397 223.594 139.624 223.649 139.851 223.649Z" fill="#FFB000"/>
<path d="M138.318 230.136C138.488 230.136 138.659 230.081 138.772 229.914C139.397 229.194 141.498 226.644 141.384 225.424C141.327 225.036 141.157 224.87 140.987 224.759C140.362 224.316 135.876 219.049 133.151 215.834C132.981 215.613 132.583 215.557 132.356 215.779C132.129 215.945 132.072 216.333 132.299 216.555C132.981 217.386 139.17 224.704 140.249 225.646C140.249 226.145 139.226 227.808 137.92 229.305C137.693 229.526 137.75 229.914 137.977 230.081C138.034 230.136 138.148 230.136 138.318 230.136Z" fill="#080717"/>
<path d="M126.34 271.991L146.895 266.226C148.599 265.783 149.564 264.064 149.053 262.401L146.043 252.091C145.589 250.428 143.829 249.485 142.125 249.984L121.57 255.749C119.867 256.193 118.902 257.911 119.413 259.574L122.422 269.885C122.933 271.492 124.637 272.435 126.34 271.991Z" fill="#846BFA" stroke="black" stroke-width="2"/>
<path d="M176.762 275.983L172.276 265.062C169.039 257.191 160.124 253.089 151.834 255.639L105.444 270.107C102.548 270.994 100.22 273.156 99.141 275.983H176.762Z" fill="#846BFA" stroke="black" stroke-width="2"/>
<path d="M409.5 222.999C412.261 222.999 414.5 220.76 414.5 217.999C414.5 215.238 412.261 212.999 409.5 212.999C406.739 212.999 404.5 215.238 404.5 217.999C404.5 220.76 406.739 222.999 409.5 222.999Z" stroke="black" stroke-width="2"/>
<path d="M452.5 217.999V247.999" stroke="black" stroke-width="2" stroke-linecap="round"/>
<path d="M452.5 217.999H414.5" stroke="black" stroke-width="2" stroke-linecap="round"/>
<path d="M290.5 288.999C290.5 291.76 292.739 293.999 295.5 293.999C298.261 293.999 300.5 291.76 300.5 288.999C300.5 286.238 298.261 283.999 295.5 283.999C292.739 283.999 290.5 286.238 290.5 288.999Z" stroke="black" stroke-width="2"/>
<path d="M295.5 331.999H265.5" stroke="black" stroke-width="2" stroke-linecap="round"/>
<path d="M295.5 331.999V293.999" stroke="black" stroke-width="2" stroke-linecap="round"/>
<path d="M257.5 140.999C254.739 140.999 252.5 138.76 252.5 135.999C252.5 133.238 254.739 130.999 257.5 130.999C260.261 130.999 262.5 133.238 262.5 135.999C262.5 138.76 260.261 140.999 257.5 140.999Z" stroke="black" stroke-width="2"/>
<path d="M214.5 135.999V165.999" stroke="black" stroke-width="2" stroke-linecap="round"/>
<path d="M214.5 135.999H252.5" stroke="black" stroke-width="2" stroke-linecap="round"/>
</g>
</g>
<defs>
<clipPath id="clip0_77_432">
<rect width="653" height="528" fill="white" transform="translate(0.5)"/>
</clipPath>
<clipPath id="clip1_77_432">
<rect width="653" height="528" fill="white" transform="translate(0.5)"/>
</clipPath>
</defs>
</svg>
