<svg width="132" height="16" viewBox="0 0 132 16" fill="none" xmlns="http://www.w3.org/2000/svg">
<g clip-path="url(#clip0_77_1951)">
<g clip-path="url(#clip1_77_1951)">
<g clip-path="url(#clip2_77_1951)">
<path fill-rule="evenodd" clip-rule="evenodd" d="M35.496 9.33345C29.8679 10.689 23.3699 12.038 17.1189 12.3748C11.7761 12.6623 6.61536 12.2158 2.39124 10.3158C1.79579 10.0483 1.05012 10.2322 0.728099 10.7273C0.405583 11.222 0.627465 11.8414 1.22292 12.1093C5.83092 14.1814 11.4496 14.7234 17.2775 14.4093C23.6409 14.0668 30.2562 12.7088 35.9972 11.3337C36.6633 12.4547 38.0427 13.4999 40.4726 14.2711C44.2049 15.4557 49.3008 15.4411 54.6692 14.7735C62.4552 13.8058 70.8308 11.498 76.2159 9.85828C76.4368 9.7914 76.7657 9.68498 77.1682 9.54469C77.291 9.7698 77.4284 9.99164 77.5806 10.2094C78.9011 12.1073 81.2377 13.6419 83.6186 14.1899C98.7184 17.6652 116.341 13.5012 130.69 10.1123C131.338 9.9586 131.716 9.39422 131.534 8.85307C131.348 8.31192 130.671 7.9975 130.018 8.15124C116.071 11.4455 98.9491 15.6017 84.2714 12.2247C82.4649 11.8088 80.7076 10.6294 79.7061 9.18909C79.5932 9.02841 79.4951 8.86407 79.4018 8.69728C81.3801 7.88291 83.7069 6.7476 84.9587 5.53235C86.2448 4.28652 86.5639 2.95669 85.4447 1.70066C84.4825 0.626927 83.0246 0.535578 81.5077 1.09223C79.873 1.68843 78.1893 3.08227 77.6444 3.73638C76.6233 4.95815 76.2994 6.28351 76.4859 7.57583C76.0048 7.74466 75.6141 7.87026 75.3731 7.94366C70.1058 9.54713 61.9192 11.8104 54.3059 12.7569C49.4073 13.3662 44.7542 13.4473 41.3484 12.3667C39.8958 11.9054 38.9361 11.3672 38.4153 10.7424C39.4432 10.4871 40.4343 10.2359 41.3813 9.99613C43.254 9.52185 47.1532 8.73685 49.939 7.33768C52.1544 6.22521 53.6565 4.71186 53.5691 2.81477C53.5245 1.84013 52.8455 1.18968 51.7651 0.825104C50.1505 0.280691 47.3584 0.544124 46.3186 0.727634C43.1652 1.28306 38.9563 3.58225 36.8739 6.173C36.0428 7.20677 35.5485 8.28826 35.496 9.33345ZM38.0864 8.69646C38.9774 8.4738 39.8384 8.25522 40.6655 8.04561C42.4136 7.60274 46.0678 6.89928 48.669 5.59269C50.0465 4.90106 51.1711 4.07242 51.1166 2.89265C51.1122 2.8009 51.0027 2.77481 50.906 2.73729C50.7563 2.67979 50.585 2.64022 50.4024 2.60923C49.1668 2.39962 47.5071 2.60229 46.8277 2.72218C44.1818 3.1883 40.6621 5.13147 38.915 7.30545C38.5459 7.76463 38.2518 8.23239 38.0864 8.69646ZM78.9109 6.63708C80.0645 6.14405 81.2721 5.54783 82.2244 4.89902C82.73 4.55443 83.1571 4.20007 83.4271 3.83223C83.6529 3.52801 83.7413 3.21643 83.4713 2.91548C83.3633 2.79355 83.2013 2.79111 83.0344 2.81395C82.8577 2.83842 82.676 2.8906 82.4944 2.95789C81.2966 3.39587 80.0596 4.41904 79.662 4.89902C79.1956 5.45567 78.9649 6.04454 78.9109 6.63708Z" fill="#039855"/>
</g>
</g>
</g>
<defs>
<clipPath id="clip0_77_1951">
<rect width="131" height="15" fill="white" transform="translate(0.580017 0.5)"/>
</clipPath>
<clipPath id="clip1_77_1951">
<rect width="131" height="15" fill="white" transform="translate(0.580017 0.5)"/>
</clipPath>
<clipPath id="clip2_77_1951">
<rect width="131" height="15" fill="white" transform="translate(0.580017 0.5)"/>
</clipPath>
</defs>
</svg>
