<svg width="102" height="30" viewBox="0 0 102 30" fill="none" xmlns="http://www.w3.org/2000/svg">
<path d="M9.692 6.672C9.692 8.184 9.476 9.888 9.044 11.784C8.612 13.656 8.204 15.324 7.82 16.788C7.436 18.252 7.088 19.668 6.776 21.036C6.488 22.404 6.236 23.52 6.02 24.384C5.828 25.224 5.6 26.088 5.336 26.976C4.808 28.68 4.232 29.532 3.608 29.532C3.056 29.532 2.42 29.184 1.7 28.488C1.004 27.768 0.656 27.12 0.656 26.544C0.656 25.968 0.92 24.648 1.448 22.584C1.976 20.52 2.504 17.82 3.032 14.484C3.584 11.124 3.86 7.632 3.86 4.008C3.86 3.312 4.208 2.964 4.904 2.964C5.624 2.964 6.596 3.468 7.82 4.476C9.068 5.484 9.692 6.216 9.692 6.672ZM19.9793 9.408C19.9793 8.64 20.3273 8.256 21.0233 8.256C21.7673 8.256 22.6913 8.76 23.7953 9.768C24.8993 10.752 25.4513 11.52 25.4513 12.072C25.4513 12.6 25.2473 13.8 24.8393 15.672C26.3513 15.6 27.5513 15.564 28.4393 15.564C31.2473 15.564 32.6513 15.912 32.6513 16.608C32.6513 18.12 29.7233 19.2 23.8673 19.848L23.7593 20.388C23.0633 23.34 22.5593 25.26 22.2473 26.148C21.9593 27.012 21.6113 27.444 21.2033 27.444C20.6513 27.444 20.0153 27.096 19.2953 26.4C18.5753 25.68 18.2153 24.984 18.2153 24.312C18.2153 24.264 18.4673 22.908 18.9713 20.244C17.2433 20.34 15.7793 20.388 14.5793 20.388C13.8353 20.388 13.1873 20.04 12.6353 19.344C12.1073 18.624 11.8433 17.94 11.8433 17.292C11.8433 16.62 12.2153 16.284 12.9593 16.284C14.6873 16.284 16.6673 16.176 18.8993 15.96L19.6193 15.924C19.8593 13.836 19.9793 11.664 19.9793 9.408ZM42.1412 6.672C42.1412 8.184 41.9252 9.888 41.4932 11.784C41.0612 13.656 40.6532 15.324 40.2692 16.788C39.8852 18.252 39.5372 19.668 39.2252 21.036C38.9372 22.404 38.6852 23.52 38.4692 24.384C38.2772 25.224 38.0492 26.088 37.7852 26.976C37.2572 28.68 36.6812 29.532 36.0572 29.532C35.5052 29.532 34.8692 29.184 34.1492 28.488C33.4532 27.768 33.1052 27.12 33.1052 26.544C33.1052 25.968 33.3692 24.648 33.8972 22.584C34.4252 20.52 34.9532 17.82 35.4812 14.484C36.0332 11.124 36.3092 7.632 36.3092 4.008C36.3092 3.312 36.6572 2.964 37.3532 2.964C38.0732 2.964 39.0452 3.468 40.2692 4.476C41.5172 5.484 42.1412 6.216 42.1412 6.672ZM59.6645 18.732C62.2325 18.732 63.5165 19.104 63.5165 19.848C63.5165 20.568 62.7005 21.24 61.0685 21.864C59.4365 22.488 57.2165 22.98 54.4085 23.34C51.6245 23.7 49.0325 23.88 46.6325 23.88C46.2005 23.88 45.7445 23.496 45.2645 22.728C44.7845 21.96 44.5445 21.324 44.5445 20.82C44.5445 20.436 46.6805 19.992 50.9525 19.488C55.2485 18.984 58.1525 18.732 59.6645 18.732ZM57.2885 12.432C59.7125 12.432 61.5485 12.54 62.7965 12.756C64.0445 12.948 64.6685 13.368 64.6685 14.016C64.6685 15.12 61.9445 15.924 56.4965 16.428C52.7525 16.788 49.9685 16.968 48.1445 16.968C47.7125 16.968 47.2565 16.584 46.7765 15.816C46.2965 15.048 46.0565 14.412 46.0565 13.908C46.0565 12.924 49.8005 12.432 57.2885 12.432ZM77.192 6.672C77.192 8.184 76.976 9.888 76.544 11.784C76.112 13.656 75.704 15.324 75.32 16.788C74.936 18.252 74.588 19.668 74.276 21.036C73.988 22.404 73.736 23.52 73.52 24.384C73.328 25.224 73.1 26.088 72.836 26.976C72.308 28.68 71.732 29.532 71.108 29.532C70.556 29.532 69.92 29.184 69.2 28.488C68.504 27.768 68.156 27.12 68.156 26.544C68.156 25.968 68.42 24.648 68.948 22.584C69.476 20.52 70.004 17.82 70.532 14.484C71.084 11.124 71.36 7.632 71.36 4.008C71.36 3.312 71.708 2.964 72.404 2.964C73.124 2.964 74.096 3.468 75.32 4.476C76.568 5.484 77.192 6.216 77.192 6.672ZM88.0553 6.672C88.0553 8.184 87.8393 9.888 87.4073 11.784C86.9753 13.656 86.5673 15.324 86.1833 16.788C85.7993 18.252 85.4513 19.668 85.1393 21.036C84.8513 22.404 84.5993 23.52 84.3833 24.384C84.1913 25.224 83.9633 26.088 83.6993 26.976C83.1713 28.68 82.5953 29.532 81.9713 29.532C81.4193 29.532 80.7833 29.184 80.0633 28.488C79.3673 27.768 79.0193 27.12 79.0193 26.544C79.0193 25.968 79.2833 24.648 79.8113 22.584C80.3393 20.52 80.8673 17.82 81.3953 14.484C81.9473 11.124 82.2233 7.632 82.2233 4.008C82.2233 3.312 82.5713 2.964 83.2673 2.964C83.9873 2.964 84.9593 3.468 86.1833 4.476C87.4313 5.484 88.0553 6.216 88.0553 6.672ZM92.0426 26.364C92.0426 25.716 92.3186 25.08 92.8706 24.456C93.4226 23.808 93.9746 23.484 94.5266 23.484C95.0786 23.484 95.7146 24.132 96.4346 25.428C97.1786 26.724 97.5506 27.696 97.5506 28.344C97.5506 28.656 97.3466 29.004 96.9386 29.388C96.5546 29.772 96.1706 29.964 95.7866 29.964C95.0666 29.964 94.2626 29.52 93.3746 28.632C92.4866 27.744 92.0426 26.988 92.0426 26.364ZM95.7506 1.416C95.7506 0.719999 96.1226 0.372 96.8666 0.372C97.6106 0.372 98.5946 0.899999 99.8186 1.956C101.067 3.012 101.691 3.78 101.691 4.26C101.691 5.844 101.127 9.12 99.9986 14.088C98.8946 19.032 97.9346 21.504 97.1186 21.504C96.4706 21.504 95.8346 21.168 95.2106 20.496C94.5866 19.824 94.2626 19.128 94.2386 18.408C94.1906 18.144 94.2866 17.376 94.5266 16.104C94.7666 14.808 95.0306 12.828 95.3186 10.164C95.6066 7.476 95.7506 4.56 95.7506 1.416Z" fill="#039855"/>
</svg>
