<svg width="1920" height="470" viewBox="0 0 1920 470" fill="none" xmlns="http://www.w3.org/2000/svg">
<g clip-path="url(#clip0_2019_3)">
<g clip-path="url(#clip1_2019_3)">
<mask id="mask0_2019_3" style="mask-type:luminance" maskUnits="userSpaceOnUse" x="-1" y="-165" width="1921" height="635">
<path d="M1920 -164.667H-0.0012207V470H1920V-164.667Z" fill="white"/>
</mask>
<g mask="url(#mask0_2019_3)">
<path d="M1920 -164.667H-0.0012207V470H1920V-164.667Z" fill="#6A3BE4"/>
<g opacity="0.8">
<path d="M177.836 160.999C197.503 158.175 211.156 139.941 208.331 120.275C205.507 100.608 187.273 86.9546 167.607 89.7786C147.94 92.6039 134.287 110.836 137.112 130.503C139.936 150.169 158.169 163.823 177.836 160.999Z" fill="#9166FF"/>
<path d="M1728.51 161.001C1748.17 158.177 1761.83 139.944 1759 120.277C1756.17 100.611 1737.95 86.9572 1718.28 89.7812C1698.61 92.6066 1684.96 110.839 1687.77 130.505C1690.6 150.172 1708.84 163.825 1728.51 161.001Z" fill="#9166FF"/>
<path d="M747.513 444.259C762.18 442.152 772.361 428.555 770.256 413.889C768.149 399.223 754.552 389.041 739.887 391.147C725.22 393.253 715.039 406.851 717.144 421.516C719.251 436.183 732.848 446.364 747.513 444.259Z" fill="#9166FF"/>
<path d="M1443.52 204.259C1458.19 202.152 1468.36 188.555 1466.25 173.889C1464.15 159.223 1450.55 149.041 1435.88 151.147C1421.23 153.253 1411.04 166.851 1413.15 181.516C1415.25 196.183 1428.85 206.364 1443.52 204.259Z" fill="#9166FF"/>
<path d="M92.6841 530.847L63.6084 475.012C43.5927 436.395 58.5219 388.849 97.1388 368.833L226.6 301.539L92.6841 530.847Z" fill="#9166FF"/>
<path d="M0.224702 22.0546C-26.0925 11.4693 -38.7547 -18.3507 -28.3367 -44.6434L-8.71919 -93.8055C-6.8315 -98.523 -1.51875 -100.825 3.1987 -98.9374L81.2162 -67.7307C85.9337 -65.8431 88.2358 -60.5303 86.3482 -55.8128L66.7306 -6.65072C56.3367 19.8093 26.5419 32.6399 0.224702 22.0546Z" fill="#9166FF"/>
<path d="M459.04 25.1079L426.96 48.0865C404.78 64.1999 373.661 59.1425 357.771 36.9305L303.997 -37.448L459.04 25.1079Z" fill="#9166FF"/>
<path d="M1596.9 484.271C1581.16 520.698 1538.81 537.508 1502.39 521.77L1432.54 491.52C1426.02 488.722 1422.95 481.099 1425.75 474.582L1472.44 366.3C1475.24 359.784 1482.86 356.711 1489.38 359.51L1559.23 389.759C1595.82 405.668 1612.63 447.843 1596.9 484.271Z" fill="#9166FF"/>
<path d="M2002.27 282.073C1986.53 318.5 1944.19 335.311 1907.76 319.572L1837.92 289.323C1831.4 286.524 1828.32 278.901 1831.12 272.384L1877.81 164.103C1880.61 157.587 1888.24 154.513 1894.76 157.312L1964.6 187.561C2001.2 203.471 2018.01 245.645 2002.27 282.073Z" fill="#9166FF"/>
<path d="M1534.63 59.8732C1510.87 49.2066 1500.23 21.2639 1510.89 -2.49477L1531.39 -48.0476C1533.29 -52.2982 1538.32 -54.2438 1542.57 -52.3468L1613.19 -20.6974C1617.44 -18.8014 1619.39 -13.7708 1617.49 -9.5201L1596.99 36.0332C1586.21 59.8986 1558.37 70.5399 1534.63 59.8732Z" fill="#9166FF"/>
<path d="M-37.673 247.841C-40.5063 240.124 -41.7411 232.086 -41.3515 223.921C-40.9663 216.046 -39.0844 208.425 -35.7659 201.257C-32.4475 194.088 -27.8343 187.714 -22.0992 182.333C-16.1254 176.753 -9.19826 172.494 -1.4804 169.661C6.23746 166.828 14.2748 165.593 22.4404 165.982C30.3148 166.368 37.9362 168.249 45.1046 171.568C52.2729 174.886 58.6464 179.5 64.0277 185.234C69.6081 191.208 73.8672 198.136 76.7005 205.853C79.5338 213.57 80.7685 221.608 80.3789 229.774C79.9938 237.648 78.112 245.27 74.7934 252.438C71.4749 259.606 66.8618 265.98 61.1268 271.361C55.1528 276.941 48.2257 281.201 40.508 284.034C32.7901 286.868 24.7528 288.102 16.587 287.713C8.71276 287.328 1.09126 285.445 -6.07712 282.126C-13.2455 278.809 -19.619 274.196 -25.0002 268.46C-30.5735 262.506 -34.8396 255.56 -37.673 247.841ZM43.335 218.102C38.519 204.984 23.9138 198.222 10.7954 203.038C-2.32297 207.854 -9.08421 222.46 -4.26825 235.578C0.547722 248.697 15.1529 255.457 28.2713 250.641C41.3969 245.845 48.1582 231.24 43.335 218.102Z" fill="#9166FF"/>
</g>
</g>
</g>
</g>
<defs>
<clipPath id="clip0_2019_3">
<rect width="1920" height="470" fill="white"/>
</clipPath>
<clipPath id="clip1_2019_3">
<rect width="1920" height="634.667" fill="white" transform="translate(0 -164.667)"/>
</clipPath>
</defs>
</svg>
