<svg width="185" height="21" viewBox="0 0 185 21" fill="none" xmlns="http://www.w3.org/2000/svg">
<g clip-path="url(#clip0_77_119)">
<g clip-path="url(#clip1_77_119)">
<path d="M12.1387 12.8045C13.4723 11.5748 14.8887 10.0694 16.6907 9.14355" stroke="#039855" stroke-width="1.85933" stroke-miterlimit="1.5" stroke-linecap="round" stroke-linejoin="round"/>
<path d="M18.8555 12.0533C20.0043 10.9849 21.4111 9.86376 22.9062 9.01465" stroke="#039855" stroke-width="1.85933" stroke-miterlimit="1.5" stroke-linecap="round" stroke-linejoin="round"/>
<path d="M24.5371 12.0805C25.8043 10.9289 27.3384 9.9378 28.9322 9.01465" stroke="#039855" stroke-width="1.85933" stroke-miterlimit="1.5" stroke-linecap="round" stroke-linejoin="round"/>
<path d="M30.1328 12.3711C31.1585 11.461 32.6975 10.1877 34.2484 9.65723" stroke="#039855" stroke-width="1.85933" stroke-miterlimit="1.5" stroke-linecap="round" stroke-linejoin="round"/>
<path d="M35.7285 12.1308C37.205 11.0027 38.8857 9.77438 40.6753 8.88672" stroke="#039855" stroke-width="1.85933" stroke-miterlimit="1.5" stroke-linecap="round" stroke-linejoin="round"/>
<path d="M42.5312 11.6211C43.9696 10.6215 45.418 9.65846 46.9812 8.75781" stroke="#039855" stroke-width="1.85933" stroke-miterlimit="1.5" stroke-linecap="round" stroke-linejoin="round"/>
<path d="M48.125 11.8286C49.6792 10.6621 51.3716 9.35783 53.3177 8.50098" stroke="#039855" stroke-width="1.85933" stroke-miterlimit="1.5" stroke-linecap="round" stroke-linejoin="round"/>
<path d="M53.8086 11.8454C55.1137 10.8338 56.5643 9.70365 58.1368 8.88672" stroke="#039855" stroke-width="1.85933" stroke-miterlimit="1.5" stroke-linecap="round" stroke-linejoin="round"/>
<path d="M60.5215 11.5214C61.8755 10.367 63.4525 8.97544 65.3553 8.24316" stroke="#039855" stroke-width="1.85933" stroke-miterlimit="1.5" stroke-linecap="round" stroke-linejoin="round"/>
<path d="M65 11.7961C66.0336 10.8533 67.2365 9.69917 68.6649 9.01465" stroke="#039855" stroke-width="1.85933" stroke-miterlimit="1.5" stroke-linecap="round" stroke-linejoin="round"/>
<path d="M70.6816 11.9497C71.9645 10.9492 73.2701 9.90472 74.7145 9.01465" stroke="#039855" stroke-width="1.85933" stroke-miterlimit="1.5" stroke-linecap="round" stroke-linejoin="round"/>
<path d="M76.2773 11.9927C77.5621 10.9948 78.7825 9.91057 80.2179 9.01465" stroke="#039855" stroke-width="1.85933" stroke-miterlimit="1.5" stroke-linecap="round" stroke-linejoin="round"/>
<path d="M80.7578 12.2531C82.1741 11.107 83.6597 10.0456 85.2411 9.01465" stroke="#039855" stroke-width="1.85933" stroke-miterlimit="1.5" stroke-linecap="round" stroke-linejoin="round"/>
<path d="M85.3184 12.0016C86.6935 10.9615 88.0246 9.81775 89.5587 8.88672" stroke="#039855" stroke-width="1.85933" stroke-miterlimit="1.5" stroke-linecap="round" stroke-linejoin="round"/>
<path d="M90.9141 12.0927C91.9596 11.2101 93.3235 9.95995 94.8066 9.41016" stroke="#039855" stroke-width="1.85933" stroke-miterlimit="1.5" stroke-linecap="round" stroke-linejoin="round"/>
<path d="M95.3262 12.2457C96.5096 11.0767 98.1423 9.71442 99.9598 9" stroke="#039855" stroke-width="1.85933" stroke-miterlimit="1.5" stroke-linecap="round" stroke-linejoin="round"/>
<path d="M99.8652 12.0893C101.337 11.1099 102.819 10.1482 104.428 9.28125" stroke="#039855" stroke-width="1.85933" stroke-miterlimit="1.5" stroke-linecap="round" stroke-linejoin="round"/>
<path d="M105.549 12.0595C106.878 11.0654 108.493 10.2699 109.836 9.28125" stroke="#039855" stroke-width="1.85933" stroke-miterlimit="1.5" stroke-linecap="round" stroke-linejoin="round"/>
<path d="M112.26 11.7636C113.546 10.8115 114.951 9.84058 116.411 9.01465" stroke="#039855" stroke-width="1.85933" stroke-miterlimit="1.5" stroke-linecap="round" stroke-linejoin="round"/>
<path d="M117.945 11.7125C118.987 10.638 120.228 9.59812 121.647 8.75781" stroke="#039855" stroke-width="1.85933" stroke-miterlimit="1.5" stroke-linecap="round" stroke-linejoin="round"/>
<path d="M122.42 11.7996C123.698 10.887 125.002 9.91187 126.467 9.14355" stroke="#039855" stroke-width="1.85933" stroke-miterlimit="1.5" stroke-linecap="round" stroke-linejoin="round"/>
<path d="M128.016 11.6136C129.265 10.6259 130.716 9.41468 132.501 8.88672" stroke="#039855" stroke-width="1.85933" stroke-miterlimit="1.5" stroke-linecap="round" stroke-linejoin="round"/>
<path d="M133.613 11.3475C134.988 10.4797 136.366 9.46177 137.93 8.75781" stroke="#039855" stroke-width="1.85933" stroke-miterlimit="1.5" stroke-linecap="round" stroke-linejoin="round"/>
<path d="M139.293 11.3915C140.764 10.4684 142.121 9.28527 143.74 8.50098" stroke="#039855" stroke-width="1.85933" stroke-miterlimit="1.5" stroke-linecap="round" stroke-linejoin="round"/>
<path d="M143.771 11.6077C145.16 10.7381 146.466 9.63578 148.12 9.01465" stroke="#039855" stroke-width="1.85933" stroke-miterlimit="1.5" stroke-linecap="round" stroke-linejoin="round"/>
<path d="M150.572 11.6198C151.713 10.7018 153.058 9.95745 154.16 9.01465" stroke="#039855" stroke-width="1.85933" stroke-miterlimit="1.5" stroke-linecap="round" stroke-linejoin="round"/>
<path d="M155.049 11.953C156.273 11.0577 157.517 10.1225 158.819 9.28125" stroke="#039855" stroke-width="1.85933" stroke-miterlimit="1.5" stroke-linecap="round" stroke-linejoin="round"/>
<path d="M160.645 11.6685C161.926 10.6229 163.253 9.52108 164.759 8.62988" stroke="#039855" stroke-width="1.85933" stroke-miterlimit="1.5" stroke-linecap="round" stroke-linejoin="round"/>
<path d="M165.123 11.7023C166.443 10.7753 167.982 9.52068 169.638 8.88672" stroke="#039855" stroke-width="1.85933" stroke-miterlimit="1.5" stroke-linecap="round" stroke-linejoin="round"/>
<path d="M170.803 11.668C172.231 10.7098 173.835 9.6795 175.464 8.88672" stroke="#039855" stroke-width="1.85933" stroke-miterlimit="1.5" stroke-linecap="round" stroke-linejoin="round"/>
</g>
</g>
<defs>
<clipPath id="clip0_77_119">
<rect width="185" height="21" fill="white"/>
</clipPath>
<clipPath id="clip1_77_119">
<rect width="185" height="21" fill="white"/>
</clipPath>
</defs>
</svg>
