<svg width="20" height="19" viewBox="0 0 20 19" fill="none" xmlns="http://www.w3.org/2000/svg">
<path d="M4.94043 2.99905C4.94017 3.52948 4.7292 4.03808 4.35394 4.41297C3.97868 4.78785 3.46986 4.99831 2.93943 4.99805C2.409 4.99778 1.90039 4.78681 1.52551 4.41155C1.15062 4.03629 0.940165 3.52748 0.94043 2.99705C0.940695 2.46661 1.15166 1.95801 1.52692 1.58313C1.90218 1.20824 2.411 0.997782 2.94143 0.998047C3.47186 0.998312 3.98047 1.20928 4.35535 1.58454C4.73024 1.9598 4.9407 2.46861 4.94043 2.99905ZM5.00043 6.47905H1.00043V18.999H5.00043V6.47905ZM11.3204 6.47905H7.34043V18.999H11.2804V12.429C11.2804 8.76905 16.0504 8.42905 16.0504 12.429V18.999H20.0004V11.069C20.0004 4.89905 12.9404 5.12905 11.2804 8.15905L11.3204 6.47905Z" fill="#667085"/>
</svg>
