<svg width="88" height="40" viewBox="0 0 88 40" fill="none" xmlns="http://www.w3.org/2000/svg">
<path d="M10.5594 29.4457C8.85406 27.7429 8 25.2571 8 21.9857V10.5714C8 9.79143 8.2319 9.16857 8.69286 8.7C9.15666 8.23429 9.77317 8 10.5452 8C11.3173 8 11.9281 8.23429 12.3778 8.7C12.8303 9.16857 13.0537 9.79143 13.0537 10.5686V20.5029C13.0537 22.3714 13.4779 23.7971 14.3263 24.7743C15.1747 25.7543 16.402 26.2429 18.0112 26.2429C19.6175 26.2429 20.8533 25.7486 21.7102 24.7571C22.5699 23.7686 22.9998 22.3486 22.9998 20.5V10.5714C22.9998 9.79143 23.226 9.16857 23.6757 8.70286C24.1282 8.23429 24.739 8.00286 25.5082 8.00286C26.2803 8.00286 26.8968 8.23714 27.3578 8.70286C27.8216 9.17143 28.0506 9.79429 28.0506 10.5714V21.9857C28.0506 25.2343 27.1909 27.7171 25.4743 29.4286C23.7577 31.1429 21.2662 32 18.0083 32C14.7505 32 12.2675 31.1486 10.5594 29.4457Z" fill="url(#paint0_linear_512_24688)"/>
<path d="M66.7848 29.1225C66.7848 27.5195 65.4675 26.2279 63.8504 26.2422C63.3921 26.2479 62.1411 26.2507 61.9451 26.2507C60.305 26.2507 59.054 25.7621 58.1892 24.782C57.3245 23.8019 56.8921 22.3788 56.8921 20.5101V10.5717C56.8921 9.79164 56.6615 9.16871 56.2032 8.70294C55.7449 8.23431 55.1222 8 54.3382 8C53.5513 8 52.9229 8.23431 52.453 8.70008C51.9803 9.16871 51.7468 9.79164 51.7468 10.5689V21.9845C51.7468 25.2563 52.6173 27.7423 54.3555 29.4454C56.0936 31.1485 58.6273 32 61.948 32H63.8793C65.4848 32.0029 66.7848 30.7113 66.7848 29.1225Z" fill="url(#paint1_linear_512_24688)"/>
<path d="M40.1266 32C38.9888 32 37.8858 31.7785 36.8436 31.3412C35.839 30.9183 34.9387 30.3142 34.1657 29.5461C33.3927 28.7779 32.7847 27.8804 32.3592 26.885C31.9191 25.8493 31.6962 24.7532 31.6962 23.6226C31.6962 22.492 31.9191 21.396 32.3592 20.3603C32.7847 19.362 33.3927 18.4673 34.1657 17.6992C34.9387 16.9311 35.8419 16.327 36.8436 15.9041C37.8858 15.4668 38.9888 15.2453 40.1266 15.2453C41.2643 15.2453 42.3673 15.4668 43.4096 15.9041C44.4141 16.327 45.3145 16.9311 46.0875 17.6992C46.8605 18.4673 47.4684 19.3649 47.894 20.3603C48.334 21.396 48.557 22.492 48.557 23.6226C48.557 24.7532 48.334 25.8493 47.894 26.885C47.4684 27.8832 46.8605 28.7779 46.0875 29.5461C45.3145 30.3142 44.4113 30.9183 43.4096 31.3412C42.3673 31.7785 41.2614 32 40.1266 32ZM40.1266 20.133C38.1927 20.133 36.6178 21.698 36.6178 23.6198C36.6178 25.5415 38.1927 27.1065 40.1266 27.1065C42.0605 27.1065 43.6354 25.5415 43.6354 23.6198C43.6354 21.698 42.0605 20.133 40.1266 20.133Z" fill="url(#paint2_linear_512_24688)"/>
<path d="M71.5696 24.3019C70.4319 24.3019 69.3288 24.0864 68.2866 23.6609C67.2821 23.2494 66.3817 22.6616 65.6087 21.9143C64.8357 21.1669 64.2278 20.2936 63.8022 19.3251C63.3622 18.3174 63.1392 17.251 63.1392 16.1509C63.1392 15.0509 63.3622 13.9844 63.8022 12.9768C64.2278 12.0055 64.8357 11.135 65.6087 10.3876C66.3817 9.64027 67.2849 9.05246 68.2866 8.64099C69.3288 8.21553 70.4319 8 71.5696 8C72.7074 8 73.8104 8.21553 74.8526 8.64099C75.8572 9.05246 76.7575 9.64027 77.5305 10.3876C78.3035 11.135 78.9115 12.0083 79.337 12.9768C79.7771 13.9844 80 15.0509 80 16.1509C80 17.251 79.7771 18.3174 79.337 19.3251C78.9115 20.2964 78.3035 21.1669 77.5305 21.9143C76.7575 22.6616 75.8543 23.2494 74.8526 23.6609C73.8133 24.0864 72.7074 24.3019 71.5696 24.3019ZM71.5696 12.7556C69.6357 12.7556 68.0608 14.2784 68.0608 16.1481C68.0608 18.0179 69.6357 19.5406 71.5696 19.5406C73.5035 19.5406 75.0784 18.0179 75.0784 16.1481C75.0813 14.2784 73.5064 12.7556 71.5696 12.7556Z" fill="url(#paint3_linear_512_24688)"/>
<defs>
<linearGradient id="paint0_linear_512_24688" x1="40.8101" y1="8" x2="46.8853" y2="89.0623" gradientUnits="userSpaceOnUse">
<stop stop-color="#9556FC"/>
<stop offset="1" stop-color="#006CFF"/>
</linearGradient>
<linearGradient id="paint1_linear_512_24688" x1="40.8101" y1="8" x2="46.8853" y2="89.0623" gradientUnits="userSpaceOnUse">
<stop stop-color="#9556FC"/>
<stop offset="1" stop-color="#006CFF"/>
</linearGradient>
<linearGradient id="paint2_linear_512_24688" x1="40.8101" y1="8" x2="46.8853" y2="89.0623" gradientUnits="userSpaceOnUse">
<stop stop-color="#9556FC"/>
<stop offset="1" stop-color="#006CFF"/>
</linearGradient>
<linearGradient id="paint3_linear_512_24688" x1="40.8101" y1="8" x2="46.8853" y2="89.0623" gradientUnits="userSpaceOnUse">
<stop stop-color="#9556FC"/>
<stop offset="1" stop-color="#006CFF"/>
</linearGradient>
</defs>
</svg>
