<svg width="1440" height="624" viewBox="0 0 1440 624" fill="none" xmlns="http://www.w3.org/2000/svg">
<g clip-path="url(#clip0_1183_22455)">
<path d="M782.236 72.2057C788.358 85.3973 773.87 93.4902 758.803 105.898C751.814 111.649 745.301 118.785 738.483 122.708C716.956 135.092 705.419 127.182 700.588 113.562C695.617 99.5142 704.289 84.3833 727.649 72.6628C749.777 61.5664 775.541 57.8066 782.236 72.2057Z" fill="#F1ECFD"/>
<path d="M35.2337 281.092C29.3401 270.16 39.9471 263.558 50.6386 253.396C55.5988 248.685 60.0702 242.827 65.0521 239.627C80.7819 229.52 90.448 236.12 95.3715 247.398C100.44 259.03 94.9652 271.479 77.7498 281.027C61.4418 290.066 41.6765 293.024 35.2337 281.092Z" fill="#F1ECFD"/>
<path d="M856.832 469.03C858.66 444.295 822.2 445.978 806.362 429.867C763.342 386.106 738.194 375.58 723.21 400.188C716.553 411.121 715.35 456.249 802.987 475.697C822.157 478.263 855.766 483.456 856.832 469.03Z" fill="#E1D8FA"/>
<path d="M109.824 98.4442C127.939 136.056 89.3027 158.008 49.5531 192.104C31.1128 207.909 14.1196 227.65 -4.05005 238.302C-61.4185 271.934 -93.7304 248.897 -108.371 210.156C-123.437 170.198 -101.419 128.022 -38.9795 96.3763C20.1674 66.4163 90.0171 57.3886 109.824 98.4442Z" fill="#E1D8FA"/>
</g>
<defs>
<clipPath id="clip0_1183_22455">
<rect width="1440" height="624" fill="white"/>
</clipPath>
</defs>
</svg>
