<svg width="328" height="308" viewBox="0 0 328 308" fill="none" xmlns="http://www.w3.org/2000/svg">
<path d="M180.409 271.985C254.992 261.369 246.519 223.155 271.454 180.101C296.435 137.037 299.844 119.291 278.164 81.1104C256.483 42.9302 207.344 20.2805 159.641 50.2698C111.938 80.259 78.2687 69.4962 49.1883 93.1174C20.1527 116.728 15.0311 150.744 47.2598 182.122C79.4979 213.541 88.4932 285.055 180.409 271.985Z" fill="#E3DAFB"/>
<path d="M271.537 180.083C265.876 189.859 261.936 199.385 258.356 208.395M49.2713 93.0995C20.2358 116.711 15.1142 150.726 47.3429 182.104M106.69 257.723C91.4918 246.625 81.2756 231.149 71.8957 216.163M289.103 144.051C296.033 123.068 292.767 106.663 278.247 81.0926C270.472 67.4008 259.166 55.7061 245.661 47.7202" stroke="black" stroke-width="2.09399" stroke-linecap="round" stroke-linejoin="round"/>
<rect x="71.125" y="50.4951" width="133.177" height="225.606" rx="5.58398" transform="rotate(-14.5074 71.125 50.4951)" fill="white"/>
<rect opacity="0.5" x="101.941" y="133.889" width="115.288" height="23.8527" rx="7.67797" transform="rotate(-14.5074 101.941 133.889)" fill="#ECECEC"/>
<rect x="71.125" y="50.4951" width="133.177" height="225.606" rx="5.58398" transform="rotate(-14.5074 71.125 50.4951)" stroke="black" stroke-width="2.09399"/>
<rect opacity="0.5" x="94.2246" y="104.061" width="115.288" height="24.8465" rx="7.67797" transform="rotate(-14.5074 94.2246 104.061)" fill="#ECECEC"/>
<rect x="88.6426" y="66.1807" width="73.5189" height="7.26113" rx="3.63056" transform="rotate(-14.5074 88.6426 66.1807)" fill="#E3E3E3"/>
<rect x="91.8262" y="78.4805" width="22.691" height="7.26113" rx="3.63056" transform="rotate(-14.5074 91.8262 78.4805)" fill="#E3E3E3"/>
<path d="M175.344 172.344L86.221 206.554C84.4781 207.199 82.5457 206.364 81.9062 204.618L71.0203 176.003L68.2989 168.849L65.5774 161.696L60.1344 147.388C60.1114 147.298 60.1778 147.186 60.2673 147.162L155.288 110.651C155.378 110.628 155.49 110.694 155.513 110.784L177.285 168.014C177.924 169.76 177.064 171.609 175.344 172.344Z" fill="white"/>
<path d="M71.2839 176.964L68.3145 168.846M65.593 161.692L60.1501 147.384C60.127 147.295 60.1935 147.182 60.2829 147.158L155.304 110.647C155.393 110.624 155.506 110.69 155.529 110.78L177.3 168.01C177.94 169.756 177.079 171.605 175.359 172.34L86.2366 206.55C84.4937 207.195 82.5613 206.36 81.9219 204.615L73.2063 182.255" stroke="black" stroke-width="2.09399" stroke-linecap="round" stroke-linejoin="round"/>
<path d="M60.2532 147.158L90.3788 96.6012C92.1715 93.5545 95.812 92.1287 99.134 93.1747L154.933 110.558C155.045 110.624 155.068 110.714 154.979 110.737L60.0743 147.204" fill="white"/>
<path d="M60.2532 147.158L90.3788 96.6012C92.1715 93.5545 95.812 92.1287 99.134 93.1747L154.933 110.558C155.045 110.624 155.068 110.714 154.979 110.737L60.0743 147.204" stroke="black" stroke-width="2.09399" stroke-linejoin="round"/>
<path d="M60.8945 143.109L81.3323 149.531" stroke="black" stroke-width="2.09399"/>
<path d="M156.195 107.146L142.706 128.343" stroke="black" stroke-width="2.09399"/>
<path d="M66.4231 118.744C65.4241 116.213 66.6861 113.346 69.2288 112.37L119.822 92.9541C123.912 91.4107 128.314 92.9411 129.616 96.5221L143.129 132.013L129.541 153.051L106.703 161.869L79.7122 153.411L71.3422 131.21L66.4231 118.744Z" fill="#FF8F66" stroke="black" stroke-width="2.09399"/>
<path d="M83.0222 120.297L114.75 107.984" stroke="black" stroke-width="2.09399" stroke-linecap="round"/>
<path d="M85.2611 128.959L104.012 122.056" stroke="black" stroke-width="2.09399" stroke-linecap="round"/>
<path d="M109.896 154.758L90.3805 205.049L170.956 174.026L122.986 149.629C118.04 147.094 111.964 149.441 109.896 154.758Z" fill="white" stroke="black" stroke-width="2.09399"/>
<path d="M166.91 242.768C174.821 242.201 188.778 239.577 193.854 222.969" stroke="black" stroke-width="2.09399" stroke-linecap="round"/>
<path d="M226.127 207.411L253.58 127.009C258.935 111.328 250.581 94.2223 234.96 88.8797L225.445 85.6256C221.895 84.4114 217.89 86.3851 216.673 89.949L205.478 122.737C204.261 126.301 206.221 130.314 209.771 131.529L226.103 137.114C227.381 137.551 228.081 138.985 227.643 140.268L213.92 179.992C213.482 181.275 212.147 181.933 210.869 181.496L194.821 176.008C191.271 174.793 187.266 176.767 186.05 180.331L174.466 214.021C173.25 217.585 175.163 221.503 178.618 222.764L187.516 225.967C203.324 231.692 220.628 223.281 226.127 207.411Z" fill="white"/>
<path d="M252.899 126.679C258.219 110.906 249.796 93.6582 234.123 88.2327L224.577 84.928C221.015 83.6949 217.008 85.6703 215.798 89.255L204.674 122.234C203.465 125.819 205.441 129.866 209.003 131.099L225.388 136.771C226.67 137.215 227.376 138.66 226.941 139.951L213.304 179.907C212.868 181.197 211.532 181.856 210.25 181.412L194.15 175.838C190.588 174.605 186.58 176.58 185.371 180.165L173.861 214.052C172.652 217.636 174.581 221.587 178.047 222.867L186.975 226.118C202.836 231.929 220.155 223.512 225.619 207.549L243.606 155.986M250.336 135.488L246.926 145.597" stroke="black" stroke-width="2.09399" stroke-linecap="round"/>
<path d="M187.923 224.094L203.363 178.904L201.801 178.37L194.701 175.943C191.15 174.73 187.145 176.704 185.927 180.268L174.479 214.007C173.261 217.571 175.174 221.488 178.629 222.749L187.527 225.949L187.923 224.094Z" fill="#9760F2" stroke="black" stroke-width="2.09399" stroke-linecap="round" stroke-linejoin="round"/>
<path d="M216.497 131.858L232.367 87.8549L230.828 87.358L223.834 85.0996C220.336 83.9705 216.347 85.937 215.095 89.4072L203.28 122.166C202.029 125.637 203.87 129.408 207.273 130.584L216.036 133.569L216.497 131.858Z" fill="#9760F2" stroke="black" stroke-width="2.09399" stroke-linecap="round" stroke-linejoin="round"/>
</svg>
