<svg width="768" height="781" viewBox="0 0 768 781" fill="none" xmlns="http://www.w3.org/2000/svg">
<g clip-path="url(#clip0_77_2162)">
<path d="M145.496 84.2771C165.783 98.8097 152.397 121.94 141.991 151.835C137.161 165.696 134.223 181.213 128.024 192.265C108.451 227.158 85.1483 224.574 66.312 208.407C46.9013 191.725 45.8532 162.828 68.6067 127.477C90.1656 93.999 123.333 68.4239 145.496 84.2771Z" fill="#5A39D6"/>
<path d="M686.647 464.173C673.899 549.023 637.298 609.129 583.573 642.441C529.847 675.757 458.438 682.624 375.353 659.834C335.89 645.739 306.299 641.062 282.158 641.043C258.049 641.026 239.536 645.659 222.422 649.945L222.315 649.972C205.145 654.269 189.514 658.16 170.601 657.088C151.728 656.018 129.341 649.98 98.9498 633.948C49.335 606.036 30.8897 559.767 34.4297 507.165C37.9832 454.362 63.7371 395.347 102.479 343.07C141.823 289.981 153.666 245.926 163.377 207.475C163.647 206.404 163.917 205.339 164.183 204.278C173.511 167.274 181.404 135.965 210.699 105.917C240.822 75.1915 289.168 58.7366 340.614 60.0113C392.007 61.2846 446.112 80.2529 487.596 119.86L487.598 119.862C504.611 136.081 524.17 151.322 544.157 166.896C549.143 170.782 554.157 174.69 559.164 178.637C584.322 198.472 609.45 219.436 630.937 244.377C673.743 294.061 702.342 359.772 686.647 464.173Z" fill="white" stroke="#5A39D6" stroke-width="6.41333"/>
<path d="M310.946 154.396H102.662C98.6772 154.396 95.447 157.627 95.447 161.611V379.843C95.447 383.827 98.6772 387.058 102.662 387.058H310.946C314.931 387.058 318.161 383.827 318.161 379.843V161.611C318.161 157.627 314.931 154.396 310.946 154.396Z" fill="white" stroke="#846BFA" stroke-width="4.81"/>
<path d="M227.532 342.948L226.574 384.779H243.409L241.969 342.948H227.532Z" fill="white" stroke="black" stroke-width="3.20667" stroke-linejoin="round"/>
<path d="M236.684 267.357L256.968 338.6L249.926 345.757L256.968 354.279L219.921 358.541L236.684 267.357Z" fill="#FFB000" stroke="black" stroke-width="3.20667" stroke-linejoin="round"/>
<path d="M189.969 225.276L180.761 256.314L205.493 276.139L216.246 228.818L189.969 225.276Z" fill="white" stroke="black" stroke-width="1.60333"/>
<path d="M217.816 244.375L217.826 244.373C224.728 243.809 229.384 239.23 232.18 232.836C234.983 226.427 235.858 218.305 235.196 210.987C234.534 203.655 232.129 193.631 226.38 185.781C220.667 177.981 211.627 172.284 197.511 173.536H197.508C192.75 173.947 189.589 175.725 187.486 178.321C185.363 180.944 184.252 184.485 183.779 188.532C183.046 194.792 183.859 201.995 184.582 208.407C184.799 210.328 185.007 212.178 185.163 213.911C185.81 221.072 190.414 229.04 196.716 235.071C203.027 241.107 210.854 245.026 217.816 244.375Z" fill="white" stroke="black" stroke-width="1.60333"/>
<path d="M209.671 197.795C209.671 197.795 209.001 202.908 203.134 206.145L209.671 197.795Z" fill="black"/>
<path d="M209.671 197.795C209.671 197.795 209.001 202.908 203.134 206.145" stroke="#422E2D" stroke-width="1.60333" stroke-miterlimit="10"/>
<path d="M231.65 198.646C231.65 198.646 227.96 199.839 224.608 197.795L231.65 198.646Z" fill="black"/>
<path d="M231.65 198.646C231.65 198.646 227.96 199.839 224.608 197.795" stroke="#422E2D" stroke-width="1.60333" stroke-miterlimit="10"/>
<path d="M226.782 224.39C226.782 224.39 220.077 225.073 209.852 224.39C209.852 224.39 215.049 230.867 222.592 230.186C224.436 230.014 226.782 224.39 226.782 224.39Z" fill="black"/>
<path d="M210.013 213.997C208.902 213.997 208 212.318 208 210.248C208 208.177 208.902 206.498 210.013 206.498C211.124 206.498 212.023 208.177 212.023 210.248C212.023 212.318 211.124 213.997 210.013 213.997Z" fill="black"/>
<path d="M228.294 211.78C227.183 211.78 226.282 210.101 226.282 208.029C226.282 205.96 227.183 204.279 228.294 204.279C229.405 204.279 230.306 205.96 230.306 208.029C230.306 210.101 229.405 211.78 228.294 211.78Z" fill="black"/>
<path d="M221.922 210.243C221.922 210.243 223.431 216.549 230.806 216.038C230.806 216.147 227.053 220.957 224.42 219.953" stroke="black" stroke-width="1.60333" stroke-linecap="round" stroke-linejoin="round"/>
<path d="M179.838 220.118C161.735 198.134 154.861 193.36 179.838 175.636C179.838 175.636 182.352 158.933 203.809 164.217C237 172.568 230.798 175.636 231.972 193.872C231.972 193.872 214.035 196.258 199.618 187.566C199.618 187.566 199.116 197.962 193.248 203.075L194.255 214.154L179.838 220.118Z" fill="#5A39D6"/>
<path d="M179.835 175.632C179.835 175.632 177.656 171.03 179.835 166.259" stroke="#5A39D6" stroke-width="1.60333" stroke-miterlimit="10"/>
<path d="M181.347 178.199C181.347 178.199 173.469 174.621 172.798 170.872" stroke="#5A39D6" stroke-width="1.60333" stroke-miterlimit="10"/>
<path d="M176.384 221.231C174.255 215.507 176.11 209.491 180.527 207.793C184.943 206.095 190.248 209.358 192.378 215.082C194.507 220.804 192.652 226.82 188.235 228.518C183.817 230.216 178.512 226.953 176.384 221.231Z" fill="white"/>
<path fill-rule="evenodd" clip-rule="evenodd" d="M175.345 256.884L181.356 241.607L218.403 250.299L215.711 258.643H215.714L236.668 267.335L225.27 386.127H167.773L147.824 258.643L175.345 256.884Z" fill="#FFB000"/>
<path d="M175.345 256.884L176.838 257.473C176.61 258.05 176.068 258.446 175.448 258.485L175.345 256.884ZM181.356 241.608L179.864 241.021C180.155 240.279 180.947 239.865 181.722 240.046L181.356 241.608ZM218.403 250.3L218.768 248.738C219.205 248.841 219.578 249.121 219.799 249.511C220.019 249.902 220.066 250.365 219.928 250.792L218.403 250.3ZM215.711 258.643L215.62 260.243C215.124 260.216 214.669 259.96 214.388 259.549C214.108 259.14 214.032 258.624 214.185 258.151L215.711 258.643ZM215.714 258.643L215.806 257.043C215.985 257.053 216.163 257.093 216.33 257.162L215.714 258.643ZM236.668 267.335L237.284 265.855C237.933 266.125 238.332 266.787 238.265 267.489L236.668 267.335ZM225.27 386.128L226.865 386.282C226.787 387.104 226.096 387.731 225.27 387.731V386.128ZM167.773 386.128V387.731C166.982 387.731 166.311 387.155 166.189 386.376L167.773 386.128ZM147.824 258.643L146.24 258.892C146.171 258.446 146.292 257.992 146.574 257.64C146.855 257.289 147.272 257.072 147.722 257.043L147.824 258.643ZM173.854 256.298L179.864 241.021L182.849 242.195L176.838 257.473L173.854 256.298ZM181.722 240.046L218.768 248.738L218.036 251.861L180.991 243.168L181.722 240.046ZM219.928 250.792L217.237 259.136L214.185 258.151L216.877 249.807L219.928 250.792ZM215.802 257.042L215.806 257.043L215.624 260.243H215.62L215.802 257.042ZM216.33 257.162L237.284 265.855L236.054 268.816L215.1 260.125L216.33 257.162ZM238.265 267.489L226.865 386.282L223.673 385.975L235.073 267.183L238.265 267.489ZM225.27 387.731H167.773V384.524H225.27V387.731ZM166.189 386.376L146.24 258.892L149.408 258.395L169.357 385.881L166.189 386.376ZM147.722 257.043L175.243 255.286L175.448 258.485L147.927 260.243L147.722 257.043Z" fill="black"/>
<path d="M147.844 258.67L143.15 352.92L172.318 368.601L174.666 258.67H147.844Z" fill="#FFB000" stroke="black" stroke-width="3.20667" stroke-linejoin="round"/>
<path d="M184.72 243.166L194.443 240.099C195.616 239.757 196.287 238.564 195.951 237.371L188.239 212.146C187.904 210.953 186.731 210.272 185.559 210.613L175.836 213.681C174.662 214.022 173.992 215.215 174.327 216.408L182.038 241.632C182.206 242.824 183.546 243.507 184.72 243.166Z" fill="#E7E1FF"/>
<path d="M182.047 244.019L192.272 240.781C193.445 240.441 194.116 239.248 193.781 238.055L186.07 212.83C185.735 211.637 184.561 210.956 183.388 211.297L173.162 214.534C171.99 214.876 171.318 216.069 171.653 217.261L179.365 242.485C179.7 243.678 180.874 244.361 182.047 244.019Z" fill="#846BFA"/>
<path d="M182.541 217.09C181.707 217.09 181.032 216.403 181.032 215.555C181.032 214.709 181.707 214.022 182.541 214.022C183.375 214.022 184.05 214.709 184.05 215.555C184.05 216.403 183.375 217.09 182.541 217.09Z" fill="#5A39D6"/>
<path fill-rule="evenodd" clip-rule="evenodd" d="M178.51 215.215L168.788 223.906L168.793 223.91L168.777 223.906L177.159 242.483L181.35 244.529C184.962 238.625 183.933 234.211 181.299 231.016L181.356 231.054L178.506 227.645C183.702 223.725 181.691 219.977 181.691 219.977L176.157 226.889C175.135 226.308 174.116 225.822 173.173 225.422C183.68 221.702 180.846 216.74 180.846 216.74L178.9 218.329C179.304 216.52 178.51 215.215 178.51 215.215ZM148.994 349.003L177.157 242.653L181.347 244.699C181.347 244.699 185.371 326.847 167.098 358.378L148.994 349.003Z" fill="white"/>
<path d="M168.788 223.907L168.323 224.56C168.124 224.419 168.001 224.196 167.988 223.952C167.973 223.708 168.071 223.473 168.254 223.309L168.788 223.907ZM178.51 215.216L177.976 214.617C178.153 214.459 178.393 214.387 178.629 214.422C178.863 214.457 179.072 214.595 179.195 214.799L178.51 215.216ZM168.793 223.91L169.256 223.258C169.57 223.481 169.681 223.894 169.52 224.244C169.36 224.593 168.975 224.781 168.602 224.69L168.793 223.91ZM168.777 223.907L168.047 224.236C167.92 223.957 167.965 223.63 168.161 223.394C168.356 223.158 168.669 223.056 168.967 223.128L168.777 223.907ZM177.159 242.483L176.808 243.205C176.639 243.123 176.505 242.984 176.428 242.814L177.159 242.483ZM181.35 244.529L182.033 244.948C181.818 245.3 181.369 245.43 180.997 245.249L181.35 244.529ZM181.299 231.016L180.68 231.526C180.426 231.218 180.436 230.771 180.705 230.476C180.973 230.181 181.417 230.128 181.748 230.353L181.299 231.016ZM181.356 231.055L181.97 230.54C182.227 230.848 182.219 231.295 181.95 231.592C181.682 231.889 181.236 231.943 180.906 231.719L181.356 231.055ZM178.506 227.646L177.891 228.161C177.75 227.992 177.685 227.773 177.709 227.555C177.734 227.337 177.848 227.138 178.023 227.006L178.506 227.646ZM181.691 219.977L181.064 219.476C181.233 219.266 181.496 219.153 181.764 219.179C182.033 219.203 182.27 219.36 182.397 219.597L181.691 219.977ZM176.157 226.889L176.784 227.39C176.537 227.697 176.105 227.781 175.762 227.587L176.157 226.889ZM173.173 225.422L172.859 226.16C172.556 226.03 172.362 225.727 172.373 225.397C172.382 225.066 172.594 224.776 172.905 224.667L173.173 225.422ZM180.846 216.74L180.338 216.12C180.521 215.971 180.76 215.91 180.992 215.951C181.225 215.995 181.425 216.137 181.542 216.343L180.846 216.74ZM178.9 218.329L179.407 218.951C179.142 219.166 178.77 219.192 178.478 219.012C178.188 218.833 178.042 218.488 178.118 218.154L178.9 218.329ZM177.157 242.653L176.381 242.448C176.442 242.216 176.606 242.025 176.824 241.924C177.042 241.824 177.292 241.828 177.508 241.933L177.157 242.653ZM148.994 349.004L148.626 349.716C148.292 349.543 148.123 349.163 148.219 348.799L148.994 349.004ZM181.347 244.699L181.699 243.978C181.961 244.106 182.134 244.367 182.148 244.659L181.347 244.699ZM167.098 358.379L167.792 358.78C167.577 359.15 167.111 359.286 166.731 359.091L167.098 358.379ZM168.254 223.309L177.976 214.617L179.044 215.814L169.322 224.505L168.254 223.309ZM168.328 224.563L168.323 224.56L169.253 223.255L169.256 223.258L168.328 224.563ZM168.967 223.128L168.982 223.131L168.602 224.69L168.587 224.685L168.967 223.128ZM176.428 242.814L168.047 224.236L169.508 223.577L177.89 242.155L176.428 242.814ZM180.997 245.249L176.808 243.205L177.51 241.764L181.701 243.809L180.997 245.249ZM181.916 230.507C183.319 232.206 184.319 234.266 184.467 236.71C184.614 239.15 183.904 241.89 182.033 244.948L180.665 244.111C182.408 241.265 182.988 238.847 182.867 236.806C182.743 234.767 181.911 233.021 180.68 231.526L181.916 230.507ZM180.906 231.719L180.848 231.679L181.748 230.353L181.805 230.391L180.906 231.719ZM179.121 227.131L181.97 230.54L180.741 231.57L177.891 228.161L179.121 227.131ZM181.691 219.977C182.397 219.597 182.397 219.597 182.398 219.599C182.398 219.599 182.398 219.599 182.398 219.601L182.4 219.602C182.402 219.604 182.402 219.607 182.403 219.609C182.406 219.613 182.408 219.62 182.411 219.626C182.419 219.639 182.427 219.655 182.437 219.676C182.456 219.718 182.482 219.774 182.509 219.843C182.567 219.982 182.636 220.178 182.7 220.422C182.827 220.911 182.929 221.598 182.844 222.424C182.673 224.103 181.738 226.211 178.988 228.286L178.023 227.006C180.47 225.161 181.129 223.434 181.249 222.259C181.311 221.658 181.236 221.162 181.148 220.826C181.105 220.657 181.058 220.529 181.024 220.447C181.008 220.407 180.996 220.378 180.988 220.362C180.984 220.356 180.981 220.351 180.981 220.349C180.981 220.351 180.983 220.351 180.983 220.353C180.983 220.353 180.983 220.353 180.983 220.354C180.983 220.356 180.984 220.356 181.691 219.977ZM175.531 226.388L181.064 219.476L182.317 220.478L176.784 227.39L175.531 226.388ZM173.487 224.685C174.451 225.095 175.499 225.596 176.553 226.192L175.762 227.587C174.771 227.024 173.779 226.551 172.859 226.16L173.487 224.685ZM180.846 216.74C181.542 216.343 181.542 216.341 181.542 216.343C181.542 216.343 181.544 216.344 181.544 216.346C181.544 216.346 181.545 216.347 181.545 216.349C181.547 216.351 181.549 216.354 181.55 216.357C181.554 216.364 181.557 216.37 181.562 216.38C181.571 216.396 181.582 216.418 181.595 216.445C181.622 216.5 181.656 216.572 181.691 216.663C181.765 216.846 181.85 217.103 181.911 217.422C182.036 218.06 182.063 218.945 181.706 219.955C180.984 221.988 178.797 224.281 173.441 226.178L172.905 224.667C178.055 222.843 179.706 220.795 180.194 219.418C180.441 218.724 180.417 218.135 180.338 217.726C180.298 217.521 180.244 217.361 180.202 217.258C180.183 217.205 180.165 217.17 180.155 217.149C180.151 217.138 180.147 217.132 180.146 217.13C180.146 217.13 180.147 217.132 180.147 217.133C180.147 217.135 180.147 217.135 180.149 217.135C180.149 217.136 180.149 217.136 180.149 217.136C180.149 217.138 180.151 217.138 180.846 216.74ZM178.393 217.709L180.338 216.12L181.353 217.361L179.407 218.951L178.393 217.709ZM178.51 215.216C179.195 214.799 179.195 214.799 179.195 214.8C179.195 214.8 179.197 214.8 179.197 214.802C179.198 214.802 179.198 214.803 179.198 214.805C179.2 214.807 179.201 214.81 179.203 214.811C179.206 214.818 179.211 214.824 179.216 214.832C179.225 214.85 179.237 214.871 179.251 214.898C179.28 214.951 179.317 215.025 179.359 215.118C179.442 215.302 179.545 215.563 179.631 215.887C179.804 216.535 179.918 217.447 179.682 218.504L178.118 218.154C178.286 217.402 178.204 216.758 178.082 216.301C178.021 216.073 177.951 215.894 177.898 215.777C177.871 215.719 177.85 215.677 177.835 215.652C177.829 215.639 177.824 215.631 177.823 215.628C177.823 215.626 177.821 215.626 177.823 215.626V215.628L177.824 215.629V215.631C177.824 215.631 177.826 215.631 178.51 215.216ZM177.932 242.859L149.769 349.209L148.219 348.799L176.381 242.448L177.932 242.859ZM180.996 245.419L176.804 243.373L177.508 241.933L181.699 243.978L180.996 245.419ZM166.405 357.976C170.903 350.215 174.058 339.277 176.245 327.171C178.429 315.081 179.636 301.893 180.274 289.673C180.912 277.455 180.98 266.219 180.888 258.036C180.843 253.946 180.757 250.619 180.683 248.316C180.646 247.165 180.612 246.269 180.587 245.661C180.574 245.358 180.564 245.127 180.558 244.972C180.553 244.893 180.551 244.835 180.55 244.795C180.548 244.776 180.548 244.762 180.547 244.752C180.547 244.747 180.547 244.744 180.547 244.741C180.547 244.739 180.547 244.738 181.347 244.699C182.148 244.659 182.148 244.658 182.148 244.659C182.148 244.659 182.148 244.662 182.148 244.664C182.148 244.666 182.148 244.67 182.148 244.675C182.148 244.685 182.15 244.701 182.152 244.72C182.153 244.76 182.155 244.821 182.16 244.9C182.166 245.057 182.176 245.291 182.188 245.595C182.214 246.208 182.248 247.107 182.286 248.265C182.36 250.577 182.447 253.915 182.491 258.018C182.584 266.224 182.516 277.495 181.876 289.756C181.234 302.015 180.022 315.276 177.823 327.457C175.624 339.621 172.431 350.777 167.792 358.78L166.405 357.976ZM149.363 348.292L167.467 357.667L166.731 359.091L148.626 349.716L149.363 348.292Z" fill="black"/>
<path d="M260.465 410.541C252.939 410.541 246.836 416.643 246.836 424.169V496.319C246.836 503.845 252.939 509.948 260.465 509.948H335.632C343.158 509.948 349.261 503.845 349.261 496.319V436.286V419.916C349.261 414.739 345.063 410.541 339.886 410.541H260.465Z" fill="white" stroke="#846BFA" stroke-width="4.81"/>
<path d="M300.951 470.981L288.597 478.125C285.809 479.703 282.28 477.755 282.28 474.507V460.218V446.022C282.28 442.773 285.809 440.732 288.597 442.403L300.951 449.547L313.306 456.692C316.092 458.27 316.092 462.352 313.306 463.929L300.951 470.981Z" fill="#FFB000"/>
<path d="M257.128 246.984L281.492 227.263H435.478C445.65 227.263 454.165 218.846 454.165 208.265V182.532C454.165 172.19 445.885 163.532 435.478 163.532H275.815C265.644 163.532 257.128 171.95 257.128 182.532V246.984Z" fill="#E7E1FF"/>
<path d="M496.434 313.495L479.167 299.519H370.04C362.831 299.519 356.796 293.554 356.796 286.056V267.819C356.796 260.49 362.663 254.354 370.04 254.354H483.19C490.399 254.354 496.434 260.319 496.434 267.819V313.495Z" fill="#E7E1FF"/>
<path d="M531.552 308.912C534.944 297.221 542.153 286.974 552.093 279.754L556.052 276.866L552.659 345.895L526.559 325.912L531.552 308.912Z" fill="white" stroke="black" stroke-width="3.20667"/>
<path d="M447.643 392.374L453.439 381.149C454.899 378.308 457.537 376.212 460.647 375.327L477.702 370.669L521.613 342.956L526.559 325.954L552.659 345.936L552.424 350.78C551.954 360.516 545.922 369.132 536.876 372.998L494.239 391.163L473.981 391.628C467.431 393.865 465.217 399.408 461.165 397.405C459.658 396.66 465.547 387.064 465.547 387.064L455.748 397.731L447.643 392.374Z" fill="white" stroke="black" stroke-width="3.20667"/>
<path d="M522.113 342.541L527.846 349.216L526.804 350.09L521.071 343.415L522.113 342.541Z" fill="#030308"/>
<path d="M524.009 420.955L492.066 418.082C471.29 416.212 453.198 433.265 452.209 455.731L445 615.627L489.052 617.017L524.009 420.955Z" fill="#FFB000" stroke="black" stroke-width="3.20667"/>
<path d="M485.457 615.44L484.091 659.605H418.839L451.018 632.396L453.044 611.08L485.457 615.44Z" fill="white" stroke="black" stroke-width="3.20667"/>
<path d="M451.843 631.318L465.579 642.077L463.941 644.24L450.205 633.481L451.843 631.318Z" fill="black" stroke="black" stroke-width="3.20667"/>
<path d="M500.311 615.449L498.991 659.615H433.692L465.871 632.406L467.896 611.09L500.311 615.449Z" fill="white" stroke="black" stroke-width="3.20667"/>
<path d="M466.71 631.317L480.444 642.076L478.805 644.239L465.071 633.48L466.71 631.317Z" fill="black" stroke="black" stroke-width="3.20667"/>
<path d="M451.694 619.799H505.735L544.226 499.374L549.597 482.514L626.581 482.179C631.34 482.131 635.909 479.879 639.725 476.573C647.923 469.58 651.693 458.515 650.185 447.737L643.448 398.781L529.102 413.918C507.429 416.793 489.903 433.271 485.428 455.066L451.694 619.799Z" fill="#FFB000" stroke="black" stroke-width="3.20667"/>
<path d="M547.904 389.887C548.47 392.138 549.034 394.438 549.647 396.689L553.698 413.503L607.032 411.25L645.43 409.623C655.606 409.192 663.002 399.564 660.929 389.456L643.027 301.844C640.718 286.945 628.845 275.498 614.051 273.917L570.235 269.318L556.055 273.437C542.203 281.007 542.203 294.659 541.544 303.663C538.622 342.895 542.202 366.655 547.904 389.887Z" fill="white" stroke="black" stroke-width="3.20667"/>
<path d="M594.684 294.662C592.328 297.2 589.69 299.451 586.721 301.08C583.753 302.757 580.549 303.955 577.205 304.338C573.907 304.768 570.42 304.481 567.498 302.9C564.531 301.415 562.647 298.254 562.27 294.805L561.75 294.853C561.75 296.626 562.222 298.446 563.07 300.075C563.966 301.702 565.332 303.044 566.886 303.955C570.043 305.823 573.812 306.158 577.346 305.727C580.88 305.247 584.271 303.955 587.287 302.134C590.303 300.314 592.94 297.87 595.108 295.045L594.684 294.662Z" fill="#1B1B43"/>
<path d="M540.37 348.207L541.359 348.111C540.37 334.316 541.359 317.311 544.28 297.67L543.291 297.527C540.37 317.263 539.381 334.316 540.37 348.207Z" fill="#1B1B43"/>
<path d="M449.711 396.934H499.887V406.993H449.711V396.934Z" fill="#846BFA"/>
<path d="M362.783 406.985H463.654L417.247 316.834H316.423L362.783 406.985Z" fill="#846BFA"/>
<path d="M536.636 247.839C535.622 241.486 539.863 235.503 546.111 234.472C552.358 233.441 558.244 237.754 559.257 244.106C560.272 250.457 556.03 256.44 549.781 257.471C543.535 258.502 537.649 254.189 536.636 247.839Z" fill="#FFB000"/>
<path d="M536.006 268.17C536.006 269.621 537.992 270.729 540.535 270.729C543.08 270.729 545.066 269.621 545.066 268.17C545.066 266.721 543.08 265.611 540.535 265.611C537.992 265.611 536.006 266.806 536.006 268.17Z" fill="#FFB000"/>
<path d="M535.844 268.775C536.19 268.775 536.536 268.512 536.708 268.159C536.794 267.72 536.535 267.191 536.103 267.104C532.209 266.048 530.044 264.552 529.7 262.528C529.007 258.305 536.535 252.41 539.478 250.563C539.91 250.298 539.996 249.771 539.738 249.331C539.478 248.89 538.959 248.802 538.526 249.067C538.093 249.331 527.016 256.633 527.968 262.793C528.401 265.52 530.997 267.544 535.584 268.775C535.757 268.775 535.844 268.775 535.844 268.775Z" fill="#FFB000"/>
<path d="M583.554 197.225C595.38 185.394 617.665 190.375 617.335 210.255C641.646 216.769 643.012 243.882 633.212 257.821L624.779 258.491L622.942 248.384L618.042 258.684L594.391 260.216L583.554 197.225Z" fill="#5A39D6"/>
<path d="M563.811 241.532V279.374C563.811 279.709 563.811 280.044 563.857 280.381C564.423 288.188 571.867 293.649 579.453 291.684C590.618 288.763 598.391 278.463 598.298 266.729L598.109 241.532H563.811Z" fill="white" stroke="black" stroke-width="3.20667"/>
<path d="M543.642 244.314C544.16 247.332 544.867 250.397 545.763 253.319C548.731 262.9 554.054 270.899 563.618 269.509C586.046 266.253 598.577 242.733 598.577 242.733L583.219 224.866L572.9 210.782L541.994 224.338C542.041 224.338 541.853 233.966 543.642 244.314Z" fill="white" stroke="black" stroke-width="3.20667"/>
<path d="M591.939 236.694C582.093 236.358 574.462 231.281 571.21 216.767C571.21 216.767 548.266 236.886 537.006 226.155C527.583 217.151 543.554 196.408 570.033 193.966C579.69 193.056 589.302 196.121 596.841 202.3C609.655 212.743 610.88 237.077 598.912 245.461L591.939 236.694Z" fill="#5A39D6"/>
<path d="M603.495 211.309C604.154 208.962 603.636 206.328 602.6 204.077C601.563 201.824 599.915 199.813 597.982 198.281C596.05 196.746 593.742 195.645 591.386 195.119C588.983 194.64 586.44 194.688 584.272 195.693C586.533 196.459 588.513 197.226 590.397 198.185C592.235 199.142 593.977 200.243 595.579 201.537C597.181 202.783 598.641 204.219 600.008 205.8C601.232 207.381 602.411 209.106 603.495 211.309Z" fill="#FFA121"/>
<path d="M591.433 247.085C587.495 245.483 585.847 240.261 587.752 235.424C589.656 230.585 594.393 227.962 598.33 229.564C602.268 231.166 603.916 236.388 602.012 241.227C600.107 246.065 595.371 248.688 591.433 247.085Z" fill="#FFBC96"/>
<path d="M594.874 243.5C594.686 241.823 594.686 240.242 595.157 238.805C595.627 237.321 596.523 236.075 597.607 234.781L597.277 234.35C595.77 235.164 594.45 236.602 593.884 238.374C593.32 240.146 593.554 242.11 594.356 243.643L594.874 243.5Z" fill="#1B1B43"/>
<path d="M557.97 238.425C557.97 239.863 559.007 241.013 560.232 241.013C561.503 241.013 562.493 239.863 562.493 238.425C562.493 236.988 561.457 235.839 560.232 235.839C559.007 235.887 557.97 237.037 557.97 238.425Z" fill="black"/>
<path d="M546.014 240.475C546.155 241.72 547.192 242.63 548.322 242.486C549.453 242.343 550.206 241.242 550.065 239.948C549.924 238.702 548.888 237.793 547.756 237.936C546.674 238.08 545.873 239.181 546.014 240.475Z" fill="black"/>
<path d="M558.116 231.999C558.021 233.197 559.907 233.293 562.685 233.388C565.465 233.484 567.397 234.346 567.397 233.58C567.397 232.814 565.371 230.849 562.639 230.418C559.812 229.939 558.21 230.562 558.116 231.999Z" fill="black"/>
<path d="M549.207 233.152C549.397 234.348 548.029 234.636 545.956 235.02C543.883 235.403 542.565 236.456 542.47 235.69C542.376 234.923 543.695 232.815 545.674 232.049C547.747 231.282 548.972 231.762 549.207 233.152Z" fill="black"/>
<path d="M552.565 242.583C552.047 243.253 551.434 243.829 550.869 244.403L549.974 245.265C549.644 245.552 549.313 245.889 549.031 246.367C548.89 246.607 548.749 246.942 548.749 247.278C548.701 247.613 548.842 247.996 548.985 248.236C549.313 248.762 549.69 249.097 550.067 249.338C550.869 249.864 551.763 250.104 552.611 250.247L552.801 249.769C552.093 249.29 551.34 248.858 550.774 248.379C550.492 248.14 550.256 247.853 550.161 247.613C550.067 247.374 550.067 247.326 550.21 247.039C550.492 246.559 551.292 245.889 551.763 245.169C552.329 244.499 552.801 243.684 553.083 242.823L552.565 242.583Z" fill="black"/>
<path d="M563.96 251.052C562.594 252.633 561.133 254.117 559.437 255.076C557.742 256.035 555.762 256.322 553.69 256.081L553.548 256.609C554.537 257.04 555.669 257.279 556.799 257.231C557.93 257.185 559.06 256.848 560.049 256.274C562.029 255.124 563.49 253.351 564.385 251.34L563.96 251.052Z" fill="black"/>
<path d="M592.895 233.875C592.996 233.875 592.996 233.875 593.099 233.875C593.61 233.77 594.021 233.251 593.918 232.626C593.815 232.419 592.587 226.49 589.519 219.417C586.653 212.865 581.539 204.022 573.561 199.342C567.115 195.494 559.749 194.975 551.77 197.574C551.258 197.782 550.95 198.303 551.156 198.927C551.361 199.446 551.872 199.759 552.486 199.55C559.953 197.158 566.705 197.678 572.639 201.11C587.064 209.64 591.973 232.834 592.076 233.147C592.076 233.562 592.485 233.875 592.895 233.875Z" fill="#FFB000"/>
<path d="M583.432 239.801C581.978 233.54 585.792 227.264 591.951 225.786C598.111 224.308 604.282 228.185 605.736 234.447C607.19 240.708 603.376 246.984 597.218 248.462C591.059 249.94 584.888 246.063 583.432 239.801Z" fill="#FFB000"/>
<path d="M488.027 395.685C488.922 395.254 489.488 394.919 489.488 394.919L489.158 394.295C489.158 394.295 488.545 394.582 487.697 395.061L488.027 395.685Z" fill="#C5C5FF" stroke="black" stroke-width="3.20667"/>
<path d="M474.689 399.086C475.725 401.194 483.687 397.457 487.41 395.637C484.535 397.266 479.589 400.428 481.755 402.199C483.546 403.588 487.457 400.619 500.272 395.206C498.34 396.116 486.844 401.672 489.765 403.78C492.922 406.08 506.397 401.05 506.397 401.05L518.128 407.468H531.649L580.224 407.803C583.286 407.803 586.302 407.42 589.222 406.654C594.97 405.169 600.436 402.248 605.005 398.319C607.926 395.828 610.424 392.955 612.497 389.745C614.051 387.349 615.417 384.811 616.501 382.129L629.316 351.279L595.582 335.424L577.962 371.783L519.871 384.619L503.663 380.5C500.178 379.589 495.231 381.122 492.169 382.992C484.771 387.59 473.7 397.074 474.689 399.086Z" fill="white" stroke="black" stroke-width="3.20667"/>
<path d="M520.014 384.291C516.009 382.949 511.911 381.752 507.764 380.889C505.691 380.459 503.572 380.076 501.404 379.98C500.32 379.932 499.236 379.932 498.153 380.076C497.588 380.171 497.07 380.315 496.551 380.459C496.033 380.65 495.515 380.843 495.044 381.033C491.087 382.853 487.648 385.441 484.301 388.123C480.957 390.806 477.848 393.727 474.786 396.744L474.643 396.889L474.596 397.081C474.502 397.751 474.55 398.325 474.927 398.949C475.162 399.188 475.35 399.475 475.68 399.619C475.962 399.812 476.245 399.858 476.528 399.906C477.659 400.099 478.648 399.858 479.543 399.619C481.428 399.092 483.076 398.231 484.773 397.368C486.423 396.457 488.071 395.548 489.626 394.541C491.228 393.584 492.735 392.481 494.337 391.476L493.631 390.326C490.851 392.003 488.165 393.727 485.621 395.739C484.349 396.744 483.076 397.751 481.993 399.14C481.71 399.475 481.475 399.858 481.287 400.337C481.192 400.578 481.146 400.865 481.146 401.152C481.192 401.487 481.287 401.822 481.475 402.111C481.9 402.589 482.417 402.781 482.841 402.877C483.312 403.02 483.689 403.02 484.16 403.068H484.301L484.442 403.02L499.095 396.793L498.672 395.739C496.363 396.841 494.101 397.99 491.981 399.428C490.946 400.195 489.814 400.865 489.06 402.205C488.872 402.54 488.778 403.068 488.919 403.499C489.108 403.979 489.485 404.266 489.767 404.41C490.426 404.745 491.133 404.841 491.792 404.888C494.431 404.936 496.881 404.314 499.331 403.692C501.781 403.02 504.184 402.253 506.54 401.391L506.35 400.865C503.995 401.679 501.593 402.398 499.143 402.972C496.74 403.547 494.242 404.075 491.84 403.931C490.71 403.882 489.342 403.355 489.862 402.589C490.38 401.679 491.463 400.913 492.453 400.241C494.526 398.901 496.787 397.751 499.049 396.744L498.624 395.691L483.925 401.822L484.208 401.774C483.83 401.728 483.453 401.728 483.171 401.631C482.841 401.583 482.558 401.391 482.464 401.296C482.276 401.2 482.559 400.482 482.983 399.906C483.925 398.757 485.15 397.751 486.374 396.793C488.872 394.877 491.558 393.153 494.29 391.524L493.583 390.374C492.028 391.38 490.521 392.481 488.919 393.44C487.364 394.445 485.762 395.356 484.16 396.267C482.512 397.081 480.862 397.942 479.166 398.421C478.318 398.662 477.423 398.853 476.716 398.708L476.434 398.662C476.339 398.662 476.293 398.566 476.245 398.566C476.103 398.518 476.057 398.373 475.916 398.325C475.775 398.134 475.727 397.751 475.775 397.464L475.586 397.799C478.553 394.782 481.71 391.907 484.962 389.225C488.212 386.542 491.605 383.908 495.326 382.135L496.74 381.561C497.211 381.465 497.729 381.32 498.201 381.178C499.19 381.033 500.226 381.033 501.263 381.081C503.336 381.178 505.409 381.465 507.482 381.848C511.629 382.614 515.727 383.716 519.732 384.962L520.014 384.291Z" fill="black"/>
<path d="M629.127 351.709L629.551 350.752L596.241 335.135L610.141 302.131L609.198 301.699L594.923 335.663L629.127 351.709Z" fill="#1B1B43" stroke="black" stroke-width="1.60333"/>
<path d="M624.354 496.229H626.143V650.952H624.354V496.229Z" fill="#1B1B43"/>
<path d="M582.709 503.076H667.796C673.591 503.076 678.255 498.335 678.255 492.443C678.255 486.55 673.591 481.808 667.796 481.808H582.709C576.913 481.808 572.249 486.55 572.249 492.443C572.249 498.335 576.913 503.076 582.709 503.076Z" fill="#D1D1FF"/>
<path d="M589.445 661.005H661.009V659.233C661.009 650.418 653.944 643.233 645.274 643.233H605.18C596.512 643.233 589.445 650.418 589.445 659.233V661.005Z" fill="#D1D1FF"/>
<path d="M522.26 416.384L523.775 417.355L372.961 660.406L371.446 659.435L522.26 416.384Z" fill="#1B1B43"/>
<path d="M372.979 416.456L523.851 659.449L522.336 660.421L371.465 417.428L372.979 416.456Z" fill="#1B1B43"/>
<path d="M315.528 406.968H579.788V427.231H315.528V406.968Z" fill="#D1D1FF"/>
<path d="M390.982 175.653H293.421C289.879 175.653 287.008 178.525 287.008 182.067C287.008 185.609 289.879 188.48 293.421 188.48H390.982C394.524 188.48 397.395 185.609 397.395 182.067C397.395 178.525 394.524 175.653 390.982 175.653Z" fill="white"/>
<path d="M444.818 290.174H375.504C372.96 290.174 370.898 288.112 370.898 285.568C370.898 283.024 372.96 280.962 375.504 280.962H444.818C447.362 280.962 449.424 283.024 449.424 285.568C449.424 288.112 447.362 290.174 444.818 290.174Z" fill="white"/>
<path d="M334.211 199.703H293.421C289.879 199.703 287.008 202.574 287.008 206.116C287.008 209.658 289.879 212.53 293.421 212.53H334.211C337.753 212.53 340.625 209.658 340.625 206.116C340.625 202.574 337.753 199.703 334.211 199.703Z" fill="white"/>
<path d="M404.548 272.776H375.504C372.96 272.776 370.898 270.714 370.898 268.17C370.898 265.626 372.96 263.564 375.504 263.564H404.548C407.092 263.564 409.154 265.626 409.154 268.17C409.154 270.714 407.092 272.776 404.548 272.776Z" fill="white"/>
<path d="M402.021 199.703H361.231C357.689 199.703 354.818 202.574 354.818 206.116C354.818 209.658 357.689 212.53 361.231 212.53H402.021C405.563 212.53 408.434 209.658 408.434 206.116C408.434 202.574 405.563 199.703 402.021 199.703Z" fill="white"/>
<path d="M452.877 272.776H423.833C421.289 272.776 419.227 270.714 419.227 268.17C419.227 265.626 421.289 263.564 423.833 263.564H452.877C455.421 263.564 457.483 265.626 457.483 268.17C457.483 270.714 455.421 272.776 452.877 272.776Z" fill="white"/>
<path d="M132.728 484.295C125.201 484.295 119.099 490.397 119.099 497.923V570.073C119.099 577.599 125.201 583.702 132.728 583.702H206.317C213.845 583.702 219.945 577.599 219.945 570.073V510.04V493.67C219.945 488.492 215.749 484.295 210.572 484.295H132.728Z" fill="white" stroke="#846BFA" stroke-width="4.81"/>
<path d="M134.04 543.275C134.04 540.283 135.705 537.541 138.358 536.162L147.688 531.311C150.006 530.105 152.766 530.105 155.084 531.311L163.413 535.641C166.567 537.281 170.425 536.648 172.889 534.084L180.301 526.377C183.455 523.098 188.704 523.098 191.858 526.377L201.188 536.079C202.625 537.573 203.426 539.564 203.426 541.636V555.643C203.426 560.07 199.836 563.659 195.41 563.659H142.056C137.629 563.659 134.04 560.07 134.04 555.643V543.275Z" fill="#FFB000"/>
<path d="M162.426 520.369C166.78 520.369 170.311 516.78 170.311 512.353C170.311 507.925 166.78 504.336 162.426 504.336C158.071 504.336 154.541 507.925 154.541 512.353C154.541 516.78 158.071 520.369 162.426 520.369Z" fill="#FFB000"/>
</g>
<defs>
<clipPath id="clip0_77_2162">
<rect width="768" height="779.22" fill="white" transform="translate(0 0.889648)"/>
</clipPath>
</defs>
</svg>
