<svg width="768" height="640" viewBox="0 0 768 640" fill="none" xmlns="http://www.w3.org/2000/svg">
<g clip-path="url(#clip0_77_1860)">
<path d="M308.598 67.3927C318.69 82.8646 297.316 105.344 275.937 125.921C266.02 135.461 262.123 148.674 245.174 160.027C222.928 174.929 193.826 169.093 185.615 152.688C177.166 135.762 187.276 107.119 221.002 85.0417C252.949 64.1366 297.565 50.5081 308.598 67.3927Z" fill="#5A39D6"/>
<path d="M110.596 407.47C82.3729 306.584 153.107 283.815 252.594 213.769C298.749 181.305 322.47 88.4154 394.317 60.1467C538.873 -1.59296 601.384 95.8586 641.229 199.672C682.24 306.734 663.284 466.566 505.641 521.233C266.519 604.154 147.952 541.022 110.596 407.47Z" fill="white" stroke="#5A39D6" stroke-width="5.31484"/>
<path d="M382.125 177.432C369.027 176.905 357.5 182.708 349.641 191.676C347.807 193.786 345.449 194.839 342.829 194.839C337.851 194.839 333.66 190.619 333.66 185.609V131.541H197.696C176.477 131.541 159.448 148.684 159.448 170.048V306.931H333.66V252.863C333.66 247.852 337.851 243.632 342.829 243.632C345.449 243.632 348.069 244.952 349.903 246.797C357.5 255.502 368.503 261.04 381.077 261.04C404.655 261.04 423.779 241.258 422.469 217.257C421.422 195.631 403.606 177.96 382.125 177.432Z" fill="#FFB000"/>
<path fill-rule="evenodd" clip-rule="evenodd" d="M604.38 304.088H550.78H484.105H430.505V247.752C431.779 244.213 435.21 241.609 439.13 241.609C441.743 241.609 444.358 242.916 446.189 244.747C453.771 253.376 464.752 258.866 477.303 258.866C500.835 258.866 519.922 239.256 518.614 215.462C517.569 194.022 499.789 176.503 478.349 175.981C465.276 175.458 453.771 181.211 445.927 190.101C444.098 192.193 441.743 193.237 439.13 193.237C435.21 193.237 431.779 190.634 430.505 187.095V130.212H566.206C587.384 130.212 604.38 147.208 604.38 168.386V304.088Z" fill="#846BFA"/>
<path d="M122.726 521.496H316.531C319.406 521.496 321.563 519.197 321.419 516.321L316.818 377.725C316.674 374.849 314.374 372.549 311.499 372.549H117.838C114.963 372.549 112.806 374.849 112.95 377.725L117.55 516.321C117.55 519.197 119.851 521.496 122.726 521.496Z" fill="#407BFF" stroke="black" stroke-width="1.32871"/>
<path d="M124.304 521.494H318.108C320.983 521.494 323.14 519.194 322.996 516.319L318.396 377.722C318.251 374.847 315.951 372.547 313.076 372.547H119.416C116.54 372.547 114.384 374.847 114.528 377.722L119.128 516.319C119.128 519.194 121.429 521.494 124.304 521.494Z" fill="#407BFF" stroke="black" stroke-width="1.32871"/>
<g opacity="0.6">
<path d="M124.304 521.494H318.108C320.983 521.494 323.14 519.194 322.996 516.319L318.396 377.722C318.251 374.847 315.951 372.547 313.076 372.547H119.416C116.54 372.547 114.384 374.847 114.528 377.722L119.128 516.319C119.128 519.194 121.429 521.494 124.304 521.494Z" fill="#846BFA" stroke="black" stroke-width="1.32871"/>
</g>
<path d="M126.747 530.848H360.807C363.251 530.848 365.407 528.555 366.271 525.342C366.845 523.506 365.983 521.211 364.689 521.211H122.865C121.571 521.211 120.709 523.277 121.284 525.342C122.29 528.555 124.303 530.848 126.747 530.848Z" fill="#846BFA" stroke="black" stroke-width="1.32871"/>
<path opacity="0.6" d="M360.807 530.848H174.049C171.604 530.848 169.448 528.555 168.585 525.342C168.01 523.506 168.872 521.211 170.167 521.211H364.833C366.128 521.211 366.99 523.277 366.415 525.342C365.409 528.555 363.252 530.848 360.807 530.848Z" fill="#5A39D6" stroke="black" stroke-width="1.32871"/>
<path opacity="0.3" d="M249.237 524.887H297.832C298.982 524.887 299.988 523.281 299.988 521.446H247.08C247.08 523.281 247.943 524.887 249.237 524.887Z" fill="white" stroke="black" stroke-width="1.32871"/>
<path d="M318.4 511.292L314.087 382.761C314.087 381.61 313.08 380.748 312.074 380.748H121.001C119.851 380.748 118.989 381.61 119.132 382.761L123.446 511.292C123.446 512.441 124.452 513.305 125.458 513.305H316.531C317.538 513.305 318.544 512.441 318.4 511.292Z" fill="white" stroke="black" stroke-width="1.32871"/>
<path opacity="0.4" d="M214.88 376.86C214.88 377.722 215.599 378.297 216.461 378.297C217.324 378.297 217.899 377.578 217.899 376.86C217.899 375.997 217.18 375.422 216.318 375.422C215.599 375.422 214.88 376.141 214.88 376.86Z" fill="white" stroke="black" stroke-width="1.32871"/>
<path fill-rule="evenodd" clip-rule="evenodd" d="M254.836 328.847C255.852 330.429 256.888 332.066 257.936 333.722C260.151 337.224 262.42 340.812 264.691 344.157C268.034 349.261 271.554 354.365 275.074 359.291C282.113 369.323 289.328 379.002 297.247 387.802C301.119 392.201 305.166 396.248 309.39 399.593L310.974 400.824C311.116 400.895 311.23 400.996 311.35 401.101C311.527 401.256 311.715 401.424 312.03 401.527C312.733 402.056 313.79 402.584 314.846 403.111C316.957 404.167 319.597 405.224 322.238 406.103C324.876 406.983 327.692 407.862 330.509 408.567C333.324 409.271 336.315 409.975 339.307 410.679C345.115 411.911 351.274 413.143 357.257 414.022V414.301L375.045 417.373L375.038 417.383L386.992 428.81L379.25 437.61L364.479 434.268C362.6 434.528 356.267 431.446 351.405 427.021C351.136 427.045 350.866 427.069 350.596 427.094C349.543 427.189 348.481 427.284 347.402 427.397L346.925 427.422C343.756 427.59 340.732 427.749 337.547 427.749C330.86 427.749 324.349 427.397 317.309 426.165C313.79 425.461 310.27 424.757 306.75 423.525C304.814 422.821 303.055 422.118 301.119 421.062C300.803 420.872 300.465 420.683 300.112 420.485C299.481 420.132 298.804 419.753 298.127 419.303L295.84 417.718C289.856 413.495 284.929 408.743 280.177 403.992C270.85 394.312 262.755 384.282 255.011 373.723C251.14 368.444 247.444 363.163 243.925 357.884C243.29 356.9 242.654 355.921 242.021 354.944C239.14 350.506 236.282 346.101 233.542 341.342L254.836 328.847Z" fill="white"/>
<path d="M254.836 328.846L255.394 328.488C255.201 328.187 254.807 328.093 254.5 328.274L254.836 328.846ZM264.691 344.157L265.246 343.793L265.24 343.784L264.691 344.157ZM275.074 359.291L275.617 358.91L275.614 358.906L275.074 359.291ZM297.247 387.801L297.747 387.362L297.741 387.356L297.247 387.801ZM309.39 399.592L308.978 400.113L308.982 400.116L309.39 399.592ZM310.974 400.824L310.566 401.348C310.601 401.376 310.638 401.398 310.676 401.418L310.974 400.824ZM312.03 401.527L312.429 400.995C312.372 400.953 312.308 400.92 312.24 400.897L312.03 401.527ZM339.307 410.679L339.155 411.325L339.169 411.329L339.307 410.679ZM357.257 414.022H357.921C357.921 413.693 357.68 413.414 357.354 413.364L357.257 414.022ZM357.257 414.301H356.593C356.593 414.624 356.825 414.9 357.144 414.955L357.257 414.301ZM375.044 417.373L375.608 417.725C375.725 417.538 375.741 417.304 375.65 417.102C375.56 416.9 375.375 416.757 375.157 416.718L375.044 417.373ZM375.038 417.382L374.474 417.03C374.308 417.297 374.351 417.646 374.579 417.863L375.038 417.382ZM386.992 428.809L387.492 429.249C387.727 428.981 387.71 428.576 387.452 428.33L386.992 428.809ZM379.25 437.609L379.102 438.257C379.34 438.311 379.587 438.23 379.748 438.048L379.25 437.609ZM364.479 434.268L364.626 433.621C364.548 433.602 364.468 433.599 364.388 433.61L364.479 434.268ZM351.405 427.021L351.852 426.529C351.714 426.404 351.53 426.342 351.344 426.359L351.405 427.021ZM347.402 427.397L347.438 428.06C347.448 428.06 347.46 428.059 347.472 428.057L347.402 427.397ZM346.925 427.422V428.087C346.937 428.087 346.949 428.087 346.961 428.085L346.925 427.422ZM346.925 427.422V426.758C346.913 426.758 346.902 426.758 346.89 426.759L346.925 427.422ZM317.309 426.165L317.179 426.816L317.195 426.819L317.309 426.165ZM306.75 423.525L306.523 424.15L306.531 424.152L306.75 423.525ZM301.119 421.062L300.778 421.632C300.785 421.636 300.793 421.641 300.801 421.645L301.119 421.062ZM300.112 420.485L299.782 421.062L299.788 421.066L300.112 420.485ZM300.112 420.485L299.774 421.058L299.782 421.062L300.112 420.485ZM300.112 420.485L300.448 419.912L300.436 419.906L300.112 420.485ZM298.127 419.302L297.749 419.849L297.759 419.855L298.127 419.302ZM295.84 417.717L295.456 418.261L295.461 418.265L295.84 417.717ZM280.177 403.992L279.699 404.453L279.707 404.461L280.177 403.992ZM243.925 357.884L243.367 358.244L243.372 358.252L243.925 357.884ZM242.021 354.944L241.46 355.301L241.463 355.305L242.021 354.944ZM242.021 354.944L241.441 355.269C241.448 355.28 241.453 355.29 241.46 355.301L242.021 354.944ZM242.021 354.944L242.6 354.618C242.592 354.606 242.585 354.594 242.577 354.582L242.021 354.944ZM233.542 341.342L233.206 340.769C232.891 340.954 232.783 341.356 232.965 341.673L233.542 341.342ZM258.497 333.367C257.45 331.711 256.413 330.072 255.394 328.488L254.277 329.207C255.292 330.786 256.327 332.421 257.374 334.078L258.497 333.367ZM265.24 343.784C262.977 340.449 260.713 336.871 258.497 333.367L257.374 334.078C259.587 337.577 261.864 341.174 264.141 344.531L265.24 343.784ZM275.614 358.906C272.099 353.984 268.584 348.887 265.246 343.793L264.134 344.521C267.484 349.633 271.009 354.744 274.533 359.678L275.614 358.906ZM297.741 387.356C289.849 378.587 282.651 368.932 275.617 358.91L274.53 359.674C281.575 369.712 288.808 379.417 296.754 388.245L297.741 387.356ZM309.802 399.072C305.619 395.759 301.601 391.742 297.747 387.362L296.749 388.24C300.637 392.658 304.713 396.737 308.978 400.113L309.802 399.072ZM311.382 400.299L309.798 399.068L308.982 400.116L310.566 401.348L311.382 400.299ZM311.79 400.602C311.68 400.505 311.503 400.346 311.272 400.229L310.676 401.418C310.73 401.445 310.781 401.484 310.912 401.599L311.79 400.602ZM312.24 400.897C312.064 400.839 311.961 400.754 311.79 400.602L310.912 401.599C311.091 401.758 311.367 402.007 311.82 402.158L312.24 400.897ZM315.142 402.517C314.066 401.979 313.073 401.48 312.429 400.995L311.632 402.058C312.394 402.631 313.513 403.188 314.548 403.706L315.142 402.517ZM322.447 405.473C319.829 404.6 317.219 403.556 315.142 402.517L314.548 403.706C316.695 404.778 319.365 405.847 322.026 406.733L322.447 405.473ZM330.67 407.922C327.877 407.224 325.08 406.35 322.447 405.473L322.026 406.733C324.673 407.615 327.507 408.501 330.347 409.211L330.67 407.922ZM339.459 410.032C336.467 409.328 333.48 408.625 330.67 407.922L330.347 409.211C333.167 409.916 336.164 410.622 339.155 411.325L339.459 410.032ZM357.354 413.364C351.392 412.489 345.249 411.26 339.446 410.029L339.169 411.329C344.98 412.561 351.156 413.796 357.161 414.68L357.354 413.364ZM357.921 414.301V414.022H356.593V414.301H357.921ZM375.157 416.718L357.37 413.646L357.144 414.955L374.932 418.028L375.157 416.718ZM375.601 417.735L375.608 417.725L374.481 417.021L374.474 417.03L375.601 417.735ZM374.579 417.863L386.534 429.29L387.452 428.33L375.498 416.903L374.579 417.863ZM386.494 428.371L378.75 437.17L379.748 438.048L387.492 429.249L386.494 428.371ZM379.396 436.961L364.626 433.621L364.332 434.916L379.102 438.257L379.396 436.961ZM350.958 427.513C353.434 429.766 356.279 431.674 358.749 432.988C359.984 433.645 361.136 434.16 362.111 434.496C363.053 434.82 363.932 435.014 364.57 434.927L364.388 433.61C364.087 433.653 363.469 433.558 362.544 433.239C361.651 432.932 360.564 432.449 359.372 431.815C356.99 430.546 354.238 428.7 351.852 426.529L350.958 427.513ZM350.656 427.756C350.926 427.73 351.195 427.707 351.465 427.683L351.344 426.359C351.076 426.383 350.807 426.407 350.536 426.432L350.656 427.756ZM347.472 428.057C348.545 427.944 349.601 427.85 350.656 427.756L350.536 426.432C349.484 426.527 348.418 426.622 347.333 426.737L347.472 428.057ZM346.961 428.085L347.438 428.06L347.367 426.734L346.89 426.759L346.961 428.085ZM337.547 428.413C340.752 428.413 343.793 428.253 346.96 428.085L346.89 426.759C343.719 426.927 340.712 427.085 337.547 427.085V428.413ZM317.195 426.819C324.284 428.06 330.836 428.413 337.547 428.413V427.085C330.885 427.085 324.414 426.734 317.424 425.51L317.195 426.819ZM306.531 424.152C310.101 425.403 313.666 426.113 317.179 426.816L317.44 425.514C313.913 424.809 310.439 424.112 306.969 422.898L306.531 424.152ZM300.801 421.645C302.779 422.724 304.574 423.441 306.523 424.15L306.977 422.901C305.055 422.202 303.33 421.511 301.437 420.478L300.801 421.645ZM299.788 421.066C300.142 421.264 300.472 421.448 300.778 421.632L301.46 420.492C301.135 420.296 300.788 420.102 300.436 419.906L299.788 421.066ZM297.759 419.855C298.46 420.323 299.159 420.714 299.786 421.064L300.436 419.906C299.804 419.551 299.149 419.184 298.496 418.748L297.759 419.855ZM295.461 418.265L297.749 419.849L298.505 418.755L296.217 417.171L295.461 418.265ZM279.707 404.461C284.462 409.216 289.424 414.002 295.456 418.261L296.223 417.175C290.289 412.987 285.395 408.27 280.646 403.521L279.707 404.461ZM254.476 374.116C262.232 384.691 270.345 394.747 279.699 404.453L280.656 403.531C271.355 393.879 263.279 383.872 255.547 373.329L254.476 374.116ZM243.372 358.252C246.897 363.54 250.599 368.827 254.476 374.116L255.547 373.329C251.682 368.058 247.992 362.786 244.477 357.515L243.372 358.252ZM241.463 355.305C242.098 356.283 242.731 357.261 243.367 358.244L244.483 357.524C243.848 356.538 243.211 355.559 242.577 354.582L241.463 355.305ZM232.965 341.673C235.716 346.451 238.585 350.87 241.463 355.305L242.577 354.582C239.697 350.142 236.848 345.752 234.117 341.009L232.965 341.673ZM254.5 328.274L233.206 340.769L233.878 341.914L255.172 329.419L254.5 328.274Z" fill="black"/>
<path d="M225.277 332.194C223.518 347.68 260.298 384.637 260.298 384.637L285.287 363.87C285.287 363.87 273.496 343.633 261.178 328.322C246.923 310.723 227.213 314.772 225.277 332.194Z" fill="#5A39D6" stroke="black" stroke-width="1.32871"/>
<path d="M245.326 317.42C245.326 317.42 266.444 367.047 251.31 459.613C224.735 459.613 176.164 459.613 163.318 459.613C162.262 446.063 168.422 380.245 153.287 316.54C153.287 316.54 168.245 313.548 182.676 312.844C193.939 312.316 210.129 311.964 219.984 312.844C233.007 314.076 245.326 317.42 245.326 317.42Z" fill="#5A39D6" stroke="black" stroke-width="1.32871"/>
<path fill-rule="evenodd" clip-rule="evenodd" d="M181.322 260.882C181.027 259.43 180.722 257.92 180.392 256.347C177.049 240.332 191.128 226.43 207.671 231.005C224.389 235.757 230.196 259.338 228.788 274.297C227.802 285.879 218.19 294.011 207.681 294.04C206.512 302.174 208.073 310.081 219.823 312.829C219.823 312.829 233.023 322.86 208.384 322.86C186.034 322.86 182.516 312.829 182.516 312.829C188.867 306.615 188.392 291.626 186.534 279.677C184.115 274.65 182.886 268.594 181.322 260.882Z" fill="white"/>
<path d="M207.671 231.004L207.851 230.366L207.847 230.365L207.671 231.004ZM228.788 274.296L228.126 274.234V274.24L228.788 274.296ZM207.681 294.04L207.68 293.375L207.106 293.377L207.024 293.945L207.681 294.04ZM219.823 312.829L220.226 312.299L220.113 312.214L219.975 312.182L219.823 312.829ZM182.516 312.829L182.051 312.353L181.748 312.649L181.888 313.048L182.516 312.829ZM186.534 279.676L187.19 279.574L187.175 279.477L187.133 279.388L186.534 279.676ZM179.743 256.482C180.071 258.053 180.376 259.562 180.671 261.013L181.973 260.75C181.679 259.298 181.372 257.786 181.043 256.211L179.743 256.482ZM207.847 230.365C190.816 225.653 176.3 239.99 179.743 256.482L181.043 256.211C177.799 240.673 191.439 227.205 207.493 231.645L207.847 230.365ZM229.45 274.359C230.163 266.78 229.051 257.038 225.643 248.575C222.237 240.118 216.488 232.82 207.851 230.366L207.489 231.643C215.571 233.941 221.084 240.81 224.41 249.071C227.734 257.326 228.821 266.854 228.126 274.234L229.45 274.359ZM207.683 294.704C218.526 294.673 228.435 286.288 229.45 274.353L228.126 274.24C227.171 285.471 217.853 293.347 207.68 293.375L207.683 294.704ZM219.975 312.182C214.24 310.841 211.101 308.274 209.499 305.152C207.878 301.995 207.762 298.148 208.339 294.134L207.024 293.945C206.431 298.066 206.511 302.24 208.317 305.757C210.14 309.309 213.657 312.069 219.672 313.475L219.975 312.182ZM208.384 323.524C214.567 323.524 218.471 322.898 220.824 321.904C222.008 321.404 222.845 320.793 223.367 320.077C223.9 319.349 224.072 318.56 224.005 317.786C223.874 316.301 222.861 314.906 221.993 313.949C221.545 313.456 221.107 313.045 220.78 312.76C220.616 312.616 220.481 312.503 220.384 312.425C220.336 312.385 220.297 312.356 220.27 312.335C220.256 312.324 220.246 312.316 220.239 312.309C220.235 312.307 220.232 312.304 220.23 312.303C220.228 312.301 220.227 312.301 220.227 312.3C220.227 312.3 220.226 312.299 219.823 312.829C219.422 313.358 219.421 313.358 219.421 313.356C219.421 313.358 219.422 313.358 219.422 313.358C219.423 313.359 219.425 313.36 219.427 313.362C219.433 313.366 219.44 313.371 219.451 313.38C219.472 313.396 219.506 313.423 219.547 313.457C219.632 313.526 219.755 313.627 219.904 313.759C220.203 314.021 220.603 314.395 221.008 314.842C221.845 315.765 222.592 316.88 222.681 317.902C222.724 318.383 222.621 318.847 222.295 319.293C221.958 319.754 221.351 320.239 220.307 320.68C218.206 321.566 214.522 322.195 208.384 322.195V323.524ZM182.516 312.829C181.888 313.048 181.888 313.049 181.888 313.049C181.888 313.049 181.888 313.051 181.89 313.051C181.89 313.052 181.89 313.053 181.891 313.055C181.891 313.057 181.892 313.061 181.894 313.065C181.898 313.073 181.902 313.084 181.906 313.097C181.916 313.122 181.93 313.157 181.948 313.201C181.985 313.289 182.041 313.409 182.118 313.561C182.272 313.864 182.514 314.285 182.876 314.785C183.599 315.785 184.79 317.094 186.694 318.392C190.504 320.992 197.11 323.524 208.384 323.524V322.195C197.309 322.195 190.981 319.71 187.444 317.295C185.673 316.087 184.588 314.887 183.953 314.006C183.634 313.566 183.427 313.204 183.302 312.958C183.238 312.834 183.197 312.741 183.172 312.681C183.159 312.651 183.151 312.63 183.145 312.618C183.143 312.611 183.141 312.607 183.141 312.606C183.14 312.604 183.14 312.606 183.141 312.606C183.141 312.607 183.141 312.608 182.516 312.829ZM185.877 279.778C186.803 285.727 187.379 292.407 186.942 298.354C186.5 304.334 185.045 309.423 182.051 312.353L182.979 313.303C186.337 310.019 187.82 304.507 188.266 298.452C188.714 292.364 188.124 285.574 187.19 279.574L185.877 279.778ZM180.671 261.013C182.23 268.701 183.474 274.848 185.936 279.964L187.133 279.388C184.757 274.453 183.543 268.487 181.973 260.75L180.671 261.013Z" fill="black"/>
<path d="M209.956 323.754L215.235 329.385C215.587 329.737 215.587 330.265 215.41 330.617L212.772 336.072C212.595 336.424 212.243 336.777 211.891 336.777L207.843 336.952C207.491 336.952 207.139 336.777 206.787 336.424L203.092 331.144C202.74 330.792 202.74 330.089 203.092 329.737L208.196 323.754C208.548 323.402 209.427 323.402 209.956 323.754Z" fill="white"/>
<path d="M209.081 322.873C205.033 328.856 204.858 336.423 204.858 336.423C204.858 336.423 176.348 326.743 177.579 312.313C177.579 312.313 182.331 310.025 184.971 308.089C184.796 308.089 185.675 317.24 209.081 322.873Z" fill="#263238"/>
<path d="M209.081 322.874C213.128 328.857 214.535 335.545 214.535 335.545C214.535 335.545 227.734 326.394 224.038 312.315C224.038 312.315 219.815 311.435 216.295 310.731C216.119 310.731 217.703 319.883 209.081 322.874Z" fill="#263238"/>
<path d="M212.249 336.247C214.01 342.055 227.208 385.347 227.56 395.73C227.56 395.906 227.56 395.905 227.56 395.905C226.328 401.538 220.873 411.216 218.585 415.088C218.234 415.792 217.178 415.615 217.001 414.912C215.417 411.216 211.722 402.065 209.259 396.786C209.259 396.609 209.259 396.609 209.259 396.434C208.027 377.603 207.85 348.038 207.146 336.247C207.146 335.72 207.498 335.192 208.027 335.192H211.37C211.722 335.543 212.074 335.895 212.249 336.247Z" fill="white"/>
<path d="M182.505 268.494L189.192 263.918L189.544 260.046C190.249 254.415 189.192 248.607 186.552 243.504C186.552 243.504 219.285 244.735 223.334 234.53C227.381 224.322 215.942 216.579 215.942 216.579C215.942 216.579 204.326 223.266 196.584 223.794C188.84 224.322 164.906 214.643 164.906 234.705C154.348 238.048 154.524 255.471 182.505 268.494Z" fill="#5A39D6"/>
<path d="M165.952 235.59C165.952 235.59 161.553 232.07 164.896 221.688C161.024 223.623 159.089 234.358 165.952 235.59Z" fill="#5A39D6"/>
<path d="M175.639 275.002C178.456 278.522 182.679 280.282 186.199 280.81C191.654 281.339 193.238 276.41 190.95 271.659C188.839 267.435 183.383 262.156 178.28 263.74C173.353 265.324 172.472 270.955 175.639 275.002Z" fill="white"/>
<path fill-rule="evenodd" clip-rule="evenodd" d="M163.148 458.912C163.148 458.912 164.205 482.266 165.436 513.108H202.579H220.343H258.717C254.493 481.91 251.326 458.912 251.326 458.912H219.991H193.427H163.148Z" fill="white"/>
<mask id="mask0_77_1860" style="mask-type:luminance" maskUnits="userSpaceOnUse" x="163" y="458" width="96" height="56">
<path fill-rule="evenodd" clip-rule="evenodd" d="M163.148 458.912C163.148 458.912 164.205 482.266 165.436 513.108H202.579H220.343H258.717C254.493 481.91 251.326 458.912 251.326 458.912H219.991H193.427H163.148Z" fill="white"/>
</mask>
<g mask="url(#mask0_77_1860)">
<path d="M165.436 513.109L164.109 513.162L164.159 514.437H165.436V513.109ZM163.148 458.912V457.583H161.758L161.821 458.971L163.148 458.912ZM258.717 513.109V514.437H260.237L260.034 512.93L258.717 513.109ZM251.326 458.912L252.642 458.73L252.484 457.583H251.326V458.912ZM166.764 513.057C166.149 497.633 165.576 484.083 165.157 474.387C164.949 469.54 164.779 465.656 164.66 462.984C164.601 461.648 164.555 460.615 164.524 459.916C164.508 459.567 164.496 459.3 164.488 459.122C164.484 459.033 164.481 458.965 164.478 458.92C164.478 458.897 164.477 458.88 164.477 458.869C164.477 458.863 164.476 458.859 164.476 458.856C164.476 458.855 164.476 458.853 164.476 458.853C164.476 458.852 164.476 458.852 164.476 458.852C164.476 458.852 164.476 458.852 163.148 458.912C161.821 458.972 161.821 458.971 161.821 458.971V458.973C161.821 458.973 161.821 458.974 161.821 458.975C161.821 458.978 161.822 458.983 161.822 458.989C161.822 458.999 161.824 459.017 161.824 459.039C161.826 459.084 161.829 459.152 161.833 459.241C161.841 459.419 161.853 459.685 161.869 460.034C161.901 460.733 161.946 461.766 162.006 463.101C162.124 465.772 162.294 469.656 162.503 474.501C162.921 484.194 163.492 497.742 164.109 513.162L166.764 513.057ZM202.579 511.78H165.436V514.437H202.579V511.78ZM220.343 511.78H202.579V514.437H220.343V511.78ZM258.717 511.78H220.343V514.437H258.717V511.78ZM251.326 458.912C250.01 459.092 250.01 459.092 250.01 459.094C250.01 459.095 250.01 459.095 250.01 459.096C250.01 459.1 250.011 459.104 250.011 459.11C250.013 459.12 250.015 459.138 250.018 459.16C250.025 459.204 250.034 459.27 250.046 459.358C250.07 459.535 250.106 459.797 250.154 460.142C250.249 460.832 250.389 461.852 250.571 463.173C250.934 465.817 251.461 469.666 252.121 474.491C253.441 484.14 255.289 497.689 257.4 513.288L260.034 512.93C257.921 497.33 256.074 483.78 254.754 474.131C254.095 469.305 253.566 465.456 253.203 462.811C253.021 461.489 252.881 460.469 252.787 459.779C252.739 459.435 252.703 459.172 252.678 458.997C252.666 458.908 252.657 458.841 252.652 458.797C252.648 458.775 252.646 458.758 252.645 458.747C252.644 458.742 252.644 458.738 252.642 458.735C252.642 458.734 252.642 458.732 252.642 458.731C252.642 458.73 252.642 458.73 251.326 458.912ZM219.991 460.24H251.326V457.583H219.991V460.24ZM193.427 460.24H219.991V457.583H193.427V460.24ZM163.148 460.24H193.427V457.583H163.148V460.24Z" fill="black"/>
</g>
<path d="M205.555 258.114C205.732 259.346 206.612 260.401 207.491 260.401C208.371 260.225 208.9 259.169 208.723 257.937C208.548 256.706 207.668 255.649 206.787 255.649C205.908 255.826 205.38 256.881 205.555 258.114Z" fill="#263238"/>
<path d="M220.511 256.525C220.687 257.757 221.568 258.813 222.447 258.813C223.327 258.638 223.854 257.581 223.679 256.35C223.504 255.118 222.623 254.062 221.743 254.062C220.863 254.062 220.336 255.293 220.511 256.525Z" fill="#263238"/>
<path d="M217.211 260.491C217.211 260.491 219.705 265.17 222.09 267.337C220.897 268.935 218.295 268.592 218.295 268.592" stroke="black" stroke-width="1.32871" stroke-linecap="round" stroke-linejoin="round"/>
<path d="M211.196 275.879C212.077 276.056 212.956 276.056 214.013 275.879C214.188 275.879 214.363 275.704 214.363 275.527C214.363 275.352 214.188 275.176 214.013 275.176C208.205 275.879 204.861 272.009 204.861 272.009C204.685 271.832 204.508 271.832 204.333 272.009C204.158 272.184 204.158 272.359 204.333 272.536C204.333 272.711 206.796 275.527 211.196 275.879Z" fill="#263238" stroke="black" stroke-width="1.32871"/>
<path d="M200.284 253.893C200.637 253.893 200.812 253.717 200.989 253.541C202.573 250.55 205.388 250.373 205.563 250.373C205.916 250.373 206.268 250.021 206.268 249.493C206.268 249.141 205.916 248.789 205.388 248.789C205.213 248.789 201.693 248.966 199.58 252.661C199.405 253.013 199.58 253.541 199.932 253.717C200.109 253.893 200.109 253.893 200.284 253.893Z" fill="#263238"/>
<path fill-rule="evenodd" clip-rule="evenodd" d="M170.014 341.357L166.143 348.044C165.664 348.936 165.157 349.826 164.644 350.727C163.842 352.14 163.023 353.58 162.271 355.084C159.808 359.835 157.343 364.587 155.056 369.338C152.768 374.09 150.656 378.841 148.721 383.769C148.397 384.675 148.049 385.559 147.703 386.435C147.111 387.94 146.526 389.427 146.081 390.984L144.849 394.504L143.793 398.024L143.618 398.903L143.441 399.432V399.607C143.441 399.607 143.441 399.784 143.265 399.959V402.071C143.418 403.599 143.835 405.391 144.289 407.335C144.358 407.63 144.427 407.929 144.497 408.231C145.904 412.807 147.84 417.558 150.128 422.31C153.873 430.398 158.382 438.613 162.897 446.739L177.045 444.304L176.663 445.166L189.192 453.808L181.624 469.118L168.352 463.307C166.6 463.27 156.076 462.822 154.513 457.481C150.729 453.615 147.349 449.74 143.968 445.715C140.273 441.316 136.93 436.564 133.586 431.636C130.418 426.709 127.251 421.606 124.787 415.622C123.555 412.63 122.323 409.462 121.619 405.767C121.267 403.831 120.915 401.895 120.915 399.432C120.915 398.2 120.915 396.967 121.267 395.736L121.443 394.856L121.619 394.328L121.795 393.272C122.79 387.471 124.408 382.139 126.063 376.687L126.371 375.673C128.306 370.042 130.418 364.587 132.706 359.132C134.994 353.852 137.633 348.573 140.273 343.469C141.68 340.829 143.089 338.366 144.496 335.904L144.497 335.902C145.401 334.207 146.377 332.658 147.379 331.066C147.939 330.18 148.506 329.28 149.072 328.334L170.014 341.357Z" fill="white"/>
<path d="M166.143 348.044L165.568 347.712C165.564 347.717 165.561 347.724 165.557 347.729L166.143 348.044ZM170.014 341.357L170.589 341.69C170.768 341.379 170.67 340.982 170.366 340.793L170.014 341.357ZM162.271 355.084L162.861 355.389L162.865 355.381L162.271 355.084ZM148.721 383.769L148.102 383.526C148.099 383.533 148.097 383.539 148.095 383.546L148.721 383.769ZM146.081 390.984L146.708 391.203C146.712 391.191 146.716 391.179 146.72 391.167L146.081 390.984ZM144.849 394.504L144.222 394.284C144.218 394.294 144.215 394.303 144.213 394.314L144.849 394.504ZM143.793 398.023L143.157 397.832C143.151 397.852 143.146 397.873 143.142 397.893L143.793 398.023ZM143.618 398.903L144.247 399.113C144.255 399.088 144.263 399.061 144.269 399.033L143.618 398.903ZM143.441 399.432L142.811 399.222C142.788 399.29 142.776 399.36 142.776 399.432H143.441ZM143.265 399.959L142.795 399.489C142.67 399.614 142.601 399.783 142.601 399.959H143.265ZM143.265 402.071H142.601C142.601 402.093 142.602 402.116 142.604 402.137L143.265 402.071ZM144.289 407.335L144.94 407.205C144.938 407.197 144.937 407.19 144.936 407.184L144.289 407.335ZM144.289 407.335L143.637 407.465C143.639 407.476 143.641 407.485 143.644 407.496L144.289 407.335ZM144.289 407.335L144.936 407.184L144.933 407.174L144.289 407.335ZM144.497 408.231L143.85 408.379C143.853 408.395 143.857 408.411 143.862 408.426L144.497 408.231ZM150.128 422.31L150.731 422.031L150.727 422.021L150.128 422.31ZM162.897 446.739L162.317 447.061C162.453 447.308 162.731 447.441 163.009 447.393L162.897 446.739ZM177.045 444.304L177.653 444.575C177.752 444.35 177.72 444.09 177.57 443.896C177.42 443.703 177.174 443.608 176.934 443.65L177.045 444.304ZM176.663 445.166L176.055 444.896C175.926 445.189 176.022 445.532 176.285 445.714L176.663 445.166ZM189.192 453.808L189.788 454.102C189.934 453.807 189.841 453.448 189.568 453.261L189.192 453.808ZM181.624 469.117L181.358 469.726C181.684 469.869 182.062 469.73 182.221 469.412L181.624 469.117ZM168.352 463.307L168.619 462.698C168.539 462.664 168.453 462.645 168.366 462.643L168.352 463.307ZM154.513 457.481L155.151 457.293C155.12 457.188 155.064 457.094 154.989 457.016L154.513 457.481ZM133.586 431.636L133.026 431.996L133.036 432.009L133.586 431.636ZM121.619 405.767L120.965 405.885L120.966 405.891L121.619 405.767ZM121.267 395.735L121.906 395.919C121.911 395.901 121.915 395.884 121.919 395.866L121.267 395.735ZM121.443 394.856L120.813 394.646C120.804 394.672 120.797 394.699 120.792 394.726L121.443 394.856ZM121.619 394.328L122.249 394.538C122.26 394.505 122.269 394.472 122.274 394.437L121.619 394.328ZM121.795 393.272L121.14 393.16L121.14 393.163L121.795 393.272ZM126.371 375.673L125.742 375.458C125.74 375.466 125.737 375.473 125.735 375.481L126.371 375.673ZM132.706 359.132L132.096 358.868L132.093 358.874L132.706 359.132ZM140.273 343.469L139.687 343.156L139.683 343.164L140.273 343.469ZM144.497 335.902L145.074 336.232C145.076 336.225 145.08 336.22 145.083 336.214L144.497 335.902ZM147.379 331.066L147.941 331.42L147.949 331.409L147.379 331.066ZM147.379 331.066L146.817 330.712L146.81 330.724L147.379 331.066ZM149.072 328.334L149.423 327.771C149.273 327.676 149.089 327.647 148.916 327.688C148.744 327.731 148.595 327.84 148.503 327.992L149.072 328.334ZM166.717 348.377L170.589 341.69L169.44 341.024L165.568 347.712L166.717 348.377ZM165.222 351.055C165.734 350.155 166.244 349.258 166.728 348.359L165.557 347.729C165.083 348.613 164.579 349.496 164.066 350.398L165.222 351.055ZM162.865 355.381C163.608 353.894 164.417 352.471 165.222 351.055L164.066 350.398C163.265 351.81 162.439 353.264 161.677 354.787L162.865 355.381ZM155.654 369.626C157.937 364.885 160.397 360.143 162.861 355.389L161.681 354.778C159.218 359.528 156.751 364.289 154.457 369.05L155.654 369.626ZM149.339 384.012C151.267 379.103 153.373 374.366 155.654 369.626L154.457 369.05C152.164 373.814 150.045 378.58 148.102 383.526L149.339 384.012ZM148.323 386.679C148.667 385.803 149.019 384.91 149.346 383.992L148.095 383.546C147.775 384.44 147.431 385.313 147.086 386.191L148.323 386.679ZM146.72 391.167C147.155 389.646 147.727 388.188 148.323 386.679L147.086 386.191C146.494 387.693 145.898 389.209 145.442 390.802L146.72 391.167ZM145.476 394.723L146.708 391.203L145.454 390.765L144.222 394.284L145.476 394.723ZM144.429 398.215L145.486 394.695L144.213 394.314L143.157 397.832L144.429 398.215ZM144.269 399.033L144.444 398.154L143.142 397.893L142.965 398.773L144.269 399.033ZM144.071 399.642L144.247 399.113L142.986 398.693L142.811 399.222L144.071 399.642ZM144.105 399.607V399.432H142.776V399.607H144.105ZM143.735 400.43C143.905 400.26 143.999 400.08 144.049 399.928C144.075 399.853 144.088 399.785 144.096 399.732C144.1 399.704 144.103 399.68 144.104 399.659C144.104 399.65 144.105 399.639 144.105 399.631C144.105 399.626 144.105 399.622 144.105 399.618C144.105 399.617 144.105 399.615 144.105 399.613C144.105 399.611 144.105 399.611 144.105 399.61V399.609C144.105 399.607 144.105 399.607 143.441 399.607C142.776 399.607 142.776 399.607 142.776 399.607C142.776 399.607 142.776 399.606 142.776 399.605C142.776 399.605 142.776 399.603 142.776 399.602C142.776 399.601 142.776 399.599 142.776 399.598C142.776 399.594 142.776 399.591 142.776 399.589C142.776 399.582 142.778 399.577 142.778 399.571C142.778 399.561 142.779 399.551 142.78 399.544C142.783 399.528 142.786 399.517 142.788 399.508C142.795 399.488 142.802 399.482 142.795 399.489L143.735 400.43ZM143.93 402.071V399.959H142.601V402.071H143.93ZM144.936 407.184C144.48 405.228 144.073 403.48 143.926 402.006L142.604 402.137C142.762 403.717 143.192 405.556 143.641 407.485L144.936 407.184ZM144.933 407.174V407.173L143.644 407.496L144.933 407.174ZM145.144 408.082C145.074 407.779 145.005 407.479 144.936 407.184L143.641 407.485C143.711 407.782 143.78 408.079 143.85 408.379L145.144 408.082ZM150.727 422.021C148.45 417.292 146.527 412.572 145.132 408.035L143.862 408.426C145.281 413.041 147.232 417.823 149.53 422.598L150.727 422.021ZM163.478 446.416C158.962 438.289 154.464 430.093 150.731 422.031L149.525 422.589C153.281 430.702 157.802 438.937 162.317 447.061L163.478 446.416ZM176.934 443.65L162.784 446.084L163.009 447.393L177.158 444.959L176.934 443.65ZM177.27 445.436L177.653 444.575L176.438 444.034L176.055 444.896L177.27 445.436ZM176.285 445.714L188.815 454.354L189.568 453.261L177.04 444.619L176.285 445.714ZM188.596 453.513L181.029 468.824L182.221 469.412L189.788 454.102L188.596 453.513ZM181.891 468.509L168.619 462.698L168.086 463.916L181.358 469.726L181.891 468.509ZM153.877 457.667C154.326 459.204 155.41 460.349 156.729 461.198C158.045 462.045 159.637 462.625 161.196 463.027C164.316 463.829 167.445 463.953 168.338 463.971L168.366 462.643C167.508 462.624 164.498 462.504 161.527 461.739C160.042 461.356 158.599 460.821 157.448 460.081C156.299 459.341 155.483 458.428 155.151 457.293L153.877 457.667ZM143.461 446.143C146.845 450.173 150.237 454.063 154.039 457.944L154.989 457.016C151.22 453.169 147.854 449.306 144.477 445.287L143.461 446.143ZM133.036 432.009C136.383 436.94 139.742 441.715 143.461 446.143L144.477 445.287C140.805 440.916 137.476 436.187 134.136 431.264L133.036 432.009ZM124.173 415.875C126.661 421.918 129.856 427.065 133.026 431.996L134.145 431.277C130.979 426.353 127.84 421.292 125.401 415.368L124.173 415.875ZM120.966 405.891C121.684 409.656 122.938 412.877 124.173 415.875L125.401 415.368C124.172 412.383 122.962 409.268 122.272 405.642L120.966 405.891ZM120.251 399.432C120.251 401.962 120.613 403.949 120.965 405.885L122.273 405.648C121.921 403.713 121.58 401.829 121.58 399.432H120.251ZM120.628 395.553C120.247 396.889 120.251 398.213 120.251 399.432H121.58C121.58 398.186 121.584 397.047 121.906 395.919L120.628 395.553ZM120.792 394.726L120.616 395.605L121.919 395.866L122.095 394.986L120.792 394.726ZM120.989 394.118L120.813 394.646L122.073 395.066L122.249 394.538L120.989 394.118ZM121.14 393.163L120.964 394.219L122.274 394.437L122.45 393.381L121.14 393.163ZM125.428 376.493C123.774 381.941 122.143 387.311 121.14 393.16L122.45 393.385C123.436 387.63 125.042 382.337 126.699 376.88L125.428 376.493ZM125.735 375.481L125.428 376.493L126.699 376.88L127.006 375.867L125.735 375.481ZM132.093 358.874C129.801 364.341 127.684 369.811 125.742 375.458L126.999 375.89C128.929 370.275 131.036 364.832 133.319 359.389L132.093 358.874ZM139.683 343.164C137.042 348.271 134.394 353.566 132.096 358.868L133.316 359.395C135.595 354.137 138.226 348.873 140.863 343.773L139.683 343.164ZM143.919 335.574C142.512 338.036 141.1 340.508 139.687 343.156L140.859 343.781C142.262 341.152 143.665 338.696 145.073 336.233L143.919 335.574ZM143.921 335.573L143.919 335.574L145.073 336.233L145.074 336.232L143.921 335.573ZM146.817 330.712C145.817 332.3 144.828 333.869 143.911 335.589L145.083 336.214C145.973 334.544 146.938 333.014 147.941 331.42L146.817 330.712ZM148.503 327.992C147.94 328.93 147.376 329.825 146.817 330.712L147.941 331.42C148.501 330.534 149.071 329.628 149.642 328.677L148.503 327.992ZM170.366 340.793L149.423 327.771L148.721 328.899L169.663 341.921L170.366 340.793Z" fill="black"/>
<path d="M226.152 250.718C226.327 250.718 226.504 250.718 226.679 250.542C227.031 250.366 227.208 249.839 226.856 249.487C224.393 245.79 220.873 245.79 220.696 245.79C220.344 245.79 219.992 246.142 219.992 246.494C219.992 246.846 220.344 247.198 220.696 247.198C220.873 247.198 223.688 247.374 225.624 250.191C225.624 250.542 225.8 250.718 226.152 250.718Z" fill="#263238"/>
<path d="M153.109 316.712C137.622 319 121.608 372.85 121.608 372.85L154.869 391.328C154.869 391.328 168.419 365.635 174.755 346.629C181.794 326.567 169.828 314.248 153.109 316.712Z" fill="#5A39D6" stroke="black" stroke-width="1.32871"/>
<path d="M641.149 521.515H447.345C444.47 521.515 442.313 519.214 442.457 516.338L447.058 377.743C447.201 374.868 449.501 372.566 452.377 372.566H646.181C649.057 372.566 651.213 374.868 651.07 377.743L646.47 516.338C646.325 519.214 644.025 521.515 641.149 521.515Z" fill="#407BFF" stroke="black" stroke-width="1.32871"/>
<path opacity="0.6" d="M641.149 521.515H447.345C444.47 521.515 442.313 519.214 442.457 516.338L447.058 377.743C447.201 374.868 449.501 372.566 452.377 372.566H646.181C649.057 372.566 651.213 374.868 651.07 377.743L646.47 516.338C646.325 519.214 644.025 521.515 641.149 521.515Z" fill="#263238" stroke="black" stroke-width="1.32871"/>
<path d="M639.562 521.515H445.757C442.882 521.515 440.725 519.214 440.869 516.338L445.47 377.743C445.614 374.868 447.914 372.566 450.789 372.566H644.593C647.469 372.566 649.625 374.868 649.482 377.743L644.88 516.338C644.737 519.214 642.437 521.515 639.562 521.515Z" fill="#0068F8" stroke="black" stroke-width="1.32871"/>
<path d="M637.127 530.855H403.067C400.623 530.855 398.466 528.563 397.603 525.355C397.028 523.521 397.892 521.229 399.185 521.229H641.009C642.303 521.229 643.165 523.292 642.591 525.355C641.584 528.563 639.571 530.855 637.127 530.855Z" fill="#407BFF" stroke="black" stroke-width="1.32871"/>
<path opacity="0.6" d="M637.115 530.855H601.172C598.728 530.855 596.571 528.563 595.709 525.355C595.133 523.521 595.996 521.229 597.29 521.229H640.997C642.291 521.229 643.153 523.292 642.578 525.355C641.572 528.563 639.559 530.855 637.115 530.855Z" fill="#3389FF" stroke="black" stroke-width="1.32871"/>
<path opacity="0.2" d="M514.632 524.894H466.037C464.888 524.894 463.881 523.29 463.881 521.457H516.789C516.789 523.29 515.926 524.894 514.632 524.894Z" fill="black" stroke="black" stroke-width="1.32871"/>
<path d="M445.471 511.309L449.784 382.778C449.784 381.628 450.792 380.765 451.797 380.765H642.87C644.021 380.765 644.883 381.628 644.74 382.778L640.427 511.309C640.427 512.46 639.419 513.322 638.414 513.322H447.341C446.334 513.322 445.328 512.46 445.471 511.309Z" fill="white" stroke="black" stroke-width="1.32871"/>
<path opacity="0.4" d="M548.995 376.877C548.995 377.739 548.276 378.315 547.413 378.315C546.55 378.315 545.975 377.596 545.975 376.877C545.975 376.013 546.694 375.439 547.558 375.439C548.276 375.439 548.995 376.158 548.995 376.877Z" fill="black" stroke="black" stroke-width="1.32871"/>
<path d="M606.98 327.992C608.741 330.631 610.148 333.096 611.556 335.559C612.963 338.023 614.372 340.663 615.779 343.126C618.419 348.23 621.059 353.509 623.347 358.789C625.635 364.245 627.922 369.699 629.683 375.331C631.442 380.963 633.202 386.77 634.257 392.929L634.434 393.985L634.609 394.513L634.786 395.392C634.962 396.801 635.138 398.033 635.138 399.089C635.138 401.377 634.786 403.488 634.434 405.424C633.554 409.119 632.498 412.287 631.266 415.279C628.803 421.262 625.635 426.366 622.466 431.294C619.123 436.221 615.78 440.797 612.084 445.372C608.389 449.771 597.056 463.25 592.832 467.297L583.154 459.73C588.433 450.404 601.525 431.645 605.925 421.967C608.212 417.215 610.148 412.464 611.556 407.888C612.261 405.6 612.788 403.488 612.788 401.729C612.788 400.848 612.788 400.145 612.788 399.616C612.788 399.441 612.788 399.264 612.611 399.264C612.611 399.264 612.611 399.264 612.611 399.089L612.436 398.561L612.261 397.68L611.204 394.161L609.972 390.641C609.093 388.177 608.212 385.889 607.332 383.426C605.396 378.675 603.108 373.748 600.997 368.996C598.709 364.245 596.246 359.492 593.782 354.74C592.55 352.454 591.319 349.989 589.91 347.702L586.038 341.015L606.98 327.992Z" fill="white" stroke="black" stroke-width="1.32871"/>
<path d="M602.659 317.385H602.661C604.421 317.646 606.249 318.65 608.118 320.297C609.982 321.939 611.843 324.182 613.665 326.841C617.308 332.159 620.743 339.061 623.706 345.919C626.666 352.773 629.146 359.559 630.886 364.633C631.755 367.17 632.44 369.277 632.907 370.749C633.14 371.485 633.319 372.063 633.44 372.456C633.45 372.487 633.459 372.518 633.467 372.547L601.271 390.434C601.192 390.282 601.099 390.103 600.993 389.898C600.61 389.161 600.058 388.085 599.375 386.733C598.006 384.032 596.118 380.231 594.031 375.838C589.855 367.045 584.897 355.899 581.741 346.435L581.74 346.431C578.359 336.547 579.655 328.706 583.677 323.653C587.699 318.599 594.569 316.18 602.659 317.385Z" fill="#FFB000" stroke="black" stroke-width="1.32871"/>
<path d="M529.269 257.776C529.269 257.776 525.222 264.991 521.35 268.336C523.286 270.799 527.51 270.272 527.51 270.272L529.269 257.776Z" fill="white"/>
<path d="M528.67 267.451C525.678 267.451 523.039 263.227 522.687 257.771C522.335 254.251 523.214 250.908 524.623 249.148C525.326 248.444 526.207 247.916 527.086 247.916C530.078 247.916 532.717 252.14 533.069 257.596C533.422 261.114 532.542 264.458 531.133 266.218C530.429 267.099 529.55 267.451 528.67 267.451ZM527.086 248.972C526.382 248.972 525.855 249.324 525.326 249.852C523.919 251.436 523.214 254.427 523.566 257.771C523.919 262.523 526.382 266.57 528.67 266.57C529.374 266.57 529.902 266.218 530.429 265.69C531.838 264.106 532.542 261.114 532.19 257.771C531.838 253.02 529.55 248.972 527.086 248.972Z" fill="black"/>
<path fill-rule="evenodd" clip-rule="evenodd" d="M575.474 256.366C575.144 257.939 574.839 259.45 574.544 260.902C573.036 268.336 571.84 274.232 569.589 279.149C567.66 291.183 567.072 306.539 573.522 312.848C573.522 312.848 570.002 322.88 547.652 322.88C523.015 322.88 536.213 312.848 536.213 312.848C547.963 310.101 549.524 302.194 548.355 294.06C537.781 294.118 528.069 285.961 527.078 274.317C525.67 259.358 531.478 235.776 548.195 231.025C564.738 226.45 578.817 240.352 575.474 256.366Z" fill="white"/>
<path d="M569.589 279.149L568.984 278.873L568.947 278.955L568.933 279.044L569.589 279.149ZM573.522 312.848L574.148 313.068L574.289 312.669L573.986 312.374L573.522 312.848ZM536.213 312.848L536.062 312.201L535.923 312.234L535.812 312.319L536.213 312.848ZM548.355 294.06L549.013 293.966L548.93 293.392L548.351 293.396L548.355 294.06ZM527.078 274.317L527.74 274.259V274.254L527.078 274.317ZM548.195 231.025L548.019 230.384L548.015 230.385L548.195 231.025ZM575.195 261.033C575.49 259.581 575.795 258.073 576.124 256.503L574.823 256.23C574.495 257.806 574.188 259.318 573.893 260.769L575.195 261.033ZM570.194 279.425C572.483 274.424 573.692 268.445 575.195 261.033L573.893 260.769C572.379 268.227 571.197 274.039 568.984 278.873L570.194 279.425ZM573.986 312.374C570.944 309.399 569.492 304.197 569.076 298.101C568.663 292.039 569.285 285.245 570.245 279.254L568.933 279.044C567.964 285.087 567.328 291.99 567.75 298.191C568.171 304.359 569.649 309.99 573.057 313.324L573.986 312.374ZM547.652 323.544C558.926 323.544 565.534 321.013 569.343 318.413C571.246 317.113 572.439 315.804 573.161 314.805C573.522 314.305 573.764 313.884 573.918 313.581C573.996 313.43 574.051 313.308 574.088 313.221C574.107 313.177 574.12 313.143 574.131 313.116C574.136 313.104 574.14 313.094 574.143 313.086C574.144 313.082 574.145 313.078 574.146 313.075C574.146 313.074 574.146 313.072 574.148 313.071C574.148 313.07 574.148 313.068 573.522 312.848C572.895 312.629 572.895 312.627 572.895 312.627C572.896 312.627 572.896 312.626 572.896 312.625C572.896 312.625 572.896 312.625 572.896 312.626C572.895 312.627 572.894 312.631 572.891 312.638C572.887 312.65 572.878 312.671 572.866 312.7C572.84 312.76 572.798 312.855 572.735 312.977C572.609 313.223 572.402 313.585 572.084 314.026C571.448 314.907 570.364 316.106 568.594 317.315C565.055 319.731 558.728 322.215 547.652 322.215V323.544ZM536.213 312.848C535.812 312.319 535.811 312.319 535.811 312.32C535.811 312.32 535.811 312.32 535.809 312.32C535.809 312.32 535.808 312.322 535.807 312.323C535.805 312.324 535.801 312.327 535.799 312.33C535.791 312.335 535.78 312.343 535.767 312.354C535.74 312.375 535.702 312.405 535.652 312.445C535.557 312.522 535.42 312.637 535.256 312.78C534.93 313.066 534.491 313.475 534.043 313.969C533.177 314.926 532.162 316.32 532.032 317.805C531.964 318.579 532.137 319.369 532.669 320.097C533.192 320.812 534.029 321.425 535.213 321.924C537.566 322.918 541.469 323.544 547.652 323.544V322.215C541.516 322.215 537.83 321.587 535.729 320.699C534.685 320.259 534.078 319.773 533.742 319.313C533.415 318.867 533.314 318.402 533.355 317.922C533.445 316.899 534.191 315.786 535.028 314.862C535.433 314.414 535.833 314.041 536.132 313.779C536.281 313.648 536.404 313.545 536.49 313.476C536.532 313.443 536.564 313.417 536.587 313.399C536.597 313.391 536.605 313.385 536.609 313.382C536.612 313.379 536.614 313.378 536.614 313.378C536.616 313.377 536.616 313.377 536.616 313.377C536.616 313.377 536.616 313.377 536.213 312.848ZM547.697 294.154C548.275 298.168 548.158 302.014 546.539 305.171C544.935 308.294 541.796 310.86 536.062 312.201L536.365 313.495C542.38 312.089 545.898 309.328 547.72 305.778C549.525 302.261 549.605 298.086 549.013 293.966L547.697 294.154ZM526.417 274.372C527.437 286.372 537.446 294.784 548.359 294.724L548.351 293.396C538.114 293.451 528.701 285.551 527.74 274.259L526.417 274.372ZM548.015 230.385C539.378 232.84 533.629 240.138 530.223 248.595C526.816 257.058 525.703 266.8 526.417 274.379L527.74 274.254C527.045 266.874 528.132 257.346 531.456 249.091C534.782 240.829 540.295 233.961 548.377 231.664L548.015 230.385ZM576.124 256.503C579.566 240.011 565.05 225.674 548.019 230.384L548.374 231.665C564.427 227.224 578.068 240.694 574.823 256.23L576.124 256.503Z" fill="black"/>
<path d="M566.674 453.832L574.242 469.143L587.265 463.335L578.817 444.329L566.674 453.832Z" fill="#B55B52"/>
<path d="M510.92 318.245C510.96 318.144 510.994 318.056 511.025 317.982C511.093 317.965 511.172 317.945 511.261 317.921C511.625 317.828 512.161 317.694 512.844 317.527C514.211 317.197 516.167 316.741 518.524 316.248C523.24 315.261 529.548 314.122 535.938 313.509C545.743 312.634 561.892 312.983 573.153 313.512C580.337 313.862 587.66 314.782 593.192 315.617C595.956 316.034 598.271 316.429 599.894 316.72C600.698 316.863 601.333 316.981 601.768 317.064C594.314 348.764 592.096 380.926 591.615 406.877C591.372 419.946 591.57 431.445 591.763 440.518C591.784 441.517 591.805 442.485 591.826 443.423C591.98 450.534 592.096 455.857 591.921 458.953H591.914H591.833H591.749H591.666H591.582H591.496H591.41H591.323H591.235H591.147H591.058H590.968H590.878H590.786H590.693H590.6H590.507H590.413H590.317H590.221H590.124H590.026H589.928H589.829H589.73H589.629H589.528H589.425H589.323H589.219H589.116H589.011H588.906H588.8H588.692H588.584H588.475H588.366H588.257H588.146H588.036H587.924H587.811H587.698H587.584H587.47H587.354H587.237H587.121H587.003H586.885H586.767H586.647H586.527H586.407H586.286H586.163H586.041H585.918H585.794H585.669H585.544H585.418H585.292H585.164H585.037H584.908H584.779H584.649H584.518H584.388H584.257H584.125H583.992H583.858H583.724H583.59H583.454H583.319H583.183H583.046H582.908H582.77H582.632H582.492H582.353H582.212H582.071H581.929H581.787H581.644H581.501H581.357H581.213H581.068H580.922H580.775H580.629H580.482H580.334H580.187H580.038H579.888H579.738H579.588H579.437H579.286H579.133H578.98H578.828H578.675H578.521H578.365H578.211H578.056H577.899H577.742H577.585H577.428H577.27H577.111H576.953H576.793H576.633H576.472H576.311H576.15H575.988H575.826H575.663H575.499H575.336H575.171H575.006H574.841H574.675H574.509H574.343H574.177H574.01H573.841H573.674H573.505H573.335H573.166H572.996H572.826H572.654H572.483H572.312H572.14H571.967H571.795H571.621H571.448H571.274H571.098H570.924H570.749H570.574H570.397H570.22H570.043H569.867H569.689H569.511H569.333H569.155H568.975H568.796H568.616H568.436H568.255H568.074H567.894H567.712H567.53H567.348H567.165H566.982H566.799H566.615H566.432H566.247H566.063H565.878H565.693H565.507H565.321H565.135H564.949H564.762H564.575H564.387H564.2H564.012H563.824H563.635H563.446H563.258H563.068H562.879H562.689H562.498H562.308H562.116H561.926H561.735H561.544H561.351H561.16H560.967H560.774H560.582H560.388H560.195H560.001H559.807H559.613H559.419H559.225H559.03H558.834H558.64H558.444H558.249H558.053H557.857H557.661H557.465H557.268H557.07H556.873H556.677H556.479H556.281H556.083H555.885H555.687H555.489H555.289H555.092H554.892H554.693H554.494H554.294H554.095H553.894H553.695H553.494H553.294H553.093H552.894H552.692H552.491H552.291H552.09H551.888H551.687H551.485H551.283H551.081H550.879H550.678H550.476H550.274H550.07H549.868H549.666H549.463H549.26H549.058H548.855H548.651H548.448H548.245H548.041H547.838H547.635H547.43H547.227H547.024H546.819H546.616H546.411H546.208H546.003H545.798H545.595H545.391H545.186H544.981H544.777H544.573H544.369H544.164H543.96H543.755H543.55H543.346H543.141H542.935H542.731H542.526H542.321H542.117H541.912H541.707H541.503H541.297H541.092H540.888H540.683H540.478H540.274H540.069H539.863H539.659H539.454H539.249H539.045H538.84H538.635H538.431H538.226H538.022H537.817H537.614H537.409H537.204H537H536.796H536.592H536.387H536.184H535.979H535.776H535.571H535.368H535.165H534.96H534.757H534.554H534.35H534.147H533.944H533.74H533.538H533.335H533.132H532.93H532.727H532.525H532.321H532.119H531.917H531.715H531.514H531.312H531.111H530.909H530.707H530.506H530.304H530.104H529.903H529.703H529.502H529.301H529.102H528.901H528.702H528.501H528.302H528.103H527.903H527.704H527.505H527.307H527.108H526.91H526.712H526.514H526.316H526.118H525.921H525.723H525.526H525.33H525.133H524.936H524.74H524.544H524.348H524.152H523.957H523.762H523.566H523.373H523.179H522.983H522.789H522.597H522.403H522.209H522.016H521.823H521.631H521.438H521.247H521.055H520.864H520.673H520.481H520.29H520.1H519.91H519.72H519.53H519.341H519.153H518.964H518.775H518.586H518.399H518.21H518.024H517.837H517.65H517.464H517.278H517.092H516.907H516.721H516.536H516.352H516.168H515.985H515.8H515.618H515.435H515.253H515.071H514.889H514.707H514.526H514.345H514.165H513.985H513.804H513.626H513.447H513.268H513.09H512.912H512.735H512.558H512.381H512.205H512.029H511.853H511.679H511.503H511.329H511.155H510.981H510.808H510.635H510.463H510.291H510.12H509.949H509.777H509.607H509.437H509.268H509.099H508.931H508.762H508.595H508.427H508.261H508.094H507.928H507.763H507.598H507.433H507.269H507.105H506.942H506.78H506.617H506.455H506.295H506.134H505.973H505.814H505.654H505.495H505.337H505.178H505.116C497.663 413.01 499.161 377.718 502.525 353.901C504.215 341.944 506.376 332.878 508.111 326.807C508.979 323.771 509.74 321.484 510.283 319.96C510.554 319.198 510.771 318.625 510.92 318.245Z" fill="#FFB000" stroke="black" stroke-width="1.32871"/>
<path fill-rule="evenodd" clip-rule="evenodd" d="M522.488 341.54C519.145 347.348 515.8 352.627 512.105 358.082C508.585 363.538 504.889 368.817 501.018 373.92C493.45 384.304 485.179 394.511 475.852 404.19C471.101 408.941 466.173 413.693 460.19 417.917L457.902 419.501C457.374 419.765 456.89 420.072 456.407 420.38C455.923 420.688 455.438 420.997 454.911 421.26C453.292 422.142 451.675 422.78 450.16 423.375C449.863 423.492 449.568 423.609 449.278 423.725C445.583 424.956 442.063 425.836 438.72 426.363C431.856 427.595 425.169 427.947 418.481 427.947C415.138 427.947 411.971 427.947 408.626 427.595C406.548 427.486 404.538 427.309 402.51 427.064C397.957 430.493 392.21 432.741 389.092 433.116L377.576 438.057L366.841 424.506L379.732 415.465L379.42 414.745L398.771 414.397V414.222C399.461 414.099 400.152 413.978 400.844 413.856C406.168 412.919 411.583 411.967 416.722 410.877C417.632 410.663 418.528 410.465 419.415 410.269C421.444 409.82 423.44 409.377 425.521 408.766C428.336 408.062 431.152 407.182 433.792 406.301C436.432 405.422 439.072 404.542 441.184 403.31C442.24 402.781 443.295 402.254 443.999 401.726C444.201 401.592 444.351 401.483 444.48 401.39C444.688 401.24 444.838 401.131 445.056 401.022L446.639 399.79C450.687 396.447 454.734 392.223 458.781 387.999H458.783C466.525 379.201 473.917 369.521 480.956 359.491C483.16 356.404 485.296 353.248 487.449 350.066C488.733 348.169 490.023 346.262 491.339 344.355C493.665 340.804 495.992 337.167 498.26 333.623C499.251 332.075 500.23 330.543 501.194 329.046L522.488 341.54Z" fill="white"/>
<path d="M512.105 358.082L511.555 357.71L511.547 357.722L512.105 358.082ZM522.488 341.54L523.063 341.872C523.245 341.556 523.139 341.152 522.824 340.967L522.488 341.54ZM501.018 373.921L500.488 373.519L500.481 373.53L501.018 373.921ZM475.852 404.19L476.322 404.66L476.331 404.651L475.852 404.19ZM460.19 417.917L460.568 418.463L460.572 418.459L460.19 417.917ZM457.902 419.501L458.199 420.095C458.227 420.081 458.254 420.065 458.28 420.047L457.902 419.501ZM456.407 420.38L456.049 419.82C456.035 419.829 456.021 419.838 456.008 419.849L456.407 420.38ZM456.407 420.38L456.763 420.941C456.778 420.932 456.791 420.923 456.804 420.912L456.407 420.38ZM454.911 421.26L454.613 420.666C454.606 420.67 454.598 420.674 454.592 420.677L454.911 421.26ZM449.278 423.725L449.49 424.355C449.501 424.351 449.513 424.347 449.525 424.341L449.278 423.725ZM438.72 426.364L438.617 425.707L438.602 425.71L438.72 426.364ZM408.626 427.595L408.697 426.935C408.685 426.934 408.673 426.934 408.662 426.932L408.626 427.595ZM402.51 427.064L402.59 426.405C402.42 426.383 402.249 426.43 402.11 426.532L402.51 427.064ZM389.092 433.116L389.012 432.457C388.949 432.464 388.888 432.481 388.83 432.506L389.092 433.116ZM377.576 438.058L377.055 438.469C377.241 438.705 377.562 438.786 377.837 438.667L377.576 438.058ZM366.841 424.506L366.46 423.963C366.31 424.068 366.21 424.23 366.183 424.41C366.157 424.591 366.207 424.776 366.32 424.919L366.841 424.506ZM379.732 415.465L380.114 416.01C380.371 415.83 380.467 415.492 380.342 415.202L379.732 415.465ZM379.42 414.745L379.408 414.081C379.186 414.085 378.981 414.199 378.862 414.385C378.741 414.573 378.722 414.806 378.81 415.01L379.42 414.745ZM398.771 414.397L398.783 415.062C399.146 415.055 399.436 414.759 399.436 414.397H398.771ZM398.771 414.222L398.656 413.567C398.339 413.623 398.107 413.899 398.107 414.222H398.771ZM416.722 410.877L416.86 411.527L416.874 411.525L416.722 410.877ZM419.415 410.269L419.285 409.617L419.272 409.62L419.415 410.269ZM419.415 410.269L419.546 410.92L419.559 410.917L419.415 410.269ZM425.521 408.766L425.36 408.122C425.351 408.123 425.343 408.126 425.334 408.128L425.521 408.766ZM441.184 403.31L440.886 402.717C440.874 402.722 440.861 402.73 440.849 402.736L441.184 403.31ZM443.999 401.727L443.631 401.174C443.621 401.181 443.61 401.187 443.601 401.195L443.999 401.727ZM445.056 401.022L445.352 401.616C445.392 401.598 445.429 401.574 445.464 401.547L445.056 401.022ZM446.639 399.791L447.047 400.316C447.053 400.312 447.057 400.308 447.062 400.302L446.639 399.791ZM458.781 388L459.261 388.459L459.268 388.453L458.781 388ZM458.783 388L459.268 388.453C459.272 388.449 459.277 388.443 459.281 388.438L458.783 388ZM480.956 359.491L480.415 359.104L480.411 359.11L480.956 359.491ZM491.339 344.356L491.886 344.733L491.894 344.72L491.339 344.356ZM501.194 329.046L501.53 328.472C501.223 328.293 500.828 328.387 500.634 328.686L501.194 329.046ZM512.655 358.456C516.358 352.988 519.711 347.695 523.063 341.872L521.912 341.209C518.577 347.001 515.242 352.267 511.555 357.71L512.655 358.456ZM501.547 374.323C505.43 369.205 509.134 363.913 512.663 358.443L511.547 357.722C508.035 363.163 504.349 368.429 500.488 373.519L501.547 374.323ZM476.331 404.651C485.684 394.945 493.973 384.714 501.555 374.313L500.481 373.53C492.928 383.894 484.675 394.077 475.374 403.729L476.331 404.651ZM460.572 418.459C466.606 414.201 471.567 409.415 476.322 404.66L475.382 403.721C470.635 408.468 465.741 413.185 459.807 417.373L460.572 418.459ZM458.28 420.047L460.568 418.463L459.811 417.371L457.524 418.955L458.28 420.047ZM456.763 420.941C457.251 420.63 457.706 420.341 458.199 420.095L457.605 418.907C457.042 419.189 456.529 419.515 456.049 419.82L456.763 420.941ZM456.804 420.912H456.805L456.008 419.849H456.007L456.804 420.912ZM455.207 421.855C455.77 421.574 456.283 421.247 456.763 420.941L456.049 419.82C455.562 420.131 455.106 420.42 454.613 420.666L455.207 421.855ZM450.404 423.993C451.914 423.399 453.569 422.748 455.228 421.843L454.592 420.677C453.016 421.536 451.436 422.16 449.917 422.757L450.404 423.993ZM449.525 424.341C449.812 424.226 450.105 424.111 450.404 423.993L449.917 422.757C449.62 422.874 449.323 422.991 449.032 423.107L449.525 424.341ZM438.824 427.02C442.208 426.486 445.764 425.597 449.49 424.355L449.068 423.094C445.402 424.316 441.919 425.186 438.617 425.707L438.824 427.02ZM418.481 428.612C425.191 428.612 431.921 428.26 438.837 427.017L438.602 425.71C431.791 426.932 425.146 427.283 418.481 427.283V428.612ZM408.557 428.257C411.941 428.613 415.142 428.612 418.481 428.612V427.283C415.133 427.283 412 427.283 408.697 426.935L408.557 428.257ZM402.431 427.723C404.473 427.97 406.498 428.149 408.592 428.26L408.662 426.932C406.599 426.823 404.603 426.648 402.59 426.405L402.431 427.723ZM389.171 433.776C392.428 433.384 398.282 431.079 402.91 427.594L402.11 426.532C397.63 429.906 391.991 432.098 389.012 432.457L389.171 433.776ZM377.837 438.667L389.353 433.727L388.83 432.506L377.314 437.446L377.837 438.667ZM366.32 424.919L377.055 438.469L378.097 437.644L367.362 424.094L366.32 424.919ZM379.351 414.922L366.46 423.963L367.222 425.051L380.114 416.01L379.351 414.922ZM378.81 415.01L379.122 415.73L380.342 415.202L380.03 414.482L378.81 415.01ZM398.759 413.733L379.408 414.081L379.432 415.41L398.783 415.062L398.759 413.733ZM398.107 414.222V414.397H399.436V414.222H398.107ZM400.728 413.203C400.036 413.324 399.345 413.446 398.656 413.567L398.887 414.876C399.575 414.755 400.266 414.632 400.958 414.51L400.728 413.203ZM416.584 410.228C411.458 411.315 406.055 412.265 400.728 413.203L400.958 414.51C406.281 413.575 411.708 412.621 416.86 411.527L416.584 410.228ZM419.272 409.62C418.384 409.816 417.486 410.015 416.569 410.23L416.874 411.525C417.78 411.311 418.67 411.114 419.559 410.917L419.272 409.62ZM425.334 408.128C423.278 408.733 421.304 409.17 419.272 409.62L419.559 410.917C421.585 410.468 423.602 410.023 425.708 409.403L425.334 408.128ZM433.582 405.672C430.95 406.55 428.152 407.423 425.36 408.122L425.682 409.411C428.521 408.701 431.355 407.815 434.002 406.932L433.582 405.672ZM440.849 402.736C438.808 403.927 436.24 404.787 433.582 405.672L434.002 406.932C436.625 406.058 439.336 405.157 441.519 403.884L440.849 402.736ZM440.887 402.717H440.886L441.481 403.904L440.887 402.717ZM443.601 401.195C442.956 401.679 441.962 402.178 440.887 402.717L441.481 403.904C442.516 403.386 443.635 402.829 444.398 402.258L443.601 401.195ZM444.09 400.852C443.962 400.944 443.821 401.046 443.631 401.174L444.367 402.279C444.581 402.137 444.739 402.022 444.87 401.929L444.09 400.852ZM444.758 400.428C444.486 400.564 444.296 400.703 444.09 400.852L444.87 401.929C445.08 401.777 445.19 401.699 445.352 401.616L444.758 400.428ZM446.232 399.266L444.648 400.498L445.464 401.547L447.047 400.316L446.232 399.266ZM458.302 387.54C454.248 391.771 450.228 395.964 446.216 399.278L447.062 400.302C451.145 396.93 455.22 392.677 459.261 388.459L458.302 387.54ZM480.411 359.11C473.382 369.127 466.005 378.785 458.283 387.561L459.281 388.438C467.044 379.617 474.451 369.917 481.5 359.872L480.411 359.11ZM486.899 349.694C484.746 352.877 482.614 356.026 480.415 359.104L481.497 359.876C483.707 356.782 485.847 353.619 488 350.438L486.899 349.694ZM490.791 343.979C489.474 345.889 488.183 347.797 486.899 349.694L488 350.438C489.284 348.541 490.573 346.637 491.886 344.733L490.791 343.979ZM497.7 333.266C495.432 336.81 493.107 340.444 490.783 343.991L491.894 344.72C494.223 341.165 496.552 337.526 498.819 333.982L497.7 333.266ZM500.634 328.686C499.671 330.185 498.692 331.717 497.7 333.266L498.819 333.982C499.81 332.433 500.79 330.902 501.753 329.405L500.634 328.686ZM522.824 340.967L501.53 328.472L500.857 329.619L522.151 342.114L522.824 340.967Z" fill="black"/>
<path d="M529.926 332.284L529.927 332.285C530.132 334.094 529.811 336.274 529.05 338.736C528.291 341.192 527.107 343.888 525.626 346.711C522.663 352.359 518.539 358.466 514.347 364.107C510.157 369.744 505.911 374.902 502.711 378.651C501.111 380.526 499.773 382.046 498.836 383.098C498.385 383.604 498.027 384.003 497.778 384.279L471.444 363.721C471.512 363.608 471.59 363.477 471.678 363.327C472.023 362.746 472.531 361.897 473.179 360.831C474.475 358.699 476.331 355.695 478.571 352.213C483.053 345.25 489.065 336.384 495.202 328.756C502.227 320.085 510.504 316.851 517.162 317.8C523.783 318.742 528.989 323.843 529.926 332.284Z" fill="#FFB000" stroke="black" stroke-width="1.32871"/>
<path d="M530.421 256.542C530.246 257.774 529.366 258.83 528.487 258.83C527.606 258.653 527.078 257.598 527.254 256.365C527.43 255.134 528.31 254.079 529.19 254.079C530.07 254.079 530.773 255.31 530.421 256.542Z" fill="black"/>
<path d="M535.161 250.746C535.336 250.746 535.512 250.746 535.688 250.571C536.04 250.394 536.216 249.867 535.864 249.514C533.4 245.819 529.88 245.819 529.705 245.819C529.353 245.819 529.001 246.171 529.001 246.524C529.001 246.876 529.353 247.226 529.705 247.226C529.88 247.226 532.696 247.403 534.632 250.219C534.809 250.571 534.984 250.746 535.161 250.746Z" fill="black"/>
<path d="M540.804 261.298C537.636 259.714 533.764 244.051 534.819 238.596C535.876 232.964 548.546 226.981 560.866 229.268C573.36 231.556 578.64 235.955 580.927 247.219C583.392 259.01 574.416 278.543 569.84 279.952C563.857 281.888 557.522 281.008 553.65 278.543C549.778 275.904 547.667 257.954 540.804 261.298Z" fill="#26079C"/>
<path d="M537.461 244.05C531.478 244.401 525.67 234.722 531.125 226.099C536.758 217.476 546.261 219.411 546.261 219.411C546.261 219.411 543.796 224.34 552.244 223.283C560.691 222.227 576.353 224.69 581.985 230.498C588.849 237.713 584.625 252.144 574.418 248.625C564.035 245.105 537.461 244.05 537.461 244.05Z" fill="#26079C"/>
<path d="M535.869 244.23C533.581 244.23 531.117 242.997 529.358 240.886C526.894 238.07 524.959 232.792 527.422 226.984C527.598 226.807 527.774 226.632 527.95 226.807C528.127 226.984 528.302 227.159 528.127 227.336C526.014 232.791 527.598 237.543 530.061 240.182C532.174 242.47 534.814 243.702 537.277 242.997C537.453 242.997 537.805 242.997 537.805 243.349C537.805 243.526 537.805 243.878 537.453 243.878C536.749 244.23 536.396 244.23 535.869 244.23Z" fill="#263238"/>
<path fill-rule="evenodd" clip-rule="evenodd" d="M504.736 458.016C504.736 458.016 501.393 481.864 497.169 514.215H542.567H560.347H597.473C598.705 482.233 592.899 458.016 592.899 458.016H562.635H536.056H504.736Z" fill="white"/>
<mask id="mask1_77_1860" style="mask-type:luminance" maskUnits="userSpaceOnUse" x="497" y="458" width="101" height="57">
<path fill-rule="evenodd" clip-rule="evenodd" d="M504.736 458.016C504.736 458.016 501.393 481.864 497.169 514.215H542.567H560.347H597.473C598.705 482.233 592.899 458.016 592.899 458.016H562.635H536.056H504.736Z" fill="white"/>
</mask>
<g mask="url(#mask1_77_1860)">
<path d="M497.169 514.215L495.851 514.044L495.656 515.544H497.169V514.215ZM504.736 458.016V456.688H503.581L503.421 457.832L504.736 458.016ZM597.473 514.215V515.544H598.753L598.802 514.267L597.473 514.215ZM592.899 458.016L594.19 457.707L593.946 456.688H592.899V458.016ZM498.486 514.388C500.598 498.215 502.489 484.168 503.852 474.164C504.534 469.161 505.084 465.17 505.464 462.43C505.654 461.06 505.8 460.003 505.9 459.288C505.95 458.93 505.988 458.658 506.013 458.476C506.026 458.384 506.035 458.317 506.042 458.27C506.046 458.247 506.047 458.23 506.05 458.218C506.05 458.213 506.051 458.208 506.051 458.205C506.051 458.204 506.051 458.202 506.051 458.202C506.051 458.202 506.051 458.201 504.736 458.016C503.421 457.832 503.421 457.832 503.421 457.832C503.421 457.833 503.421 457.833 503.421 457.833C503.421 457.834 503.419 457.834 503.419 457.837C503.419 457.839 503.419 457.843 503.418 457.849C503.417 457.861 503.414 457.878 503.41 457.902C503.405 457.947 503.394 458.016 503.382 458.108C503.355 458.291 503.318 458.562 503.268 458.921C503.168 459.636 503.021 460.695 502.832 462.066C502.452 464.807 501.902 468.801 501.22 473.805C499.856 483.813 497.963 497.866 495.851 514.044L498.486 514.388ZM497.169 515.544H542.567V512.887H497.169V515.544ZM542.567 515.544H560.346V512.887H542.567V515.544ZM597.473 512.887H560.346V515.544H597.473V512.887ZM592.899 458.016C591.606 458.326 591.606 458.326 591.606 458.326C591.606 458.327 591.607 458.327 591.607 458.328C591.607 458.331 591.608 458.335 591.61 458.34C591.612 458.351 591.616 458.367 591.622 458.39C591.631 458.433 591.647 458.501 591.668 458.592C591.709 458.772 591.769 459.042 591.846 459.399C592 460.114 592.221 461.175 592.481 462.547C593.002 465.295 593.685 469.296 594.33 474.293C595.621 484.29 596.758 498.264 596.146 514.165L598.802 514.267C599.421 498.186 598.271 484.06 596.966 473.953C596.313 468.898 595.621 464.846 595.092 462.053C594.827 460.656 594.603 459.573 594.444 458.839C594.365 458.472 594.302 458.19 594.259 458C594.237 457.906 594.221 457.833 594.209 457.784C594.203 457.76 594.198 457.741 594.195 457.728C594.194 457.721 594.193 457.716 594.191 457.712C594.191 457.711 594.191 457.709 594.191 457.708C594.19 457.708 594.19 457.708 594.19 457.707C594.19 457.707 594.19 457.707 592.899 458.016ZM562.635 459.345H592.899V456.688H562.635V459.345ZM562.635 456.688H536.056V459.345H562.635V456.688ZM536.056 456.688H504.736V459.345H536.056V456.688Z" fill="black"/>
</g>
</g>
<defs>
<clipPath id="clip0_77_1860">
<rect width="768" height="639.11" fill="white"/>
</clipPath>
</defs>
</svg>
