<svg width="768" height="769" viewBox="0 0 768 769" fill="none" xmlns="http://www.w3.org/2000/svg">
<g clip-path="url(#clip0_77_1956)">
<path d="M159.641 581.551C140.501 588.039 133.661 570.901 121.254 552.898C115.504 544.548 107.79 536.685 104.421 528.615C93.7802 503.136 107.37 490.141 126.731 485.169C146.697 480.052 164.433 490.777 173.702 518.347C182.472 544.464 180.536 574.455 159.641 581.551Z" fill="#5A39D6"/>
<path d="M333.618 108.343L333.597 108.345C198.612 128.302 138.986 186.626 121.06 251.603C103.026 316.966 126.838 390.184 161.13 440.315C188.145 479.794 199.847 514.448 210.156 544.982C213.137 553.81 216 562.292 219.084 570.446C225.974 588.665 233.964 605.324 246.749 620.927C259.527 636.524 277.211 651.205 303.648 665.272C356.385 693.334 406.331 694.94 449.084 678.488C491.912 662.009 527.814 627.293 552.089 582.221C571.274 546.601 598.827 516.418 625.088 487.652C632.714 479.3 640.232 471.065 647.402 462.853C679.47 426.127 704.732 389.768 704.645 344.134V344.131C704.549 251.734 640.221 168.584 545.954 132.233L545.951 132.232C498.755 113.974 445.682 107.98 404.292 106.576C383.619 105.875 365.91 106.321 353.376 106.941C347.109 107.252 342.139 107.605 338.741 107.881C337.041 108.019 335.735 108.137 334.857 108.22C334.418 108.262 334.086 108.295 333.866 108.318C333.755 108.329 333.672 108.337 333.618 108.343Z" fill="white" stroke="#5A39D6" stroke-width="6"/>
<path d="M431.092 216.862C424.05 216.862 418.342 222.571 418.342 229.612V318.112C418.342 325.153 424.05 330.862 431.092 330.862H524.092C531.133 330.862 536.842 325.153 536.842 318.112V246.621V228.006C536.842 221.851 531.852 216.862 525.697 216.862H431.092Z" fill="white" stroke="#846BFA" stroke-width="4.5"/>
<path d="M480.735 285.653L466.744 293.499C463.59 295.232 459.592 293.091 459.592 289.524V273.831V258.24C459.592 254.673 463.59 252.432 466.744 254.265L480.735 262.113L494.725 269.96C497.88 271.692 497.88 276.176 494.725 277.908L480.735 285.653Z" fill="#FFB000"/>
<path d="M438.651 443.896H144.596C140.449 443.896 137.092 440.551 137.092 436.419V151.491C137.092 147.359 140.449 144.112 144.497 144.112H437.861C442.799 144.112 446.846 148.146 446.846 153.066V435.73C446.846 440.256 443.193 443.896 438.651 443.896Z" fill="#E7E1FF"/>
<path d="M445.98 172.538H137.183V151.581C137.183 147.449 140.544 144.202 144.598 144.202H437.08C442.024 144.202 446.079 148.236 446.079 153.155V172.538H445.98Z" fill="#5A39D6"/>
<path d="M152.691 161.327C154.764 161.327 156.444 159.742 156.444 157.786C156.444 155.83 154.764 154.244 152.691 154.244C150.619 154.244 148.939 155.83 148.939 157.786C148.939 159.742 150.619 161.327 152.691 161.327Z" fill="white"/>
<path d="M165.435 161.327C167.508 161.327 169.188 159.742 169.188 157.786C169.188 155.83 167.508 154.244 165.435 154.244C163.364 154.244 161.684 155.83 161.684 157.786C161.684 159.742 163.364 161.327 165.435 161.327Z" fill="white"/>
<path d="M181.911 157.786C181.911 159.754 180.233 161.327 178.16 161.327C176.087 161.327 174.407 159.754 174.407 157.786C174.407 155.818 176.087 154.244 178.16 154.244C180.233 154.244 181.911 155.818 181.911 157.786Z" fill="white"/>
<path d="M423.592 184.612H161.092C155.294 184.612 150.592 189.313 150.592 195.112V306.112C150.592 311.911 155.294 316.612 161.092 316.612H423.592C429.391 316.612 434.092 311.911 434.092 306.112V195.112C434.092 189.313 429.391 184.612 423.592 184.612Z" fill="#FFB000"/>
<path d="M425.092 300.112H162.592C161.764 300.112 161.092 300.784 161.092 301.612C161.092 302.441 161.764 303.112 162.592 303.112H425.092C425.921 303.112 426.592 302.441 426.592 301.612C426.592 300.784 425.921 300.112 425.092 300.112Z" fill="#5A39D6"/>
<path d="M296.235 255.653L282.244 263.499C279.09 265.232 275.092 263.091 275.092 259.524V243.831V228.24C275.092 224.673 279.09 222.432 282.244 224.265L296.235 232.113L310.225 239.96C313.38 241.692 313.38 246.176 310.225 247.908L296.235 255.653Z" fill="#5A39D6"/>
<path d="M178.342 307.612C181.242 307.612 183.592 305.262 183.592 302.362C183.592 299.463 181.242 297.112 178.342 297.112C175.443 297.112 173.092 299.463 173.092 302.362C173.092 305.262 175.443 307.612 178.342 307.612Z" fill="#5A39D6"/>
<path d="M296.093 381.862H186.592C182.865 381.862 179.842 384.884 179.842 388.612V498.112C179.842 501.84 182.865 504.862 186.592 504.862H296.093C299.82 504.862 302.843 501.84 302.843 498.112V388.612C302.843 384.884 299.82 381.862 296.093 381.862Z" fill="white" stroke="#846BFA" stroke-width="4.5"/>
<path d="M174.592 456.112C183.705 456.112 191.092 448.725 191.092 439.612C191.092 430.5 183.705 423.112 174.592 423.112C165.48 423.112 158.092 430.5 158.092 439.612C158.092 448.725 165.48 456.112 174.592 456.112Z" fill="white" stroke="#846BFA" stroke-width="3"/>
<path d="M175.791 432.409C175.791 431.746 175.254 431.209 174.591 431.209C173.928 431.209 173.391 431.746 173.391 432.409V446.809C173.391 447.472 173.928 448.009 174.591 448.009C175.254 448.009 175.791 447.472 175.791 446.809V432.409Z" fill="#5A39D6"/>
<path d="M181.788 440.809C182.451 440.809 182.988 440.272 182.988 439.609C182.988 438.946 182.451 438.409 181.788 438.409H167.388C166.725 438.409 166.188 438.946 166.188 439.609C166.188 440.272 166.725 440.809 167.388 440.809H181.788Z" fill="#5A39D6"/>
<path d="M201.592 452.834C201.592 450.013 203.175 447.431 205.689 446.15L218.439 439.657C220.577 438.569 223.107 438.569 225.246 439.657L237.19 445.741C240.108 447.226 243.651 446.648 245.946 444.311L256.99 433.063C259.929 430.069 264.755 430.069 267.693 433.063L280.443 446.048C281.82 447.451 282.592 449.338 282.592 451.303V469.612C282.592 473.753 279.234 477.112 275.092 477.112H209.092C204.949 477.112 201.592 473.753 201.592 469.612V452.834Z" fill="#E3DDFF"/>
<path d="M234.592 427.612C239.563 427.612 243.592 423.583 243.592 418.612C243.592 413.642 239.563 409.612 234.592 409.612C229.622 409.612 225.592 413.642 225.592 418.612C225.592 423.583 229.622 427.612 234.592 427.612Z" fill="#E3DDFF"/>
<path d="M446.262 658.642L451.062 633.142C454.662 614.092 466.662 597.592 483.612 588.292H615.312L642.312 658.642H446.262Z" fill="#846BFA" stroke="black" stroke-width="3"/>
<path d="M418.513 451.342L379.813 504.892C368.863 519.892 366.764 539.542 373.964 556.642C385.214 583.042 415.663 595.492 442.213 584.692L561.463 536.242L518.564 457.792C497.564 419.542 444.013 416.092 418.513 451.342Z" fill="white"/>
<path d="M422.562 589.942C401.412 589.942 381.162 577.492 372.462 557.092C364.962 539.692 367.212 519.292 378.462 503.842L417.162 450.292C429.462 433.342 449.262 423.892 470.262 425.242C491.262 426.592 509.712 438.442 519.762 456.742L562.662 535.192C562.812 535.492 562.962 535.942 562.812 536.392C562.662 536.842 562.362 537.142 561.912 537.292L442.662 585.742C436.212 588.742 429.312 589.942 422.562 589.942ZM419.712 452.242L381.012 505.792C370.512 520.342 368.262 539.542 375.462 556.042C386.412 581.542 416.112 593.692 441.762 583.342L559.362 535.642L517.362 458.542C507.762 440.992 490.212 429.892 470.262 428.542C450.162 427.192 431.412 436.192 419.712 452.242Z" fill="black"/>
<path d="M465.762 514.941L483.612 588.291L615.312 591.291L630.312 492.591L465.762 514.941Z" fill="white"/>
<path d="M615.312 592.791L483.612 589.791C482.862 589.791 482.412 589.341 482.262 588.591L464.262 515.241C464.112 514.791 464.262 514.341 464.412 514.041C464.712 513.741 465.012 513.441 465.462 513.441L630.012 490.941C630.462 490.941 630.912 491.091 631.212 491.391C631.512 491.691 631.662 492.141 631.662 492.741L616.662 591.441C616.662 592.341 616.062 592.791 615.312 592.791ZM484.812 586.941L613.962 589.941L628.362 494.391L467.412 516.291L484.812 586.941Z" fill="black"/>
<path d="M589.362 418.191L618.912 441.141C645.912 462.141 663.612 493.191 667.962 527.091L675.312 584.991C679.962 621.891 651.162 654.591 613.962 654.591H607.512C567.912 654.591 538.662 617.991 547.212 579.441L548.862 572.091L589.362 418.191Z" fill="white"/>
<path d="M614.113 656.242H607.664C588.314 656.242 570.314 647.542 558.314 632.542C546.164 617.542 541.663 598.042 545.863 579.142L547.512 571.792L588.164 417.742C588.314 417.292 588.614 416.842 589.064 416.692C589.514 416.542 590.114 416.692 590.414 416.992L619.963 439.942C647.563 461.392 665.113 492.292 669.613 526.942L676.963 584.842C679.213 602.842 673.663 620.992 661.663 634.642C649.514 648.292 632.263 656.242 614.113 656.242ZM590.262 420.892L550.213 572.692L548.564 579.892C544.514 597.892 548.864 616.342 560.413 630.742C571.964 645.142 589.062 653.242 607.512 653.242H613.963C631.213 653.242 647.712 645.742 659.262 632.842C670.662 619.792 676.064 602.542 673.814 585.442L666.463 527.542C662.113 493.642 645.012 463.492 618.012 442.492L590.262 420.892Z" fill="black"/>
<path d="M630.66 351.641C636.003 333.87 625.93 315.132 608.161 309.788C590.391 304.443 571.653 314.517 566.308 332.286C560.964 350.057 571.036 368.795 588.807 374.139C606.577 379.482 625.315 369.41 630.66 351.641Z" fill="#5A39D6"/>
<path d="M640.011 389.274C653.309 380.396 656.89 362.418 648.012 349.121C639.133 335.823 621.158 332.24 607.859 341.118C594.561 349.997 590.979 367.974 599.857 381.272C608.736 394.571 626.714 398.153 640.011 389.274Z" fill="#5A39D6"/>
<path d="M609.009 364.642C612.909 361.042 618.759 359.992 623.859 362.542C630.309 365.692 633.309 373.492 630.459 380.092C627.459 387.142 619.059 390.292 612.159 386.992C610.659 386.242 609.459 385.342 608.259 384.292L589.059 449.542L571.509 444.442C558.309 440.542 550.659 426.742 554.559 413.392L571.959 353.992L609.009 364.642Z" fill="white"/>
<path d="M589.21 450.892C589.06 450.892 588.91 450.892 588.76 450.892L571.21 445.792C557.26 441.742 549.16 426.892 553.21 412.942L570.61 353.542C570.91 352.792 571.66 352.342 572.41 352.492L608.41 362.992C612.91 359.392 619.06 358.642 624.31 361.192C631.51 364.642 634.66 373.342 631.66 380.692C630.01 384.442 627.01 387.442 623.11 388.792C619.21 390.292 615.01 390.142 611.41 388.342C610.51 387.892 609.76 387.442 609.01 386.842L590.56 449.842C590.56 450.442 589.96 450.892 589.21 450.892ZM573.31 355.642L556.36 413.692C552.76 426.142 559.81 439.192 572.26 442.792L588.31 447.442L607.06 383.542C607.21 383.092 607.66 382.642 608.11 382.492C608.56 382.342 609.16 382.492 609.61 382.942C610.66 383.992 611.71 384.742 613.06 385.342C616.06 386.692 619.36 386.842 622.51 385.792C625.66 384.592 628.06 382.342 629.26 379.192C631.81 373.342 629.11 366.442 623.41 363.592C619.06 361.492 613.81 362.242 610.21 365.542C609.76 365.842 609.31 365.992 608.86 365.842L573.31 355.642Z" fill="black"/>
<path d="M611.112 377.542C610.962 377.542 610.812 377.542 610.662 377.392C609.912 377.092 609.462 376.192 609.762 375.442C611.112 371.542 613.362 368.992 616.362 367.642C620.562 365.842 624.762 367.492 624.912 367.492C625.662 367.792 626.112 368.692 625.662 369.442C625.362 370.192 624.462 370.642 623.712 370.192C623.712 370.192 620.562 368.992 617.562 370.342C615.462 371.242 613.812 373.342 612.612 376.342C612.312 377.092 611.712 377.542 611.112 377.542Z" fill="black"/>
<path d="M562.663 316.042C557.863 326.092 562.213 338.092 572.263 342.742C582.313 347.542 594.313 343.192 598.963 333.142C603.763 323.092 599.413 311.092 589.363 306.442C579.463 301.642 567.463 305.992 562.663 316.042Z" fill="#5A39D6"/>
<path d="M612.311 388.342C612.161 388.342 611.861 388.342 611.711 388.192C609.311 386.992 607.211 385.192 605.711 383.092C604.961 382.042 604.361 380.842 604.061 379.792C603.761 379.042 604.211 378.142 604.961 377.842C605.711 377.542 606.611 377.992 606.911 378.742C607.211 379.642 607.661 380.542 608.261 381.442C609.461 383.242 611.111 384.592 613.061 385.642C613.811 385.942 614.111 386.842 613.811 387.592C613.361 388.042 612.761 388.342 612.311 388.342Z" fill="black"/>
<path d="M612.162 358.792C617.112 344.242 614.112 329.392 603.612 321.442C589.662 310.942 567.312 316.942 553.962 334.942C540.612 352.942 541.062 375.892 555.012 386.392C565.512 394.192 580.662 392.842 593.262 383.992L612.162 358.792Z" fill="white"/>
<path d="M571.062 393.142C564.762 393.142 558.912 391.342 554.112 387.742C546.912 382.342 542.862 373.792 542.712 363.592C542.562 353.542 546.012 343.042 552.762 334.192C566.712 315.592 589.962 309.442 604.512 320.392C615.312 328.492 618.762 343.792 613.512 359.392C613.212 360.142 612.462 360.592 611.562 360.292C610.812 359.992 610.362 359.242 610.662 358.342C615.462 343.942 612.312 329.992 602.712 322.642C589.362 312.742 568.062 318.592 555.162 335.842C548.862 344.242 545.562 353.992 545.712 363.442C545.862 372.742 549.462 380.392 555.912 385.192C565.662 392.392 579.912 391.492 592.362 382.792C593.112 382.342 594.012 382.492 594.462 383.092C594.912 383.842 594.762 384.742 594.162 385.192C586.662 390.442 578.562 393.142 571.062 393.142Z" fill="black"/>
<path d="M609.91 366.591C609.61 366.591 609.31 366.441 609.01 366.441C591.31 363.291 581.11 341.091 586.21 316.941C586.21 316.641 586.36 316.341 586.36 316.191C592.96 315.741 599.11 317.241 604.21 321.141C616.06 330.141 617.86 348.891 609.91 366.591Z" fill="#5A39D6"/>
<path d="M564.012 332.992C564.162 334.192 561.612 335.242 558.462 335.542C555.312 335.842 552.762 335.092 552.612 333.892C552.462 332.692 555.012 331.642 558.162 331.342C561.312 331.192 563.862 331.792 564.012 332.992Z" fill="black"/>
<path d="M587.112 348.891C586.212 349.941 583.062 349.041 580.062 346.641C576.912 344.241 575.112 341.391 576.012 340.341C576.912 339.291 580.062 340.191 583.062 342.591C586.062 344.991 587.862 347.841 587.112 348.891Z" fill="black"/>
<path d="M560.862 353.842C560.262 353.842 559.662 353.542 559.512 352.942C558.762 350.992 558.912 348.592 560.262 346.942L565.814 339.592C566.264 338.992 567.312 338.842 567.912 339.292C568.512 339.742 568.662 340.792 568.212 341.392L562.662 348.742C562.062 349.642 561.912 350.692 562.212 351.742C562.512 352.492 562.212 353.392 561.462 353.692C561.312 353.842 561.162 353.842 560.862 353.842Z" fill="black"/>
<path d="M577.964 354.442C577.214 354.442 576.614 353.842 576.464 353.092C576.014 349.642 574.064 349.492 573.614 349.492C572.864 349.492 572.114 348.892 571.964 348.142C571.964 347.392 572.564 346.642 573.314 346.492C575.114 346.342 578.564 347.392 579.314 352.642C579.464 353.392 578.864 354.292 578.114 354.292C578.114 354.442 577.964 354.442 577.964 354.442Z" fill="black"/>
<path d="M560.412 342.591C559.962 342.591 559.662 342.441 559.362 342.141C556.812 339.441 555.162 340.791 555.012 340.941C554.412 341.541 553.512 341.391 552.912 340.791C552.312 340.191 552.462 339.291 553.062 338.691C554.412 337.491 557.862 336.291 561.462 340.041C562.062 340.641 562.062 341.541 561.462 342.141C561.162 342.441 560.712 342.591 560.412 342.591Z" fill="black"/>
<path d="M563.564 362.392C561.914 362.392 559.814 361.642 558.014 358.942C557.564 358.192 557.713 357.292 558.463 356.842C559.213 356.392 560.114 356.542 560.564 357.292C562.514 360.142 564.313 359.392 564.613 359.242C565.363 358.792 566.263 359.092 566.713 359.842C567.163 360.592 566.864 361.492 566.264 361.942C565.514 362.092 564.614 362.392 563.564 362.392Z" fill="black"/>
<path d="M639.312 610.341C638.712 610.341 638.112 610.041 637.962 609.441L611.412 538.941C611.112 538.191 611.562 537.291 612.312 536.991C613.062 536.691 613.96 537.141 614.26 537.891L640.812 608.391C641.112 609.141 640.662 610.041 639.912 610.341C639.612 610.191 639.462 610.341 639.312 610.341Z" fill="black"/>
<path d="M557.562 555.441L432.762 556.941C418.062 557.091 406.062 545.391 405.912 530.691L404.412 405.891C404.262 391.191 415.962 379.191 430.662 379.041L555.462 377.541C570.162 377.391 582.162 389.091 582.312 403.791L583.812 528.591C583.962 543.141 572.262 555.291 557.562 555.441Z" fill="#FFB000"/>
<path d="M475.578 457.842C488.55 452.151 494.452 437.021 488.76 424.049C483.067 411.077 467.938 405.176 454.966 410.867C441.994 416.559 436.092 431.69 441.785 444.66C447.477 457.632 462.606 463.535 475.578 457.842Z" fill="white"/>
<path d="M405.912 529.192L405.612 501.592L417.912 488.992C427.062 479.692 441.912 479.542 451.212 488.542C460.062 497.092 474.162 496.942 482.712 488.092L531.012 438.592C542.412 426.892 561.312 426.592 573.012 438.142L582.912 447.742L583.812 526.942C583.962 542.392 571.662 555.142 556.062 555.292L434.112 556.792C418.662 557.092 406.062 544.642 405.912 529.192Z" fill="#5A39D6"/>
<path d="M595.662 499.792C597.012 486.592 596.562 473.092 596.112 466.792C596.262 465.592 596.262 464.392 595.812 463.192C584.112 428.542 564.462 416.692 563.562 416.242C559.962 414.142 555.462 415.342 553.362 418.942C553.362 419.092 553.212 419.092 553.212 419.242C552.012 418.342 551.262 417.892 551.112 417.742C547.512 415.642 543.012 416.842 540.912 420.442C539.712 422.542 539.562 424.792 540.312 426.892C536.862 425.392 532.812 426.592 530.862 429.892C528.762 433.492 529.962 437.992 533.412 440.092C533.412 440.092 534.012 440.542 535.062 441.292C533.562 441.442 532.062 442.192 530.862 443.392C528.012 446.242 527.862 451.042 530.862 454.042C531.012 454.192 543.762 467.542 546.012 498.142C546.012 498.142 544.512 519.142 556.212 528.892L548.862 572.242C571.362 577.792 594.912 568.042 606.912 548.092L612.762 538.342L595.662 499.792Z" fill="white"/>
<path d="M561.612 575.241C557.262 575.241 552.912 574.791 548.412 573.591C547.662 573.441 547.212 572.691 547.362 571.941L554.712 529.341C543.462 519.291 544.512 499.791 544.662 497.991C542.412 468.441 530.112 455.091 529.962 454.941C526.512 451.341 526.512 445.791 530.112 442.191C530.712 441.591 531.462 441.141 532.212 440.691C528.612 437.991 527.562 432.891 529.962 428.991C531.762 425.841 535.212 424.341 538.662 424.641C538.512 422.841 538.962 421.041 539.862 419.541C542.412 415.341 547.812 413.841 552.162 416.391C552.312 416.391 552.612 416.691 553.212 416.991C555.912 413.541 560.862 412.641 564.762 414.891C565.662 415.341 585.762 427.491 597.612 462.741C598.062 464.091 598.212 465.441 597.912 466.941C598.362 473.691 598.812 486.591 597.462 499.641L614.262 537.741C614.412 538.191 614.412 538.641 614.112 539.091L608.262 548.841C598.062 565.491 580.362 575.241 561.612 575.241ZM550.512 571.041C572.112 575.691 594.012 566.241 605.562 547.191L610.962 538.041L594.312 500.241C594.164 499.941 594.162 499.791 594.162 499.491C595.512 486.591 595.062 473.391 594.612 466.791C594.612 466.641 594.612 466.491 594.612 466.491C594.762 465.441 594.762 464.541 594.462 463.641C582.912 429.441 563.714 417.891 562.814 417.441C559.964 415.791 556.362 416.691 554.712 419.541C554.712 419.541 554.564 419.691 554.564 419.841C554.414 420.291 553.962 420.441 553.512 420.591C553.062 420.741 552.614 420.591 552.314 420.291C551.114 419.391 550.362 418.941 550.362 418.941C547.512 417.291 543.912 418.191 542.262 421.041C541.362 422.541 541.214 424.491 541.814 426.291C541.964 426.891 541.812 427.491 541.512 427.941C541.062 428.391 540.462 428.541 539.862 428.241C537.162 427.041 533.862 428.091 532.362 430.641C530.712 433.491 531.612 437.091 534.462 438.891C534.462 438.891 535.062 439.341 536.262 440.241C536.712 440.541 537.012 441.291 536.862 441.741C536.712 442.341 536.262 442.791 535.662 442.791C534.312 442.941 533.112 443.541 532.212 444.441C529.812 446.691 529.812 450.591 532.212 452.841C532.362 452.991 545.564 466.791 547.814 497.841V497.991C547.814 498.141 546.464 518.391 557.564 527.541C558.014 527.841 558.162 528.441 558.012 528.891L550.512 571.041Z" fill="#080717"/>
<path d="M580.812 458.092C580.812 458.092 568.662 431.092 553.362 419.092L580.812 458.092Z" fill="white"/>
<path d="M580.812 459.592C580.212 459.592 579.762 459.292 579.462 458.692C579.312 458.392 567.312 431.842 552.462 420.292C551.862 419.842 551.712 418.792 552.162 418.192C552.612 417.592 553.662 417.442 554.262 417.892C569.712 429.892 581.712 456.292 582.162 457.492C582.462 458.242 582.162 459.142 581.412 459.442C581.112 459.592 580.962 459.592 580.812 459.592Z" fill="#080717"/>
<path d="M568.361 466.193C568.361 466.193 556.211 439.193 540.911 427.193L568.361 466.193Z" fill="white"/>
<path d="M568.361 467.693C567.761 467.693 567.31 467.393 567.01 466.793C566.86 466.493 554.86 439.943 540.01 428.393C539.41 427.943 539.261 426.893 539.711 426.293C540.161 425.693 541.211 425.543 541.811 425.993C557.261 437.993 569.261 464.393 569.711 465.593C570.011 466.343 569.711 467.243 568.961 467.543C568.661 467.543 568.511 467.693 568.361 467.693Z" fill="#080717"/>
<path d="M557.713 473.842C553.363 464.542 545.714 450.442 536.414 442.342L557.713 473.842Z" fill="white"/>
<path d="M557.713 475.342C557.113 475.342 556.664 475.042 556.364 474.442C551.714 464.542 544.364 451.192 535.364 443.392C534.764 442.792 534.613 441.892 535.213 441.292C535.813 440.692 536.714 440.542 537.314 441.142C546.614 449.242 554.264 463.042 559.064 473.092C559.364 473.842 559.064 474.742 558.314 475.042C558.164 475.342 558.014 475.342 557.713 475.342Z" fill="#080717"/>
<path d="M407.262 487.042C407.262 487.042 391.364 462.442 404.414 435.442C414.914 413.842 430.514 414.292 432.914 421.792C433.814 424.792 428.262 431.992 428.262 431.992C428.262 431.992 431.114 435.742 430.664 437.692C430.214 439.642 433.513 442.792 434.713 445.492C436.063 448.342 433.213 452.392 430.213 453.142C427.213 453.742 418.664 457.792 418.664 457.792C418.664 457.792 423.764 460.192 426.314 463.192C428.114 465.142 426.162 471.142 421.512 472.192C417.012 473.242 408.462 473.842 407.262 487.042Z" fill="white"/>
<path d="M428.862 442.642C428.562 442.642 428.262 442.642 428.112 442.342C427.362 441.892 427.212 440.991 427.662 440.241C428.112 439.491 429.312 436.942 428.712 435.142C428.412 434.242 427.662 433.642 426.462 433.192C419.712 430.942 407.712 438.142 403.662 441.142C403.062 441.592 402.012 441.442 401.562 440.842C401.112 440.242 401.262 439.191 401.862 438.741C402.462 438.292 417.912 427.042 427.362 430.342C430.062 431.242 431.112 432.892 431.562 434.092C432.762 437.542 430.512 441.292 430.212 441.742C429.912 442.492 429.312 442.642 428.862 442.642Z" fill="#080717"/>
<path d="M417.162 460.794C416.712 460.794 416.262 460.644 415.962 460.194C415.512 459.444 415.662 458.544 416.262 458.094C416.412 457.944 420.462 455.094 425.262 453.144C425.562 452.994 426.012 452.844 426.462 452.694C428.562 451.944 431.412 450.744 432.012 448.944C432.312 448.044 432.162 446.694 431.412 445.344C430.962 444.594 430.062 443.994 428.712 443.694C422.562 442.644 408.912 448.194 401.412 454.794C400.812 455.394 399.912 455.244 399.312 454.644C398.712 454.044 398.862 453.144 399.462 452.544C406.812 445.944 421.512 439.344 429.162 440.694C432.012 441.144 433.362 442.644 433.962 443.844C435.162 446.094 435.462 448.194 434.712 449.994C433.512 453.144 430.062 454.494 427.362 455.544C426.912 455.694 426.612 455.844 426.162 455.994C421.812 457.944 417.762 460.644 417.762 460.644C417.762 460.644 417.462 460.794 417.162 460.794Z" fill="#080717"/>
<path d="M408.162 490.042C407.712 490.042 407.262 489.892 406.962 489.442C406.662 489.142 383.712 456.892 410.262 424.492C416.112 417.292 421.362 414.142 426.012 414.892C431.112 415.792 433.212 421.342 433.212 421.642C433.212 421.792 433.362 422.092 433.362 422.242C433.362 422.542 432.912 429.442 427.812 433.192C427.212 433.642 426.162 433.492 425.712 432.892C425.262 432.292 425.412 431.242 426.012 430.792C429.462 428.242 430.212 423.592 430.362 422.392C429.912 421.492 428.412 418.342 425.562 417.892C422.112 417.292 417.762 420.292 412.662 426.442C391.812 451.942 402.762 476.542 407.562 484.792L409.962 474.592C410.112 474.142 410.412 473.692 410.862 473.542L421.212 469.642C421.362 469.642 423.912 468.742 424.662 466.792C425.112 465.742 424.962 464.542 424.212 463.192C423.612 462.142 422.862 461.542 421.662 461.242C417.162 460.042 409.212 463.792 406.512 465.442C405.762 465.892 404.862 465.592 404.412 464.992C403.962 464.242 404.262 463.342 404.862 462.892C405.312 462.592 415.812 456.442 422.412 458.392C424.362 458.992 425.862 460.192 426.762 461.842C427.962 464.092 428.112 466.042 427.362 467.992C426.012 471.142 422.262 472.342 422.112 472.492L412.662 476.092L409.662 488.992C409.512 489.592 409.062 490.042 408.462 490.192C408.462 490.042 408.312 490.042 408.162 490.042Z" fill="#080717"/>
</g>
<defs>
<clipPath id="clip0_77_1956">
<rect width="768" height="768" fill="white" transform="translate(0 0.110352)"/>
</clipPath>
</defs>
</svg>
