<svg width="176" height="160" viewBox="0 0 176 160" fill="none" xmlns="http://www.w3.org/2000/svg">
<path d="M169.709 57.75C180.364 99.7075 143.916 145.169 102.011 155.81C60.1074 166.45 17.5005 141.063 6.84629 99.1056C-3.80792 57.1481 1.60679 15.5447 43.5108 4.90407C85.4149 -5.73657 159.055 15.7925 169.709 57.75Z" stroke="#5A39D6" stroke-width="3"/>
<path d="M176 81.6087C176 122.564 132.261 155.765 91.6084 155.765C50.9556 155.765 18 122.564 18 81.6087C18 40.6535 32.5629 3.76465 73.2157 3.76465C113.868 3.76465 176 40.6535 176 81.6087Z" fill="#6CE9A6"/>
<path fill-rule="evenodd" clip-rule="evenodd" d="M56.9716 82.2608C58.5232 81.3279 62.9879 78.6705 64.6044 77.854C64.2013 72.1912 65.6204 66.819 68.8839 62.1494C70.8787 59.2938 74.0117 56.9894 75.025 53.5347C75.4173 52.2008 75.4187 50.7209 75.2983 49.2303C74.8599 43.8137 73.3342 38.7395 72.3258 33.4251C71.8246 30.7886 71.2391 27.545 72.5017 25.0144C75.0812 19.8468 81.4905 22.1609 84.5529 25.4302C90.3788 31.6516 92.771 40.5552 93.1491 48.9021C99.9554 44.0347 107.333 39.6372 115.431 37.3234C119.273 36.2252 123.946 36.0789 126.451 39.7826C128.213 42.3866 128.652 45.98 127.706 48.9678C127.396 49.9456 126.059 52.5935 126.075 52.5956C126.17 52.6074 129.455 55.6632 130.562 56.986C133.893 60.9652 132.826 66.0308 129.256 69.4328C134.679 71.3403 136.583 80.342 131.311 84.3992C136.475 92.7717 126.768 98.9611 121.112 102.923C105.832 113.626 100.021 115.377 87.7066 118.942C86.3419 119.337 80.9661 121.983 79.7339 122.691" fill="white"/>
<path d="M56.9716 82.2608C58.5232 81.3279 62.9879 78.6705 64.6044 77.854C64.2013 72.1912 65.6204 66.819 68.8839 62.1494C70.8787 59.2938 74.0117 56.9894 75.025 53.5347C75.4173 52.2008 75.4187 50.7209 75.2983 49.2303C74.8599 43.8137 73.3342 38.7395 72.3258 33.4251C71.8246 30.7886 71.2391 27.545 72.5017 25.0144C75.0812 19.8468 81.4905 22.1609 84.5529 25.4302C90.3788 31.6516 92.771 40.5552 93.1491 48.9021C99.9554 44.0347 107.333 39.6372 115.431 37.3234C119.273 36.2252 123.946 36.0789 126.451 39.7826C128.213 42.3866 128.652 45.98 127.706 48.9678C127.396 49.9456 126.059 52.5935 126.075 52.5956C126.17 52.6074 129.455 55.6632 130.562 56.986C133.893 60.9652 132.826 66.0308 129.256 69.4328C134.679 71.3403 136.583 80.342 131.311 84.3992C136.475 92.7717 126.768 98.9611 121.112 102.923C105.832 113.626 100.021 115.377 87.7066 118.942C86.3419 119.337 80.9661 121.983 79.7339 122.691" stroke="#5A39D6" stroke-width="3" stroke-miterlimit="1.5" stroke-linecap="round" stroke-linejoin="round"/>
<path d="M38.0857 85.0367C42.084 82.6915 48.039 77.2912 52.7896 77.7797C55.7457 78.0841 57.5134 84.2702 58.6975 86.4167C63.4692 95.0612 68.4334 103.597 73.369 112.148C75.4277 115.713 81.3759 121.578 79.573 126.383C77.8975 130.85 70.9188 133.902 66.9145 136.349" stroke="#5A39D6" stroke-width="3" stroke-miterlimit="1.5" stroke-linecap="round" stroke-linejoin="round"/>
</svg>
