<svg width="49" height="42" viewBox="0 0 49 42" fill="none" xmlns="http://www.w3.org/2000/svg">
<g clip-path="url(#clip0_77_415)">
<g clip-path="url(#clip1_77_415)">
<g clip-path="url(#clip2_77_415)">
<path d="M40.2905 9.82324C40.2905 10.7325 40.2905 11.6375 40.2905 12.5446" stroke="#003AE6" stroke-width="4" stroke-miterlimit="1.5" stroke-linecap="round" stroke-linejoin="round"/>
<path d="M46.1753 13.9033C44.865 13.9033 43.5641 13.9033 42.2569 13.9033" stroke="#003AE6" stroke-width="4" stroke-miterlimit="1.5" stroke-linecap="round" stroke-linejoin="round"/>
<path d="M36.3784 13.9033C35.7239 13.9033 35.0715 13.9033 34.4193 13.9033" stroke="#003AE6" stroke-width="4" stroke-miterlimit="1.5" stroke-linecap="round" stroke-linejoin="round"/>
<path d="M38.3335 16.6289C38.3335 17.962 38.3335 19.3741 38.3335 20.7109" stroke="#003AE6" stroke-width="4" stroke-miterlimit="1.5" stroke-linecap="round" stroke-linejoin="round"/>
<path d="M30.5015 34.3125C29.2109 34.3125 27.8603 34.3125 26.5831 34.3125" stroke="#003AE6" stroke-width="4" stroke-miterlimit="1.5" stroke-linecap="round" stroke-linejoin="round"/>
<path d="M24.6167 28.874C24.6167 29.7824 24.6167 30.6863 24.6167 31.5953" stroke="#003AE6" stroke-width="4" stroke-miterlimit="1.5" stroke-linecap="round" stroke-linejoin="round"/>
<path d="M24.6167 35.6787C24.6167 36.9744 24.6167 38.4793 24.6167 39.7607" stroke="#003AE6" stroke-width="4" stroke-miterlimit="1.5" stroke-linecap="round" stroke-linejoin="round"/>
<path d="M20.7046 34.3125C19.3759 34.3125 18.1 34.3125 16.7862 34.3125" stroke="#003AE6" stroke-width="4" stroke-miterlimit="1.5" stroke-linecap="round" stroke-linejoin="round"/>
<path d="M12.7847 2.84375C12.7847 4.20573 12.7847 5.56114 12.7847 6.92573" stroke="#003AE6" stroke-width="4" stroke-miterlimit="1.5" stroke-linecap="round" stroke-linejoin="round"/>
<path d="M20.6206 9.64746C19.3182 9.64746 17.9991 9.64746 16.7023 9.64746" stroke="#003AE6" stroke-width="4" stroke-miterlimit="1.5" stroke-linecap="round" stroke-linejoin="round"/>
<path d="M12.7847 11.0127C12.1691 12.7622 12.0574 14.749 10.8255 16.4553" stroke="#003AE6" stroke-width="4" stroke-miterlimit="1.5" stroke-linecap="round" stroke-linejoin="round"/>
<path d="M6.90186 8.28906C5.59672 8.28906 4.28986 8.28906 2.98349 8.28906" stroke="#003AE6" stroke-width="4" stroke-miterlimit="1.5" stroke-linecap="round" stroke-linejoin="round"/>
</g>
</g>
</g>
<defs>
<clipPath id="clip0_77_415">
<rect width="48" height="42" fill="white" transform="translate(0.97998)"/>
</clipPath>
<clipPath id="clip1_77_415">
<rect width="48" height="42" fill="white" transform="translate(0.97998)"/>
</clipPath>
<clipPath id="clip2_77_415">
<rect width="48" height="42" fill="white" transform="translate(0.97998)"/>
</clipPath>
</defs>
</svg>
